{"glyphs":{"0":{"ha":936,"x_min":97,"x_max":839,"o":"m 468 -21 q 274 26 357 -21 q 144 156 190 72 q 97 350 97 239 l 97 650 q 144 844 97 761 q 274 974 190 928 q 468 1021 357 1021 q 663 974 579 1021 q 792 844 746 928 q 839 650 839 761 l 839 350 q 792 156 839 239 q 663 26 746 72 q 468 -21 579 -21 m 468 158 q 558 182 518 158 q 622 246 599 206 q 646 336 646 286 l 646 665 q 622 756 646 715 q 558 819 599 796 q 468 843 518 843 q 378 819 418 843 q 314 756 338 796 q 290 665 290 715 l 290 336 q 314 246 290 286 q 378 182 338 206 q 468 158 418 158 z "},"1":{"ha":631,"x_min":83,"x_max":464,"o":"m 271 0 l 271 794 l 83 679 l 83 888 l 271 1000 l 464 1000 l 464 0 l 271 0 z "},"2":{"ha":839,"x_min":69,"x_max":769,"o":"m 69 1 l 69 165 l 489 538 q 556 616 536 579 q 575 685 575 653 q 556 766 575 731 q 503 823 538 802 q 424 843 469 843 q 339 821 376 843 q 283 764 303 799 q 264 686 263 728 l 69 686 q 115 864 69 789 q 240 980 160 939 q 428 1021 321 1021 q 603 978 526 1021 q 725 859 681 935 q 769 682 769 783 q 749 559 769 608 q 687 468 728 510 q 586 375 646 427 l 315 138 l 300 179 l 769 179 l 769 1 l 69 1 z "},"3":{"ha":821,"x_min":56,"x_max":738,"o":"m 389 -18 q 246 12 314 -18 q 127 97 178 42 q 56 226 77 152 l 239 275 q 296 190 253 220 q 389 160 339 160 q 468 181 432 160 q 525 237 503 201 q 546 315 546 272 q 502 426 546 380 q 389 472 458 472 q 349 466 368 472 q 311 450 329 460 l 226 599 l 544 863 l 558 822 l 94 822 l 94 1000 l 719 1000 l 719 822 l 472 583 l 471 636 q 616 576 557 623 q 707 461 676 529 q 738 315 738 392 q 690 145 738 221 q 563 26 642 70 q 389 -18 483 -18 z "},"4":{"ha":854,"x_min":69,"x_max":785,"o":"m 504 0 l 504 156 l 69 156 l 69 332 l 385 1000 l 601 1000 l 286 332 l 504 332 l 504 582 l 696 582 l 696 332 l 785 332 l 785 156 l 696 156 l 696 0 l 504 0 z "},"5":{"ha":818,"x_min":69,"x_max":749,"o":"m 394 -21 q 252 10 319 -21 q 138 97 186 42 q 69 226 90 153 l 251 275 q 284 214 260 240 q 338 174 307 188 q 401 160 369 160 q 480 181 444 160 q 537 237 516 201 q 558 315 558 272 q 537 394 558 358 q 480 450 516 429 q 401 471 444 471 q 315 453 349 471 q 265 419 282 435 l 106 468 l 136 1000 l 682 1000 l 682 824 l 240 824 l 307 886 l 286 543 l 254 582 q 340 626 292 613 q 429 640 388 640 q 595 598 524 640 q 708 483 667 556 q 749 315 749 410 q 699 145 749 221 q 569 24 650 69 q 394 -21 489 -21 z "},"6":{"ha":864,"x_min":97,"x_max":794,"o":"m 446 -21 q 268 26 347 -21 q 143 155 189 72 q 97 347 97 238 l 97 638 q 143 841 97 756 q 272 973 189 927 q 468 1019 356 1019 q 607 998 541 1019 q 728 925 673 976 l 593 790 q 535 829 568 815 q 468 843 503 843 q 374 818 414 843 q 312 752 334 792 q 290 665 290 711 l 290 517 l 258 551 q 358 618 301 595 q 475 642 415 642 q 641 599 569 642 q 754 483 713 557 q 794 315 794 410 q 747 145 794 221 q 619 24 699 69 q 446 -21 540 -21 m 446 160 q 525 181 489 160 q 582 237 560 201 q 603 315 603 272 q 582 394 603 358 q 526 451 561 430 q 447 472 490 472 q 368 451 404 472 q 311 394 333 430 q 290 315 290 358 q 311 238 290 274 q 367 181 332 203 q 446 160 403 160 z "},"7":{"ha":756,"x_min":56,"x_max":686,"o":"m 147 0 l 483 822 l 56 822 l 56 1000 l 686 1000 l 686 822 l 351 0 l 147 0 z "},"8":{"ha":865,"x_min":83,"x_max":782,"o":"m 432 -21 q 252 20 331 -21 q 128 134 173 62 q 83 300 83 207 q 119 449 83 379 q 222 564 155 519 l 218 506 q 139 610 167 555 q 110 733 110 665 q 151 885 110 820 q 265 985 192 949 q 432 1021 338 1021 q 599 985 526 1021 q 713 885 672 949 q 754 733 754 820 q 727 610 754 665 q 644 504 700 556 l 644 563 q 746 450 710 521 q 782 300 782 379 q 737 134 782 207 q 613 20 692 62 q 432 -21 533 -21 m 432 157 q 540 193 499 157 q 582 300 582 229 q 540 407 582 370 q 432 444 499 444 q 324 407 365 444 q 283 300 283 370 q 324 193 283 229 q 432 157 365 157 m 432 624 q 520 650 486 624 q 554 733 554 677 q 520 817 554 790 q 432 844 486 844 q 344 817 378 844 q 310 733 310 790 q 344 650 310 677 q 432 624 378 624 z "},"9":{"ha":864,"x_min":69,"x_max":767,"o":"m 418 1019 q 596 973 517 1019 q 721 843 675 926 q 767 651 767 760 l 767 361 q 721 157 767 243 q 592 25 675 72 q 396 -21 508 -21 q 257 1 323 -21 q 136 74 192 23 l 271 208 q 329 169 296 183 q 396 156 362 156 q 490 181 450 156 q 552 247 530 206 q 574 333 574 288 l 574 482 l 606 447 q 506 380 563 403 q 389 357 449 357 q 223 399 294 357 q 110 515 151 442 q 69 683 69 589 q 117 854 69 778 q 244 975 165 930 q 418 1019 324 1019 m 418 839 q 339 818 375 839 q 282 762 303 797 q 261 683 261 726 q 282 605 261 640 q 338 548 303 569 q 417 526 374 526 q 495 548 460 526 q 552 605 531 569 q 574 683 574 640 q 553 760 574 725 q 497 817 532 796 q 418 839 461 839 z "},"A":{"ha":949,"x_min":28,"x_max":921,"o":"m 28 0 l 333 1000 l 615 1000 l 921 0 l 726 0 l 454 882 l 490 882 l 222 0 l 28 0 m 211 208 l 211 385 l 739 385 l 739 208 l 211 208 z "},"Á":{"ha":949,"x_min":28,"x_max":921,"o":"m 564 1104 l 424 1104 l 539 1375 l 679 1375 l 564 1104 m 28 0 l 333 1000 l 615 1000 l 921 0 l 726 0 l 454 882 l 490 882 l 222 0 l 28 0 m 211 208 l 211 385 l 739 385 l 739 208 l 211 208 z "},"Ă":{"ha":949,"x_min":28,"x_max":921,"o":"m 475 1083 q 364 1113 414 1083 q 284 1193 314 1143 q 254 1304 254 1243 l 400 1304 q 422 1251 400 1273 q 475 1229 444 1229 q 528 1251 506 1229 q 550 1304 550 1273 l 696 1304 q 666 1193 696 1243 q 586 1113 636 1143 q 475 1083 536 1083 m 28 0 l 333 1000 l 615 1000 l 921 0 l 726 0 l 454 882 l 490 882 l 222 0 l 28 0 m 211 208 l 211 385 l 739 385 l 739 208 l 211 208 z "},"Ắ":{"ha":949,"x_min":28,"x_max":921,"o":"m 474 1083 q 363 1113 413 1083 q 283 1193 313 1143 q 253 1304 253 1243 l 399 1304 q 421 1251 399 1273 q 474 1229 443 1229 q 527 1251 506 1229 q 549 1304 549 1273 l 695 1304 q 665 1193 695 1243 q 585 1113 635 1143 q 474 1083 535 1083 m 549 1375 l 408 1375 l 524 1646 l 664 1646 l 549 1375 m 28 0 l 333 1000 l 615 1000 l 921 0 l 726 0 l 454 882 l 490 882 l 222 0 l 28 0 m 211 208 l 211 385 l 739 385 l 739 208 l 211 208 z "},"Ặ":{"ha":949,"x_min":28,"x_max":921,"o":"m 380 -271 l 380 -104 l 569 -104 l 569 -271 l 380 -271 m 475 1083 q 364 1113 414 1083 q 284 1193 314 1143 q 254 1304 254 1243 l 400 1304 q 422 1251 400 1273 q 475 1229 444 1229 q 528 1251 506 1229 q 550 1304 550 1273 l 696 1304 q 666 1193 696 1243 q 586 1113 636 1143 q 475 1083 536 1083 m 28 0 l 333 1000 l 615 1000 l 921 0 l 726 0 l 454 882 l 490 882 l 222 0 l 28 0 m 211 208 l 211 385 l 739 385 l 739 208 l 211 208 z "},"Ằ":{"ha":949,"x_min":28,"x_max":921,"o":"m 474 1083 q 363 1113 413 1083 q 283 1193 313 1143 q 253 1304 253 1243 l 399 1304 q 421 1251 399 1273 q 474 1229 443 1229 q 527 1251 506 1229 q 549 1304 549 1273 l 695 1304 q 665 1193 695 1243 q 585 1113 635 1143 q 474 1083 535 1083 m 400 1375 l 285 1646 l 425 1646 l 540 1375 l 400 1375 m 28 0 l 333 1000 l 615 1000 l 921 0 l 726 0 l 454 882 l 490 882 l 222 0 l 28 0 m 211 208 l 211 385 l 739 385 l 739 208 l 211 208 z "},"Ẳ":{"ha":949,"x_min":28,"x_max":921,"o":"m 474 1083 q 363 1113 413 1083 q 283 1193 313 1143 q 253 1304 253 1243 l 399 1304 q 421 1251 399 1273 q 474 1229 443 1229 q 527 1251 506 1229 q 549 1304 549 1273 l 695 1304 q 665 1193 695 1243 q 585 1113 635 1143 q 474 1083 535 1083 m 352 1560 l 306 1652 q 405 1698 349 1689 q 512 1684 462 1708 q 585 1599 562 1661 q 595 1508 603 1549 q 561 1436 588 1467 q 500 1389 535 1406 q 429 1369 465 1372 l 400 1445 q 464 1482 438 1455 q 472 1549 491 1508 q 439 1581 460 1576 q 394 1579 418 1586 q 352 1560 371 1572 m 28 0 l 333 1000 l 615 1000 l 921 0 l 726 0 l 454 882 l 490 882 l 222 0 l 28 0 m 211 208 l 211 385 l 739 385 l 739 208 l 211 208 z "},"Ẵ":{"ha":949,"x_min":28,"x_max":921,"o":"m 580 1354 q 515 1370 546 1354 q 456 1406 484 1385 q 403 1441 428 1426 q 359 1457 379 1457 q 330 1434 338 1457 q 331 1375 322 1410 l 215 1375 q 223 1529 193 1466 q 341 1592 253 1592 q 406 1576 375 1592 q 465 1540 437 1560 q 517 1505 493 1520 q 562 1489 542 1489 q 591 1512 583 1489 q 590 1571 599 1535 l 706 1571 q 698 1417 728 1481 q 580 1354 667 1354 m 458 1083 q 347 1113 397 1083 q 267 1193 297 1143 q 237 1304 237 1243 l 383 1304 q 405 1251 383 1273 q 458 1229 426 1229 q 511 1251 489 1229 q 533 1304 533 1273 l 678 1304 q 649 1193 678 1243 q 569 1113 619 1143 q 458 1083 519 1083 m 28 0 l 333 1000 l 615 1000 l 921 0 l 726 0 l 454 882 l 490 882 l 222 0 l 28 0 m 211 208 l 211 385 l 739 385 l 739 208 l 211 208 z "},"Â":{"ha":949,"x_min":28,"x_max":921,"o":"m 194 1104 l 394 1333 l 550 1333 l 750 1104 l 576 1104 l 472 1229 l 368 1104 l 194 1104 m 28 0 l 333 1000 l 615 1000 l 921 0 l 726 0 l 454 882 l 490 882 l 222 0 l 28 0 m 211 208 l 211 385 l 739 385 l 739 208 l 211 208 z "},"Ấ":{"ha":949,"x_min":28,"x_max":971,"o":"m 194 1104 l 394 1333 l 549 1333 l 749 1104 l 576 1104 l 472 1229 l 367 1104 l 194 1104 m 856 1250 l 715 1250 l 831 1521 l 971 1521 l 856 1250 m 28 0 l 333 1000 l 615 1000 l 921 0 l 726 0 l 454 882 l 490 882 l 222 0 l 28 0 m 211 208 l 211 385 l 739 385 l 739 208 l 211 208 z "},"Ậ":{"ha":949,"x_min":28,"x_max":921,"o":"m 380 -271 l 380 -104 l 569 -104 l 569 -271 l 380 -271 m 194 1104 l 394 1333 l 550 1333 l 750 1104 l 576 1104 l 472 1229 l 368 1104 l 194 1104 m 28 0 l 333 1000 l 615 1000 l 921 0 l 726 0 l 454 882 l 490 882 l 222 0 l 28 0 m 211 208 l 211 385 l 739 385 l 739 208 l 211 208 z "},"Ầ":{"ha":949,"x_min":28,"x_max":921,"o":"m 194 1104 l 394 1333 l 549 1333 l 749 1104 l 576 1104 l 472 1229 l 367 1104 l 194 1104 m 728 1250 l 613 1521 l 753 1521 l 869 1250 l 728 1250 m 28 0 l 333 1000 l 615 1000 l 921 0 l 726 0 l 454 882 l 490 882 l 222 0 l 28 0 m 211 208 l 211 385 l 739 385 l 739 208 l 211 208 z "},"Ẩ":{"ha":949,"x_min":28,"x_max":968,"o":"m 194 1104 l 394 1333 l 550 1333 l 750 1104 l 576 1104 l 472 1229 l 368 1104 l 194 1104 m 717 1310 l 670 1402 q 770 1448 713 1439 q 876 1434 826 1458 q 949 1349 926 1411 q 960 1258 968 1299 q 926 1186 952 1217 q 865 1139 900 1156 q 794 1119 829 1122 l 765 1195 q 829 1232 802 1205 q 837 1299 856 1258 q 804 1331 825 1326 q 759 1329 783 1336 q 717 1310 735 1322 m 28 0 l 333 1000 l 615 1000 l 921 0 l 726 0 l 454 882 l 490 882 l 222 0 l 28 0 m 211 208 l 211 385 l 739 385 l 739 208 l 211 208 z "},"Ẫ":{"ha":949,"x_min":28,"x_max":921,"o":"m 194 1104 l 394 1333 l 549 1333 l 749 1104 l 576 1104 l 472 1229 l 367 1104 l 194 1104 m 599 1368 q 534 1384 565 1368 q 475 1419 503 1399 q 423 1455 447 1440 q 378 1471 399 1471 q 350 1448 358 1471 q 351 1389 342 1424 l 234 1389 q 243 1543 213 1480 q 360 1606 273 1606 q 425 1590 394 1606 q 484 1554 456 1574 q 537 1518 513 1534 q 581 1503 561 1503 q 610 1526 602 1503 q 609 1585 619 1549 l 726 1585 q 717 1431 748 1494 q 599 1368 687 1368 m 28 0 l 333 1000 l 615 1000 l 921 0 l 726 0 l 454 882 l 490 882 l 222 0 l 28 0 m 211 208 l 211 385 l 739 385 l 739 208 l 211 208 z "},"Ä":{"ha":949,"x_min":28,"x_max":921,"o":"m 539 1106 l 539 1272 l 706 1272 l 706 1106 l 539 1106 m 244 1106 l 244 1272 l 411 1272 l 411 1106 l 244 1106 m 28 0 l 333 1000 l 615 1000 l 921 0 l 726 0 l 454 882 l 490 882 l 222 0 l 28 0 m 211 208 l 211 385 l 739 385 l 739 208 l 211 208 z "},"Ạ":{"ha":949,"x_min":28,"x_max":921,"o":"m 380 -271 l 380 -104 l 569 -104 l 569 -271 l 380 -271 m 28 0 l 333 1000 l 615 1000 l 921 0 l 726 0 l 454 882 l 490 882 l 222 0 l 28 0 m 211 208 l 211 385 l 739 385 l 739 208 l 211 208 z "},"À":{"ha":949,"x_min":28,"x_max":921,"o":"m 385 1104 l 269 1375 l 410 1375 l 525 1104 l 385 1104 m 921 0 l 726 0 l 458 882 l 494 882 l 222 0 l 28 0 l 333 1000 l 615 1000 l 921 0 m 738 208 l 210 208 l 210 385 l 738 385 l 738 208 z "},"Ả":{"ha":949,"x_min":28,"x_max":921,"o":"m 367 1310 l 320 1402 q 420 1448 363 1439 q 526 1434 476 1458 q 599 1349 576 1411 q 610 1258 618 1299 q 576 1186 602 1217 q 515 1139 550 1156 q 444 1119 479 1122 l 415 1195 q 479 1232 452 1205 q 487 1299 506 1258 q 454 1331 475 1326 q 409 1329 433 1336 q 367 1310 385 1322 m 28 0 l 333 1000 l 615 1000 l 921 0 l 726 0 l 454 882 l 490 882 l 222 0 l 28 0 m 211 208 l 211 385 l 739 385 l 739 208 l 211 208 z "},"Ā":{"ha":949,"x_min":28,"x_max":921,"o":"m 286 1167 l 286 1311 l 664 1311 l 664 1167 l 286 1167 m 28 0 l 333 1000 l 615 1000 l 921 0 l 726 0 l 454 882 l 490 882 l 222 0 l 28 0 m 211 208 l 211 385 l 739 385 l 739 208 l 211 208 z "},"Ą":{"ha":949,"x_min":28,"x_max":921,"o":"m 778 -332 q 697 -310 732 -332 q 643 -252 663 -287 q 624 -175 624 -216 q 652 -72 624 -124 q 731 22 681 -21 q 842 92 780 65 l 921 0 q 844 -51 878 -22 q 789 -109 809 -80 q 768 -160 768 -138 q 778 -184 768 -174 q 804 -194 789 -194 q 827 -189 815 -194 q 851 -174 839 -184 l 917 -260 q 855 -313 892 -294 q 778 -332 817 -332 m 28 0 l 333 1000 l 615 1000 l 921 0 l 726 0 l 454 882 l 490 882 l 222 0 l 28 0 m 211 208 l 211 385 l 739 385 l 739 208 l 211 208 z "},"Å":{"ha":949,"x_min":28,"x_max":921,"o":"m 475 1076 q 381 1102 424 1076 q 313 1170 338 1127 q 288 1264 288 1213 q 313 1358 288 1316 q 381 1426 338 1401 q 475 1451 424 1451 q 569 1426 527 1451 q 637 1358 612 1401 q 663 1264 663 1316 q 637 1170 663 1213 q 569 1102 612 1127 q 475 1076 527 1076 m 475 1188 q 529 1210 507 1188 q 551 1264 551 1233 q 529 1318 551 1296 q 475 1340 507 1340 q 421 1318 444 1340 q 399 1264 399 1296 q 421 1210 399 1233 q 475 1188 444 1188 m 28 0 l 333 1000 l 615 1000 l 921 0 l 726 0 l 454 882 l 490 882 l 222 0 l 28 0 m 211 208 l 211 385 l 739 385 l 739 208 l 211 208 z "},"Ã":{"ha":949,"x_min":28,"x_max":921,"o":"m 594 1143 q 530 1159 560 1143 q 470 1194 499 1174 q 418 1230 442 1215 q 374 1246 394 1246 q 345 1223 353 1246 q 346 1164 337 1199 l 229 1164 q 238 1318 208 1255 q 356 1381 268 1381 q 420 1365 390 1381 q 480 1329 451 1349 q 532 1293 508 1309 q 576 1278 556 1278 q 606 1301 597 1278 q 604 1360 614 1324 l 721 1360 q 713 1206 743 1269 q 594 1143 682 1143 m 28 0 l 333 1000 l 615 1000 l 921 0 l 726 0 l 454 882 l 490 882 l 222 0 l 28 0 m 211 208 l 211 385 l 739 385 l 739 208 l 211 208 z "},"Æ":{"ha":1313,"x_min":28,"x_max":1243,"o":"m 28 0 l 333 1000 l 653 1000 l 653 824 l 410 824 l 490 883 l 222 0 l 28 0 m 211 208 l 211 385 l 739 385 l 739 208 l 211 208 m 590 0 l 590 1000 l 1243 1000 l 1243 824 l 779 824 l 779 610 l 1160 610 l 1160 433 l 779 433 l 779 176 l 1243 176 l 1243 0 l 590 0 z "},"B":{"ha":885,"x_min":97,"x_max":843,"o":"m 97 0 l 97 1000 l 497 1000 q 670 957 604 1000 q 767 850 736 915 q 797 719 797 785 q 759 580 797 635 q 656 506 722 524 l 656 540 q 796 453 749 521 q 843 303 843 386 q 810 145 843 213 q 710 39 777 77 q 540 0 642 0 l 97 0 m 289 178 l 521 178 q 589 194 559 178 q 636 240 619 210 q 653 310 653 269 q 638 373 653 345 q 594 417 624 401 q 521 433 565 433 l 289 433 l 289 178 m 289 610 l 494 610 q 551 621 526 610 q 591 655 576 632 q 606 715 606 678 q 577 792 606 761 q 494 824 549 824 l 289 824 l 289 610 z "},"C":{"ha":1036,"x_min":42,"x_max":981,"o":"m 526 -21 q 268 44 376 -21 q 100 227 159 110 q 42 500 42 344 q 100 773 42 656 q 268 956 159 890 q 526 1021 376 1021 q 816 935 699 1021 q 981 704 933 850 l 790 651 q 697 793 763 742 q 526 843 631 843 q 368 801 431 843 q 272 681 304 758 q 240 500 240 604 q 272 319 240 396 q 368 199 304 242 q 526 157 431 157 q 697 208 631 157 q 790 349 763 258 l 981 296 q 816 65 933 150 q 526 -21 699 -21 z "},"Ć":{"ha":1036,"x_min":42,"x_max":981,"o":"m 615 1104 l 474 1104 l 590 1375 l 730 1375 l 615 1104 m 526 -21 q 268 44 376 -21 q 100 227 159 110 q 42 500 42 344 q 100 773 42 656 q 268 956 159 890 q 526 1021 376 1021 q 816 935 699 1021 q 981 704 933 850 l 790 651 q 697 793 763 742 q 526 843 631 843 q 368 801 431 843 q 272 681 304 758 q 240 500 240 604 q 272 319 240 396 q 368 199 304 242 q 526 157 431 157 q 697 208 631 157 q 790 349 763 258 l 981 296 q 816 65 933 150 q 526 -21 699 -21 z "},"Č":{"ha":1036,"x_min":42,"x_max":981,"o":"m 240 1333 l 414 1333 l 518 1208 l 622 1333 l 796 1333 l 596 1104 l 440 1104 l 240 1333 m 526 -21 q 268 44 376 -21 q 100 227 159 110 q 42 500 42 344 q 100 773 42 656 q 268 956 159 890 q 526 1021 376 1021 q 816 935 699 1021 q 981 704 933 850 l 790 651 q 697 793 763 742 q 526 843 631 843 q 368 801 431 843 q 272 681 304 758 q 240 500 240 604 q 272 319 240 396 q 368 199 304 242 q 526 157 431 157 q 697 208 631 157 q 790 349 763 258 l 981 296 q 816 65 933 150 q 526 -21 699 -21 z "},"Ç":{"ha":1036,"x_min":42,"x_max":981,"o":"m 510 -336 q 456 -328 481 -336 q 411 -310 432 -321 l 451 -201 q 493 -210 478 -210 q 522 -199 512 -210 q 532 -178 532 -189 q 505 -141 532 -153 q 442 -118 478 -128 l 490 24 l 600 25 l 575 -50 q 638 -104 616 -71 q 660 -182 660 -137 q 615 -293 660 -251 q 510 -336 570 -336 m 526 -21 q 268 44 376 -21 q 100 227 159 110 q 42 500 42 344 q 100 773 42 656 q 268 956 159 890 q 526 1021 376 1021 q 816 935 699 1021 q 981 704 933 850 l 790 651 q 697 793 763 742 q 526 843 631 843 q 368 801 431 843 q 272 681 304 758 q 240 500 240 604 q 272 319 240 396 q 368 199 304 242 q 526 157 431 157 q 697 208 631 157 q 790 349 763 258 l 981 296 q 816 65 933 150 q 526 -21 699 -21 z "},"Ĉ":{"ha":1036,"x_min":42,"x_max":981,"o":"m 246 1104 l 446 1333 l 601 1333 l 801 1104 l 628 1104 l 524 1229 l 419 1104 l 246 1104 m 526 -21 q 268 44 376 -21 q 100 227 159 110 q 42 500 42 344 q 100 773 42 656 q 268 956 159 890 q 526 1021 376 1021 q 816 935 699 1021 q 981 704 933 850 l 790 651 q 697 793 763 742 q 526 843 631 843 q 368 801 431 843 q 272 681 304 758 q 240 500 240 604 q 272 319 240 396 q 368 199 304 242 q 526 157 431 157 q 697 208 631 157 q 790 349 763 258 l 981 296 q 816 65 933 150 q 526 -21 699 -21 z "},"Ċ":{"ha":1036,"x_min":42,"x_max":981,"o":"m 438 1144 l 438 1333 l 626 1333 l 626 1144 l 438 1144 m 526 -21 q 268 44 376 -21 q 100 227 159 110 q 42 500 42 344 q 100 773 42 656 q 268 956 159 890 q 526 1021 376 1021 q 816 935 699 1021 q 981 704 933 850 l 790 651 q 697 793 763 742 q 526 843 631 843 q 368 801 431 843 q 272 681 304 758 q 240 500 240 604 q 272 319 240 396 q 368 199 304 242 q 526 157 431 157 q 697 208 631 157 q 790 349 763 258 l 981 296 q 816 65 933 150 q 526 -21 699 -21 z "},"D":{"ha":986,"x_min":97,"x_max":917,"o":"m 97 0 l 97 1000 l 421 1000 q 469 999 433 1000 q 540 994 506 999 q 745 910 661 980 q 873 734 829 841 q 917 500 917 627 q 873 266 917 373 q 745 90 829 159 q 540 6 661 20 q 469 1 506 1 q 421 0 433 0 l 97 0 m 289 178 l 421 178 q 472 179 440 178 q 529 185 503 180 q 636 246 594 198 q 697 361 677 294 q 717 500 717 428 q 696 642 717 575 q 634 756 676 710 q 529 815 592 803 q 472 822 503 821 q 421 822 440 822 l 289 822 l 289 178 z "},"Ð":{"ha":992,"x_min":14,"x_max":922,"o":"m 14 428 l 14 574 l 493 574 l 493 428 l 14 428 m 103 0 l 103 1000 l 426 1000 q 475 999 438 1000 q 546 994 512 999 q 751 910 667 980 q 878 734 835 841 q 922 500 922 627 q 878 266 922 373 q 751 90 835 159 q 546 6 667 20 q 475 1 512 1 q 426 0 438 0 l 103 0 m 294 178 l 426 178 q 477 179 445 178 q 535 185 509 180 q 641 246 600 198 q 702 361 683 294 q 722 500 722 428 q 702 642 722 575 q 640 756 681 710 q 535 815 598 803 q 477 822 509 821 q 426 822 445 822 l 294 822 l 294 178 z "},"Ď":{"ha":986,"x_min":97,"x_max":917,"o":"m 161 1333 l 335 1333 l 439 1208 l 543 1333 l 717 1333 l 517 1104 l 361 1104 l 161 1333 m 97 0 l 97 1000 l 421 1000 q 469 999 433 1000 q 540 994 506 999 q 745 910 661 980 q 873 734 829 841 q 917 500 917 627 q 873 266 917 373 q 745 90 829 159 q 540 6 661 20 q 469 1 506 1 q 421 0 433 0 l 97 0 m 289 178 l 421 178 q 472 179 440 178 q 529 185 503 180 q 636 246 594 198 q 697 361 677 294 q 717 500 717 428 q 696 642 717 575 q 634 756 676 710 q 529 815 592 803 q 472 822 503 821 q 421 822 440 822 l 289 822 l 289 178 z "},"Đ":{"ha":992,"x_min":14,"x_max":922,"o":"m 14 428 l 14 574 l 493 574 l 493 428 l 14 428 m 103 0 l 103 1000 l 426 1000 q 475 999 438 1000 q 546 994 512 999 q 751 910 667 980 q 878 734 835 841 q 922 500 922 627 q 878 266 922 373 q 751 90 835 159 q 546 6 667 20 q 475 1 512 1 q 426 0 438 0 l 103 0 m 294 178 l 426 178 q 477 179 445 178 q 535 185 509 180 q 641 246 600 198 q 702 361 683 294 q 722 500 722 428 q 702 642 722 575 q 640 756 681 710 q 535 815 598 803 q 477 822 509 821 q 426 822 445 822 l 294 822 l 294 178 z "},"E":{"ha":819,"x_min":97,"x_max":750,"o":"m 97 0 l 97 1000 l 750 1000 l 750 824 l 286 824 l 286 610 l 667 610 l 667 433 l 286 433 l 286 176 l 750 176 l 750 0 l 97 0 z "},"É":{"ha":819,"x_min":97,"x_max":750,"o":"m 513 1104 l 373 1104 l 488 1375 l 628 1375 l 513 1104 m 97 0 l 97 1000 l 750 1000 l 750 824 l 286 824 l 286 610 l 667 610 l 667 433 l 286 433 l 286 176 l 750 176 l 750 0 l 97 0 z "},"Ě":{"ha":819,"x_min":97,"x_max":750,"o":"m 150 1333 l 324 1333 l 428 1208 l 532 1333 l 706 1333 l 506 1104 l 350 1104 l 150 1333 m 97 0 l 97 1000 l 750 1000 l 750 824 l 286 824 l 286 610 l 667 610 l 667 433 l 286 433 l 286 176 l 750 176 l 750 0 l 97 0 z "},"Ê":{"ha":819,"x_min":97,"x_max":750,"o":"m 136 1104 l 336 1333 l 492 1333 l 692 1104 l 518 1104 l 414 1229 l 310 1104 l 136 1104 m 97 0 l 97 1000 l 750 1000 l 750 824 l 286 824 l 286 610 l 667 610 l 667 433 l 286 433 l 286 176 l 750 176 l 750 0 l 97 0 z "},"Ế":{"ha":819,"x_min":97,"x_max":926,"o":"m 149 1104 l 349 1333 l 505 1333 l 705 1104 l 531 1104 l 427 1229 l 323 1104 l 149 1104 m 811 1250 l 671 1250 l 786 1521 l 926 1521 l 811 1250 m 97 0 l 97 1000 l 750 1000 l 750 824 l 286 824 l 286 610 l 667 610 l 667 433 l 286 433 l 286 176 l 750 176 l 750 0 l 97 0 z "},"Ệ":{"ha":819,"x_min":97,"x_max":750,"o":"m 329 -271 l 329 -104 l 518 -104 l 518 -271 l 329 -271 m 136 1104 l 336 1333 l 492 1333 l 692 1104 l 518 1104 l 414 1229 l 310 1104 l 136 1104 m 97 0 l 97 1000 l 750 1000 l 750 824 l 286 824 l 286 610 l 667 610 l 667 433 l 286 433 l 286 176 l 750 176 l 750 0 l 97 0 z "},"Ề":{"ha":819,"x_min":97,"x_max":840,"o":"m 165 1104 l 365 1333 l 520 1333 l 720 1104 l 547 1104 l 442 1229 l 338 1104 l 165 1104 m 699 1250 l 584 1521 l 724 1521 l 840 1250 l 699 1250 m 97 0 l 97 1000 l 750 1000 l 750 824 l 286 824 l 286 610 l 667 610 l 667 433 l 286 433 l 286 176 l 750 176 l 750 0 l 97 0 z "},"Ể":{"ha":833,"x_min":97,"x_max":924,"o":"m 151 1104 l 351 1333 l 506 1333 l 706 1104 l 533 1104 l 428 1229 l 324 1104 l 151 1104 m 673 1310 l 626 1402 q 726 1448 669 1439 q 833 1434 783 1458 q 906 1349 883 1411 q 916 1258 924 1299 q 882 1186 908 1217 q 821 1139 856 1156 q 750 1119 785 1122 l 721 1195 q 785 1232 758 1205 q 793 1299 812 1258 q 760 1331 781 1326 q 715 1329 739 1336 q 673 1310 692 1322 m 97 0 l 97 1000 l 750 1000 l 750 824 l 286 824 l 286 610 l 667 610 l 667 433 l 286 433 l 286 176 l 750 176 l 750 0 l 97 0 z "},"Ễ":{"ha":819,"x_min":97,"x_max":750,"o":"m 143 1104 l 343 1333 l 499 1333 l 699 1104 l 525 1104 l 421 1229 l 317 1104 l 143 1104 m 549 1368 q 484 1384 515 1368 q 425 1419 453 1399 q 372 1455 397 1440 q 328 1471 348 1471 q 299 1448 307 1471 q 300 1389 291 1424 l 183 1389 q 192 1543 162 1480 q 310 1606 222 1606 q 375 1590 344 1606 q 434 1554 406 1574 q 486 1518 462 1534 q 531 1503 510 1503 q 560 1526 551 1503 q 558 1585 568 1549 l 675 1585 q 667 1431 697 1494 q 549 1368 636 1368 m 97 0 l 97 1000 l 750 1000 l 750 824 l 286 824 l 286 610 l 667 610 l 667 433 l 286 433 l 286 176 l 750 176 l 750 0 l 97 0 z "},"Ë":{"ha":819,"x_min":97,"x_max":750,"o":"m 486 1106 l 486 1272 l 653 1272 l 653 1106 l 486 1106 m 192 1106 l 192 1272 l 358 1272 l 358 1106 l 192 1106 m 97 0 l 97 1000 l 750 1000 l 750 824 l 286 824 l 286 610 l 667 610 l 667 433 l 286 433 l 286 176 l 750 176 l 750 0 l 97 0 z "},"Ė":{"ha":819,"x_min":97,"x_max":750,"o":"m 328 1144 l 328 1333 l 517 1333 l 517 1144 l 328 1144 m 97 0 l 97 1000 l 750 1000 l 750 824 l 286 824 l 286 610 l 667 610 l 667 433 l 286 433 l 286 176 l 750 176 l 750 0 l 97 0 z "},"Ẹ":{"ha":833,"x_min":97,"x_max":750,"o":"m 329 -271 l 329 -104 l 518 -104 l 518 -271 l 329 -271 m 97 0 l 97 1000 l 750 1000 l 750 824 l 286 824 l 286 610 l 667 610 l 667 433 l 286 433 l 286 176 l 750 176 l 750 0 l 97 0 z "},"È":{"ha":819,"x_min":97,"x_max":750,"o":"m 365 1104 l 250 1375 l 390 1375 l 506 1104 l 365 1104 m 97 0 l 97 1000 l 750 1000 l 750 824 l 286 824 l 286 610 l 667 610 l 667 433 l 286 433 l 286 176 l 750 176 l 750 0 l 97 0 z "},"Ẻ":{"ha":819,"x_min":97,"x_max":750,"o":"m 339 1310 l 292 1402 q 392 1448 335 1439 q 499 1434 449 1458 q 572 1349 549 1411 q 582 1258 590 1299 q 548 1186 574 1217 q 487 1139 522 1156 q 416 1119 451 1122 l 387 1195 q 451 1232 424 1205 q 459 1299 478 1258 q 426 1331 447 1326 q 381 1329 405 1336 q 339 1310 358 1322 m 97 0 l 97 1000 l 750 1000 l 750 824 l 286 824 l 286 610 l 667 610 l 667 433 l 286 433 l 286 176 l 750 176 l 750 0 l 97 0 z "},"Ē":{"ha":819,"x_min":97,"x_max":750,"o":"m 242 1167 l 242 1311 l 619 1311 l 619 1167 l 242 1167 m 97 0 l 97 1000 l 750 1000 l 750 824 l 286 824 l 286 610 l 667 610 l 667 433 l 286 433 l 286 176 l 750 176 l 750 0 l 97 0 z "},"Ę":{"ha":819,"x_min":97,"x_max":750,"o":"m 607 -332 q 526 -310 561 -332 q 472 -252 492 -287 q 453 -175 453 -216 q 482 -72 453 -124 q 560 22 510 -21 q 671 92 609 65 l 750 0 q 673 -51 708 -22 q 618 -109 638 -80 q 597 -160 597 -138 q 608 -184 597 -174 q 633 -194 618 -194 q 656 -189 644 -194 q 681 -174 668 -184 l 746 -260 q 684 -313 721 -294 q 607 -332 647 -332 m 97 0 l 97 1000 l 750 1000 l 750 824 l 286 824 l 286 610 l 667 610 l 667 433 l 286 433 l 286 176 l 750 176 l 750 0 l 97 0 z "},"Ẽ":{"ha":819,"x_min":97,"x_max":750,"o":"m 529 1108 q 464 1124 495 1108 q 405 1160 433 1140 q 353 1195 377 1180 q 308 1211 328 1211 q 280 1188 288 1211 q 281 1129 272 1165 l 164 1129 q 173 1283 142 1220 q 290 1346 203 1346 q 355 1330 324 1346 q 414 1294 386 1315 q 467 1259 442 1274 q 511 1243 491 1243 q 540 1266 532 1243 q 539 1325 549 1290 l 656 1325 q 647 1172 678 1235 q 529 1108 617 1108 m 97 0 l 97 1000 l 750 1000 l 750 824 l 286 824 l 286 610 l 667 610 l 667 433 l 286 433 l 286 176 l 750 176 l 750 0 l 97 0 z "},"F":{"ha":736,"x_min":97,"x_max":708,"o":"m 97 0 l 97 1000 l 708 1000 l 708 811 l 286 811 l 286 594 l 625 594 l 625 406 l 286 406 l 286 0 l 97 0 z "},"G":{"ha":1029,"x_min":42,"x_max":988,"o":"m 514 -21 q 334 13 419 -21 q 183 113 249 47 q 80 276 117 178 q 42 500 42 373 q 105 782 42 666 q 276 960 169 899 q 514 1021 383 1021 q 817 931 707 1021 q 965 678 928 842 l 772 650 q 684 790 745 738 q 526 843 622 842 q 368 802 431 844 q 273 682 305 760 q 242 500 242 604 q 273 319 242 396 q 368 201 305 243 q 526 157 431 158 q 643 179 591 156 q 732 253 696 203 q 783 383 768 304 l 625 383 l 625 529 l 985 529 q 987 497 986 520 q 988 471 988 474 q 929 216 988 327 q 765 42 871 105 q 514 -21 658 -21 z "},"Ğ":{"ha":1029,"x_min":42,"x_max":988,"o":"m 518 1083 q 407 1113 457 1083 q 327 1193 357 1143 q 297 1304 297 1243 l 443 1304 q 465 1251 443 1273 q 518 1229 487 1229 q 571 1251 549 1229 q 593 1304 593 1273 l 739 1304 q 709 1193 739 1243 q 629 1113 679 1143 q 518 1083 579 1083 m 514 -21 q 334 13 419 -21 q 183 113 249 47 q 80 276 117 178 q 42 500 42 373 q 105 782 42 666 q 276 960 169 899 q 514 1021 383 1021 q 817 931 707 1021 q 965 678 928 842 l 772 650 q 684 790 745 738 q 526 843 622 842 q 368 802 431 844 q 273 682 305 760 q 242 500 242 604 q 273 319 242 396 q 368 201 305 243 q 526 157 431 158 q 643 179 591 156 q 732 253 696 203 q 783 383 768 304 l 625 383 l 625 529 l 985 529 q 987 497 986 520 q 988 471 988 474 q 929 216 988 327 q 765 42 871 105 q 514 -21 658 -21 z "},"Ĝ":{"ha":1029,"x_min":42,"x_max":988,"o":"m 231 1104 l 431 1333 l 586 1333 l 786 1104 l 613 1104 l 508 1229 l 404 1104 l 231 1104 m 514 -21 q 334 13 419 -21 q 183 113 249 47 q 80 276 117 178 q 42 500 42 373 q 105 782 42 666 q 276 960 169 899 q 514 1021 383 1021 q 817 931 707 1021 q 965 678 928 842 l 772 650 q 684 790 745 738 q 526 843 622 842 q 368 802 431 844 q 273 682 305 760 q 242 500 242 604 q 273 319 242 396 q 368 201 305 243 q 526 157 431 158 q 643 179 591 156 q 732 253 696 203 q 783 383 768 304 l 625 383 l 625 529 l 985 529 q 987 497 986 520 q 988 471 988 474 q 929 216 988 327 q 765 42 871 105 q 514 -21 658 -21 z "},"Ģ":{"ha":1029,"x_min":42,"x_max":988,"o":"m 453 -437 l 453 -358 q 488 -354 464 -358 q 531 -333 511 -349 q 551 -282 551 -317 l 453 -282 l 453 -104 l 631 -104 l 631 -282 q 581 -394 631 -351 q 453 -437 532 -437 m 514 -21 q 334 13 419 -21 q 183 113 249 47 q 80 276 117 178 q 42 500 42 373 q 105 782 42 666 q 276 960 169 899 q 514 1021 383 1021 q 817 931 707 1021 q 965 678 928 842 l 772 650 q 684 790 745 738 q 526 843 622 842 q 368 802 431 844 q 273 682 305 760 q 242 500 242 604 q 273 319 242 396 q 368 201 305 243 q 526 157 431 158 q 643 179 591 156 q 732 253 696 203 q 783 383 768 304 l 625 383 l 625 529 l 985 529 q 987 497 986 520 q 988 471 988 474 q 929 216 988 327 q 765 42 871 105 q 514 -21 658 -21 z "},"Ġ":{"ha":1029,"x_min":42,"x_max":988,"o":"m 435 1144 l 435 1333 l 624 1333 l 624 1144 l 435 1144 m 514 -21 q 334 13 419 -21 q 183 113 249 47 q 80 276 117 178 q 42 500 42 373 q 105 782 42 666 q 276 960 169 899 q 514 1021 383 1021 q 817 931 707 1021 q 965 678 928 842 l 772 650 q 684 790 745 738 q 526 843 622 842 q 368 802 431 844 q 273 682 305 760 q 242 500 242 604 q 273 319 242 396 q 368 201 305 243 q 526 157 431 158 q 643 179 591 156 q 732 253 696 203 q 783 383 768 304 l 625 383 l 625 529 l 985 529 q 987 497 986 520 q 988 471 988 474 q 929 216 988 327 q 765 42 871 105 q 514 -21 658 -21 z "},"H":{"ha":1019,"x_min":97,"x_max":922,"o":"m 97 0 l 97 1000 l 286 1000 l 286 589 l 733 589 l 733 1000 l 922 1000 l 922 0 l 733 0 l 733 413 l 286 413 l 286 0 l 97 0 z "},"Ħ":{"ha":1047,"x_min":14,"x_max":1033,"o":"m 111 0 l 111 1000 l 300 1000 l 300 589 l 747 589 l 747 1000 l 936 1000 l 936 0 l 747 0 l 747 413 l 300 413 l 300 0 l 111 0 m 14 686 l 14 863 l 1033 863 l 1033 686 l 14 686 z "},"Ĥ":{"ha":1019,"x_min":97,"x_max":922,"o":"m 229 1104 l 429 1333 l 585 1333 l 785 1104 l 611 1104 l 507 1229 l 403 1104 l 229 1104 m 97 0 l 97 1000 l 286 1000 l 286 589 l 733 589 l 733 1000 l 922 1000 l 922 0 l 733 0 l 733 413 l 286 413 l 286 0 l 97 0 z "},"I":{"ha":411,"x_min":111,"x_max":300,"o":"m 111 0 l 111 1000 l 300 1000 l 300 0 l 111 0 z "},"Í":{"ha":411,"x_min":111,"x_max":394,"o":"m 278 1104 l 138 1104 l 253 1375 l 394 1375 l 278 1104 m 111 0 l 111 1000 l 300 1000 l 300 0 l 111 0 z "},"Î":{"ha":411,"x_min":-75,"x_max":481,"o":"m -75 1104 l 125 1333 l 281 1333 l 481 1104 l 307 1104 l 203 1229 l 99 1104 l -75 1104 m 111 0 l 111 1000 l 300 1000 l 300 0 l 111 0 z "},"Ï":{"ha":411,"x_min":-25,"x_max":436,"o":"m 269 1106 l 269 1272 l 436 1272 l 436 1106 l 269 1106 m -25 1106 l -25 1272 l 142 1272 l 142 1106 l -25 1106 m 111 0 l 111 1000 l 300 1000 l 300 0 l 111 0 z "},"İ":{"ha":411,"x_min":111,"x_max":300,"o":"m 111 1144 l 111 1333 l 300 1333 l 300 1144 l 111 1144 m 111 0 l 111 1000 l 300 1000 l 300 0 l 111 0 z "},"Ị":{"ha":411,"x_min":111,"x_max":300,"o":"m 111 -271 l 111 -104 l 300 -104 l 300 -271 l 111 -271 m 111 0 l 111 1000 l 300 1000 l 300 0 l 111 0 z "},"Ì":{"ha":411,"x_min":17,"x_max":300,"o":"m 133 1104 l 17 1375 l 158 1375 l 273 1104 l 133 1104 m 111 0 l 111 1000 l 300 1000 l 300 0 l 111 0 z "},"Ỉ":{"ha":411,"x_min":42,"x_max":340,"o":"m 89 1310 l 42 1402 q 142 1448 85 1439 q 249 1434 199 1458 q 322 1349 299 1411 q 332 1258 340 1299 q 298 1186 324 1217 q 237 1139 272 1156 q 166 1119 201 1122 l 137 1195 q 201 1232 174 1205 q 209 1299 228 1258 q 176 1331 197 1326 q 131 1329 155 1336 q 89 1310 108 1322 m 111 0 l 111 1000 l 300 1000 l 300 0 l 111 0 z "},"Ī":{"ha":411,"x_min":17,"x_max":394,"o":"m 17 1167 l 17 1311 l 394 1311 l 394 1167 l 17 1167 m 111 0 l 111 1000 l 300 1000 l 300 0 l 111 0 z "},"Į":{"ha":411,"x_min":3,"x_max":300,"o":"m 157 -332 q 76 -310 111 -332 q 22 -252 42 -287 q 3 -175 3 -216 q 32 -72 3 -124 q 110 22 60 -21 q 221 92 159 65 l 300 0 q 223 -51 258 -22 q 168 -109 188 -80 q 147 -160 147 -138 q 158 -184 147 -174 q 183 -194 168 -194 q 206 -189 194 -194 q 231 -174 218 -184 l 296 -260 q 234 -313 271 -294 q 157 -332 197 -332 m 111 0 l 111 1000 l 300 1000 l 300 0 l 111 0 z "},"Ĩ":{"ha":411,"x_min":-62,"x_max":474,"o":"m 325 1108 q 260 1124 291 1108 q 201 1160 229 1140 q 149 1195 173 1180 q 104 1211 124 1211 q 75 1188 83 1211 q 76 1129 67 1165 l -40 1129 q -32 1283 -62 1220 q 86 1346 -1 1346 q 151 1330 120 1346 q 210 1294 182 1315 q 263 1259 238 1274 q 307 1243 287 1243 q 336 1266 328 1243 q 335 1325 344 1290 l 451 1325 q 443 1172 474 1235 q 325 1108 413 1108 m 111 0 l 111 1000 l 300 1000 l 300 0 l 111 0 z "},"J":{"ha":713,"x_min":0,"x_max":601,"o":"m 307 -21 q 110 40 188 -21 q 0 206 33 101 l 186 250 q 226 184 192 212 q 299 156 260 156 q 355 170 325 156 q 399 217 385 185 q 408 266 407 237 q 410 333 410 295 l 410 1000 l 601 1000 l 601 333 q 601 250 601 285 q 594 184 601 215 q 568 119 588 153 q 458 13 526 46 q 307 -21 390 -21 z "},"Ĵ":{"ha":713,"x_min":0,"x_max":781,"o":"m 225 1104 l 425 1333 l 581 1333 l 781 1104 l 607 1104 l 503 1229 l 399 1104 l 225 1104 m 307 -21 q 110 40 188 -21 q 0 206 33 101 l 186 250 q 226 184 192 212 q 299 156 260 156 q 355 170 325 156 q 399 217 385 185 q 408 266 407 237 q 410 333 410 295 l 410 1000 l 601 1000 l 601 333 q 601 250 601 285 q 594 184 601 215 q 568 119 588 153 q 458 13 526 46 q 307 -21 390 -21 z "},"K":{"ha":924,"x_min":97,"x_max":924,"o":"m 97 0 l 97 1000 l 286 1000 l 286 539 l 667 1000 l 897 1000 l 479 507 l 924 0 l 685 0 l 286 456 l 286 0 l 97 0 z "},"Ķ":{"ha":924,"x_min":97,"x_max":924,"o":"m 407 -437 l 407 -358 q 442 -354 418 -358 q 485 -333 465 -349 q 506 -282 506 -317 l 407 -282 l 407 -104 l 585 -104 l 585 -282 q 535 -394 585 -351 q 407 -437 486 -437 m 97 0 l 97 1000 l 286 1000 l 286 539 l 667 1000 l 897 1000 l 479 507 l 924 0 l 685 0 l 286 456 l 286 0 l 97 0 z "},"L":{"ha":751,"x_min":111,"x_max":731,"o":"m 111 0 l 111 1000 l 300 1000 l 300 176 l 731 176 l 731 0 l 111 0 z "},"Ĺ":{"ha":751,"x_min":111,"x_max":731,"o":"m 278 1104 l 138 1104 l 253 1375 l 394 1375 l 278 1104 m 111 0 l 111 1000 l 300 1000 l 300 176 l 731 176 l 731 0 l 111 0 z "},"Ľ":{"ha":751,"x_min":111,"x_max":731,"o":"m 111 0 l 111 1000 l 300 1000 l 300 176 l 731 176 l 731 0 l 111 0 m 456 624 l 467 703 q 521 714 500 700 q 550 752 542 727 q 553 811 558 778 l 456 811 l 456 1000 l 644 1000 l 644 811 q 598 660 644 711 q 456 624 551 608 z "},"Ļ":{"ha":751,"x_min":111,"x_max":731,"o":"m 332 -437 l 332 -358 q 367 -354 343 -358 q 410 -333 390 -349 q 431 -282 431 -317 l 332 -282 l 332 -104 l 510 -104 l 510 -282 q 460 -394 510 -351 q 332 -437 411 -437 m 111 0 l 111 1000 l 300 1000 l 300 176 l 731 176 l 731 0 l 111 0 z "},"Ł":{"ha":779,"x_min":39,"x_max":758,"o":"m 39 224 l 39 427 l 539 714 l 539 510 l 39 224 m 139 0 l 139 1000 l 328 1000 l 328 176 l 758 176 l 758 0 l 139 0 z "},"M":{"ha":1194,"x_min":97,"x_max":1097,"o":"m 97 0 l 97 1000 l 267 1000 l 597 336 l 928 1000 l 1097 1000 l 1097 0 l 921 0 l 921 597 l 631 0 l 564 0 l 274 597 l 274 0 l 97 0 z "},"N":{"ha":1013,"x_min":97,"x_max":915,"o":"m 97 0 l 97 1000 l 289 1000 l 724 333 l 724 1000 l 915 1000 l 915 0 l 724 0 l 289 667 l 289 0 l 97 0 z "},"Ń":{"ha":1013,"x_min":97,"x_max":915,"o":"m 585 1104 l 445 1104 l 560 1375 l 701 1375 l 585 1104 m 97 0 l 97 1000 l 289 1000 l 724 333 l 724 1000 l 915 1000 l 915 0 l 724 0 l 289 667 l 289 0 l 97 0 z "},"Ň":{"ha":1013,"x_min":97,"x_max":915,"o":"m 240 1333 l 414 1333 l 518 1208 l 622 1333 l 796 1333 l 596 1104 l 440 1104 l 240 1333 m 97 0 l 97 1000 l 289 1000 l 724 333 l 724 1000 l 915 1000 l 915 0 l 724 0 l 289 667 l 289 0 l 97 0 z "},"Ņ":{"ha":1013,"x_min":97,"x_max":915,"o":"m 432 -437 l 432 -358 q 467 -354 443 -358 q 510 -333 490 -349 q 531 -282 531 -317 l 432 -282 l 432 -104 l 610 -104 l 610 -282 q 560 -394 610 -351 q 432 -437 511 -437 m 97 0 l 97 1000 l 289 1000 l 724 333 l 724 1000 l 915 1000 l 915 0 l 724 0 l 289 667 l 289 0 l 97 0 z "},"Ŋ":{"ha":1013,"x_min":97,"x_max":915,"o":"m 724 1000 l 915 1000 l 915 -122 q 864 -280 915 -227 q 707 -332 813 -332 q 651 -328 679 -332 q 596 -318 622 -325 l 596 -179 q 633 -182 622 -181 q 654 -183 644 -183 q 733 -165 706 -183 q 760 -110 760 -146 q 743 -42 760 -79 q 678 71 726 -5 l 289 667 l 289 0 l 97 0 l 97 1000 l 289 1000 l 724 333 l 724 1000 z "},"Ñ":{"ha":1013,"x_min":97,"x_max":915,"o":"m 640 1108 q 575 1124 606 1108 q 516 1160 544 1140 q 464 1195 488 1180 q 419 1211 440 1211 q 391 1188 399 1211 q 392 1129 383 1165 l 275 1129 q 284 1283 253 1220 q 401 1346 314 1346 q 466 1330 435 1346 q 525 1294 497 1315 q 578 1259 553 1274 q 622 1243 602 1243 q 651 1266 643 1243 q 650 1325 660 1290 l 767 1325 q 758 1172 789 1235 q 640 1108 728 1108 m 97 0 l 97 1000 l 289 1000 l 724 333 l 724 1000 l 915 1000 l 915 0 l 724 0 l 289 667 l 289 0 l 97 0 z "},"O":{"ha":1053,"x_min":42,"x_max":1011,"o":"m 526 -21 q 268 44 376 -21 q 100 227 159 110 q 42 500 42 344 q 100 773 42 656 q 268 956 159 890 q 526 1021 376 1021 q 785 956 676 1021 q 952 773 894 890 q 1011 500 1011 656 q 952 227 1011 344 q 785 44 894 110 q 526 -21 676 -21 m 526 157 q 685 198 622 156 q 780 318 748 240 q 811 500 811 396 q 780 681 811 604 q 685 799 748 757 q 526 843 622 842 q 368 802 431 844 q 273 682 305 760 q 242 500 242 604 q 273 319 242 396 q 368 201 305 243 q 526 157 431 158 z "},"Ó":{"ha":1053,"x_min":42,"x_max":1011,"o":"m 602 1104 l 462 1104 l 577 1375 l 717 1375 l 602 1104 m 526 -21 q 268 44 376 -21 q 100 227 159 110 q 42 500 42 344 q 100 773 42 656 q 268 956 159 890 q 526 1021 376 1021 q 785 956 676 1021 q 952 773 894 890 q 1011 500 1011 656 q 952 227 1011 344 q 785 44 894 110 q 526 -21 676 -21 m 526 157 q 685 198 622 156 q 780 318 748 240 q 811 500 811 396 q 780 681 811 604 q 685 799 748 757 q 526 843 622 842 q 368 802 431 844 q 273 682 305 760 q 242 500 242 604 q 273 319 242 396 q 368 201 305 243 q 526 157 431 158 z "},"Ô":{"ha":1053,"x_min":42,"x_max":1011,"o":"m 246 1104 l 446 1333 l 601 1333 l 801 1104 l 628 1104 l 524 1229 l 419 1104 l 246 1104 m 526 -21 q 268 44 376 -21 q 100 227 159 110 q 42 500 42 344 q 100 773 42 656 q 268 956 159 890 q 526 1021 376 1021 q 785 956 676 1021 q 952 773 894 890 q 1011 500 1011 656 q 952 227 1011 344 q 785 44 894 110 q 526 -21 676 -21 m 526 157 q 685 198 622 156 q 780 318 748 240 q 811 500 811 396 q 780 681 811 604 q 685 799 748 757 q 526 843 622 842 q 368 802 431 844 q 273 682 305 760 q 242 500 242 604 q 273 319 242 396 q 368 201 305 243 q 526 157 431 158 z "},"Ố":{"ha":1053,"x_min":42,"x_max":1038,"o":"m 260 1104 l 460 1333 l 616 1333 l 816 1104 l 642 1104 l 538 1229 l 434 1104 l 260 1104 m 922 1250 l 782 1250 l 897 1521 l 1038 1521 l 922 1250 m 526 -21 q 268 44 376 -21 q 100 227 159 110 q 42 500 42 344 q 100 773 42 656 q 268 956 159 890 q 526 1021 376 1021 q 785 956 676 1021 q 952 773 894 890 q 1011 500 1011 656 q 952 227 1011 344 q 785 44 894 110 q 526 -21 676 -21 m 526 157 q 685 198 622 156 q 780 318 748 240 q 811 500 811 396 q 780 681 811 604 q 685 799 748 757 q 526 843 622 842 q 368 802 431 844 q 273 682 305 760 q 242 500 242 604 q 273 319 242 396 q 368 201 305 243 q 526 157 431 158 z "},"Ộ":{"ha":1053,"x_min":42,"x_max":1011,"o":"m 246 1104 l 446 1333 l 601 1333 l 801 1104 l 628 1104 l 524 1229 l 419 1104 l 246 1104 m 432 -271 l 432 -104 l 621 -104 l 621 -271 l 432 -271 m 526 -21 q 268 44 376 -21 q 100 227 159 110 q 42 500 42 344 q 100 773 42 656 q 268 956 159 890 q 526 1021 376 1021 q 785 956 676 1021 q 952 773 894 890 q 1011 500 1011 656 q 952 227 1011 344 q 785 44 894 110 q 526 -21 676 -21 m 526 157 q 685 198 622 156 q 780 318 748 240 q 811 500 811 396 q 780 681 811 604 q 685 799 748 757 q 526 843 622 842 q 368 802 431 844 q 273 682 305 760 q 242 500 242 604 q 273 319 242 396 q 368 201 305 243 q 526 157 431 158 z "},"Ồ":{"ha":1053,"x_min":42,"x_max":1011,"o":"m 246 1104 l 446 1333 l 601 1333 l 801 1104 l 628 1104 l 524 1229 l 419 1104 l 246 1104 m 781 1250 l 665 1521 l 806 1521 l 921 1250 l 781 1250 m 526 -21 q 268 44 376 -21 q 100 227 159 110 q 42 500 42 344 q 100 773 42 656 q 268 956 159 890 q 526 1021 376 1021 q 785 956 676 1021 q 952 773 894 890 q 1011 500 1011 656 q 952 227 1011 344 q 785 44 894 110 q 526 -21 676 -21 m 526 157 q 685 198 622 156 q 780 318 748 240 q 811 500 811 396 q 780 681 811 604 q 685 799 748 757 q 526 843 622 842 q 368 802 431 844 q 273 682 305 760 q 242 500 242 604 q 273 319 242 396 q 368 201 305 243 q 526 157 431 158 z "},"Ổ":{"ha":1053,"x_min":42,"x_max":1019,"o":"m 245 1104 l 445 1333 l 601 1333 l 801 1104 l 627 1104 l 523 1229 l 419 1104 l 245 1104 m 767 1310 l 721 1402 q 820 1448 764 1439 q 927 1434 877 1458 q 1000 1349 977 1411 q 1011 1258 1019 1299 q 977 1186 1003 1217 q 915 1139 951 1156 q 844 1119 880 1122 l 815 1195 q 880 1232 853 1205 q 888 1299 906 1258 q 855 1331 876 1326 q 810 1329 833 1336 q 767 1310 786 1322 m 526 -21 q 268 44 376 -21 q 100 227 159 110 q 42 500 42 344 q 100 773 42 656 q 268 956 159 890 q 526 1021 376 1021 q 785 956 676 1021 q 952 773 894 890 q 1011 500 1011 656 q 952 227 1011 344 q 785 44 894 110 q 526 -21 676 -21 m 526 157 q 685 198 622 156 q 780 318 748 240 q 811 500 811 396 q 780 681 811 604 q 685 799 748 757 q 526 843 622 842 q 368 802 431 844 q 273 682 305 760 q 242 500 242 604 q 273 319 242 396 q 368 201 305 243 q 526 157 431 158 z "},"Ỗ":{"ha":1053,"x_min":42,"x_max":1011,"o":"m 240 1104 l 440 1333 l 596 1333 l 796 1104 l 622 1104 l 518 1229 l 414 1104 l 240 1104 m 646 1368 q 581 1384 612 1368 q 522 1419 550 1399 q 469 1455 494 1440 q 425 1471 445 1471 q 396 1448 404 1471 q 397 1389 388 1424 l 281 1389 q 289 1543 259 1480 q 407 1606 319 1606 q 472 1590 441 1606 q 531 1554 503 1574 q 583 1518 559 1534 q 628 1503 608 1503 q 657 1526 649 1503 q 656 1585 665 1549 l 772 1585 q 764 1431 794 1494 q 646 1368 733 1368 m 526 -21 q 268 44 376 -21 q 100 227 159 110 q 42 500 42 344 q 100 773 42 656 q 268 956 159 890 q 526 1021 376 1021 q 785 956 676 1021 q 952 773 894 890 q 1011 500 1011 656 q 952 227 1011 344 q 785 44 894 110 q 526 -21 676 -21 m 526 157 q 685 198 622 156 q 780 318 748 240 q 811 500 811 396 q 780 681 811 604 q 685 799 748 757 q 526 843 622 842 q 368 802 431 844 q 273 682 305 760 q 242 500 242 604 q 273 319 242 396 q 368 201 305 243 q 526 157 431 158 z "},"Ö":{"ha":1053,"x_min":42,"x_max":1011,"o":"m 590 1106 l 590 1272 l 757 1272 l 757 1106 l 590 1106 m 296 1106 l 296 1272 l 463 1272 l 463 1106 l 296 1106 m 526 -21 q 268 44 376 -21 q 100 227 159 110 q 42 500 42 344 q 100 773 42 656 q 268 956 159 890 q 526 1021 376 1021 q 785 956 676 1021 q 952 773 894 890 q 1011 500 1011 656 q 952 227 1011 344 q 785 44 894 110 q 526 -21 676 -21 m 526 157 q 685 198 622 156 q 780 318 748 240 q 811 500 811 396 q 780 681 811 604 q 685 799 748 757 q 526 843 622 842 q 368 802 431 844 q 273 682 305 760 q 242 500 242 604 q 273 319 242 396 q 368 201 305 243 q 526 157 431 158 z "},"Ọ":{"ha":1053,"x_min":42,"x_max":1011,"o":"m 432 -271 l 432 -104 l 621 -104 l 621 -271 l 432 -271 m 526 -21 q 268 44 376 -21 q 100 227 159 110 q 42 500 42 344 q 100 773 42 656 q 268 956 159 890 q 526 1021 376 1021 q 785 956 676 1021 q 952 773 894 890 q 1011 500 1011 656 q 952 227 1011 344 q 785 44 894 110 q 526 -21 676 -21 m 526 157 q 685 198 622 156 q 780 318 748 240 q 811 500 811 396 q 780 681 811 604 q 685 799 748 757 q 526 843 622 842 q 368 802 431 844 q 273 682 305 760 q 242 500 242 604 q 273 319 242 396 q 368 201 305 243 q 526 157 431 158 z "},"Ò":{"ha":1053,"x_min":42,"x_max":1011,"o":"m 437 1104 l 322 1375 l 462 1375 l 577 1104 l 437 1104 m 526 -21 q 268 44 376 -21 q 100 227 159 110 q 42 500 42 344 q 100 773 42 656 q 268 956 159 890 q 526 1021 376 1021 q 785 956 676 1021 q 952 773 894 890 q 1011 500 1011 656 q 952 227 1011 344 q 785 44 894 110 q 526 -21 676 -21 m 526 157 q 685 198 622 156 q 780 318 748 240 q 811 500 811 396 q 780 681 811 604 q 685 799 748 757 q 526 843 622 842 q 368 802 431 844 q 273 682 305 760 q 242 500 242 604 q 273 319 242 396 q 368 201 305 243 q 526 157 431 158 z "},"Ỏ":{"ha":1053,"x_min":42,"x_max":1011,"o":"m 455 1310 l 408 1402 q 508 1448 451 1439 q 615 1434 565 1458 q 688 1349 665 1411 q 698 1258 706 1299 q 664 1186 690 1217 q 603 1139 638 1156 q 532 1119 567 1122 l 503 1195 q 567 1232 540 1205 q 575 1299 594 1258 q 542 1331 563 1326 q 497 1329 521 1336 q 455 1310 474 1322 m 526 -21 q 268 44 376 -21 q 100 227 159 110 q 42 500 42 344 q 100 773 42 656 q 268 956 159 890 q 526 1021 376 1021 q 785 956 676 1021 q 952 773 894 890 q 1011 500 1011 656 q 952 227 1011 344 q 785 44 894 110 q 526 -21 676 -21 m 526 157 q 685 198 622 156 q 780 318 748 240 q 811 500 811 396 q 780 681 811 604 q 685 799 748 757 q 526 843 622 842 q 368 802 431 844 q 273 682 305 760 q 242 500 242 604 q 273 319 242 396 q 368 201 305 243 q 526 157 431 158 z "},"Ơ":{"ha":1053,"x_min":42,"x_max":1011,"o":"m 788 1122 l 928 1123 q 920 989 939 1041 q 853 915 901 938 q 748 899 806 894 q 651 928 690 905 l 651 1008 q 703 998 681 1001 q 744 1003 725 995 q 783 1053 778 1019 q 788 1122 788 1086 m 526 -21 q 268 44 376 -21 q 100 227 159 110 q 42 500 42 344 q 100 773 42 656 q 268 956 159 890 q 526 1021 376 1021 q 785 956 676 1021 q 952 773 894 890 q 1011 500 1011 656 q 952 227 1011 344 q 785 44 894 110 q 526 -21 676 -21 m 526 157 q 685 198 622 156 q 780 318 748 240 q 811 500 811 396 q 780 681 811 604 q 685 799 748 757 q 526 843 622 842 q 368 802 431 844 q 273 682 305 760 q 242 500 242 604 q 273 319 242 396 q 368 201 305 243 q 526 157 431 158 z "},"Ớ":{"ha":1053,"x_min":42,"x_max":1011,"o":"m 788 1122 l 928 1123 q 920 989 939 1041 q 853 915 901 938 q 748 899 806 894 q 651 928 690 905 l 651 1008 q 703 998 681 1001 q 744 1003 725 995 q 783 1053 778 1019 q 788 1122 788 1086 m 602 1104 l 462 1104 l 577 1375 l 717 1375 l 602 1104 m 526 -21 q 268 44 376 -21 q 100 227 159 110 q 42 500 42 344 q 100 773 42 656 q 268 956 159 890 q 526 1021 376 1021 q 785 956 676 1021 q 952 773 894 890 q 1011 500 1011 656 q 952 227 1011 344 q 785 44 894 110 q 526 -21 676 -21 m 526 157 q 685 198 622 156 q 780 318 748 240 q 811 500 811 396 q 780 681 811 604 q 685 799 748 757 q 526 843 622 842 q 368 802 431 844 q 273 682 305 760 q 242 500 242 604 q 273 319 242 396 q 368 201 305 243 q 526 157 431 158 z "},"Ợ":{"ha":1053,"x_min":42,"x_max":1011,"o":"m 449 -271 l 449 -104 l 638 -104 l 638 -271 l 449 -271 m 788 1122 l 928 1123 q 920 989 939 1041 q 853 915 901 938 q 748 899 806 894 q 651 928 690 905 l 651 1008 q 703 998 681 1001 q 744 1003 725 995 q 783 1053 778 1019 q 788 1122 788 1086 m 526 -21 q 268 44 376 -21 q 100 227 159 110 q 42 500 42 344 q 100 773 42 656 q 268 956 159 890 q 526 1021 376 1021 q 785 956 676 1021 q 952 773 894 890 q 1011 500 1011 656 q 952 227 1011 344 q 785 44 894 110 q 526 -21 676 -21 m 526 157 q 685 198 622 156 q 780 318 748 240 q 811 500 811 396 q 780 681 811 604 q 685 799 748 757 q 526 843 622 842 q 368 802 431 844 q 273 682 305 760 q 242 500 242 604 q 273 319 242 396 q 368 201 305 243 q 526 157 431 158 z "},"Ờ":{"ha":1053,"x_min":42,"x_max":1011,"o":"m 788 1122 l 928 1123 q 920 989 939 1041 q 853 915 901 938 q 748 899 806 894 q 651 928 690 905 l 651 1008 q 703 998 681 1001 q 744 1003 725 995 q 783 1053 778 1019 q 788 1122 788 1086 m 437 1104 l 322 1375 l 462 1375 l 577 1104 l 437 1104 m 526 -21 q 268 44 376 -21 q 100 227 159 110 q 42 500 42 344 q 100 773 42 656 q 268 956 159 890 q 526 1021 376 1021 q 785 956 676 1021 q 952 773 894 890 q 1011 500 1011 656 q 952 227 1011 344 q 785 44 894 110 q 526 -21 676 -21 m 526 157 q 685 198 622 156 q 780 318 748 240 q 811 500 811 396 q 780 681 811 604 q 685 799 748 757 q 526 843 622 842 q 368 802 431 844 q 273 682 305 760 q 242 500 242 604 q 273 319 242 396 q 368 201 305 243 q 526 157 431 158 z "},"Ở":{"ha":1053,"x_min":42,"x_max":1011,"o":"m 788 1122 l 928 1123 q 920 989 939 1041 q 853 915 901 938 q 748 899 806 894 q 651 928 690 905 l 651 1008 q 703 998 681 1001 q 744 1003 725 995 q 783 1053 778 1019 q 788 1122 788 1086 m 455 1310 l 408 1402 q 508 1448 451 1439 q 615 1434 565 1458 q 688 1349 665 1411 q 698 1258 706 1299 q 664 1186 690 1217 q 603 1139 638 1156 q 532 1119 567 1122 l 503 1195 q 567 1232 540 1205 q 575 1299 594 1258 q 542 1331 563 1326 q 497 1329 521 1336 q 455 1310 474 1322 m 526 -21 q 268 44 376 -21 q 100 227 159 110 q 42 500 42 344 q 100 773 42 656 q 268 956 159 890 q 526 1021 376 1021 q 785 956 676 1021 q 952 773 894 890 q 1011 500 1011 656 q 952 227 1011 344 q 785 44 894 110 q 526 -21 676 -21 m 526 157 q 685 198 622 156 q 780 318 748 240 q 811 500 811 396 q 780 681 811 604 q 685 799 748 757 q 526 843 622 842 q 368 802 431 844 q 273 682 305 760 q 242 500 242 604 q 273 319 242 396 q 368 201 305 243 q 526 157 431 158 z "},"Ỡ":{"ha":1053,"x_min":42,"x_max":1011,"o":"m 788 1122 l 928 1123 q 920 989 939 1041 q 853 915 901 938 q 748 899 806 894 q 651 928 690 905 l 651 1008 q 703 998 681 1001 q 744 1003 725 995 q 783 1053 778 1019 q 788 1122 788 1086 m 526 -21 q 268 44 376 -21 q 100 227 159 110 q 42 500 42 344 q 100 773 42 656 q 268 956 159 890 q 526 1021 376 1021 q 785 956 676 1021 q 952 773 894 890 q 1011 500 1011 656 q 952 227 1011 344 q 785 44 894 110 q 526 -21 676 -21 m 526 157 q 685 198 622 156 q 780 318 748 240 q 811 500 811 396 q 780 681 811 604 q 685 799 748 757 q 526 843 622 842 q 368 802 431 844 q 273 682 305 760 q 242 500 242 604 q 273 319 242 396 q 368 201 305 243 q 526 157 431 158 m 644 1108 q 580 1124 610 1108 q 520 1160 549 1140 q 468 1195 492 1180 q 424 1211 444 1211 q 395 1188 403 1211 q 396 1129 387 1165 l 279 1129 q 288 1283 258 1220 q 406 1346 318 1346 q 470 1330 440 1346 q 530 1294 501 1315 q 582 1259 558 1274 q 626 1243 606 1243 q 656 1266 647 1243 q 654 1325 664 1290 l 771 1325 q 763 1172 793 1235 q 644 1108 732 1108 z "},"Ő":{"ha":1053,"x_min":42,"x_max":1011,"o":"m 731 1104 l 590 1104 l 706 1375 l 846 1375 l 731 1104 m 436 1104 l 296 1104 l 411 1375 l 551 1375 l 436 1104 m 526 -21 q 268 44 376 -21 q 100 227 159 110 q 42 500 42 344 q 100 773 42 656 q 268 956 159 890 q 526 1021 376 1021 q 785 956 676 1021 q 952 773 894 890 q 1011 500 1011 656 q 952 227 1011 344 q 785 44 894 110 q 526 -21 676 -21 m 526 157 q 685 198 622 156 q 780 318 748 240 q 811 500 811 396 q 780 681 811 604 q 685 799 748 757 q 526 843 622 842 q 368 802 431 844 q 273 682 305 760 q 242 500 242 604 q 273 319 242 396 q 368 201 305 243 q 526 157 431 158 z "},"Ō":{"ha":1053,"x_min":42,"x_max":1011,"o":"m 338 1167 l 338 1311 l 715 1311 l 715 1167 l 338 1167 m 526 -21 q 268 44 376 -21 q 100 227 159 110 q 42 500 42 344 q 100 773 42 656 q 268 956 159 890 q 526 1021 376 1021 q 785 956 676 1021 q 952 773 894 890 q 1011 500 1011 656 q 952 227 1011 344 q 785 44 894 110 q 526 -21 676 -21 m 526 157 q 685 198 622 156 q 780 318 748 240 q 811 500 811 396 q 780 681 811 604 q 685 799 748 757 q 526 843 622 842 q 368 802 431 844 q 273 682 305 760 q 242 500 242 604 q 273 319 242 396 q 368 201 305 243 q 526 157 431 158 z "},"Ø":{"ha":1053,"x_min":42,"x_max":1011,"o":"m 199 -18 l 65 100 l 175 225 l 199 246 l 739 856 l 747 871 l 878 1018 l 1011 899 l 868 738 l 850 725 l 308 113 l 299 96 l 199 -18 m 526 -21 q 268 44 376 -21 q 100 227 159 110 q 42 500 42 344 q 100 773 42 656 q 268 956 159 890 q 526 1021 376 1021 q 785 956 676 1021 q 952 773 894 890 q 1011 500 1011 656 q 952 227 1011 344 q 785 44 894 110 q 526 -21 676 -21 m 526 157 q 685 198 622 156 q 780 318 748 240 q 811 500 811 396 q 780 681 811 604 q 685 799 748 757 q 526 843 622 842 q 368 802 431 844 q 273 682 305 760 q 242 500 242 604 q 273 319 242 396 q 368 201 305 243 q 526 157 431 158 z "},"Õ":{"ha":1053,"x_min":42,"x_max":1011,"o":"m 526 -21 q 268 44 376 -21 q 100 227 159 110 q 42 500 42 344 q 100 773 42 656 q 268 956 159 890 q 526 1021 376 1021 q 785 956 676 1021 q 952 773 894 890 q 1011 500 1011 656 q 952 227 1011 344 q 785 44 894 110 q 526 -21 676 -21 m 526 157 q 685 198 622 156 q 780 318 748 240 q 811 500 811 396 q 780 681 811 604 q 685 799 748 757 q 526 843 622 842 q 368 802 431 844 q 273 682 305 760 q 242 500 242 604 q 273 319 242 396 q 368 201 305 243 q 526 157 431 158 m 654 1108 q 589 1124 620 1108 q 530 1160 558 1140 q 478 1195 502 1180 q 433 1211 453 1211 q 405 1188 413 1211 q 406 1129 397 1165 l 289 1129 q 298 1283 267 1220 q 415 1346 328 1346 q 480 1330 449 1346 q 539 1294 511 1315 q 592 1259 567 1274 q 636 1243 616 1243 q 665 1266 657 1243 q 664 1325 674 1290 l 781 1325 q 772 1172 803 1235 q 654 1108 742 1108 z "},"Œ":{"ha":1543,"x_min":42,"x_max":1474,"o":"m 526 -21 q 268 44 376 -21 q 100 227 159 110 q 42 500 42 344 q 100 773 42 656 q 268 956 159 890 q 526 1021 376 1021 q 785 956 676 1021 q 952 773 894 890 q 1011 500 1011 656 q 952 227 1011 344 q 785 44 894 110 q 526 -21 676 -21 m 526 157 q 685 198 622 156 q 780 318 748 240 q 811 500 811 396 q 780 681 811 604 q 685 799 748 757 q 526 843 622 842 q 368 802 431 844 q 273 682 305 760 q 242 500 242 604 q 273 319 242 396 q 368 201 305 243 q 526 157 431 158 m 821 0 l 821 1000 l 1474 1000 l 1474 824 l 1010 824 l 1010 610 l 1390 610 l 1390 433 l 1010 433 l 1010 176 l 1474 176 l 1474 0 l 821 0 z "},"P":{"ha":903,"x_min":97,"x_max":861,"o":"m 97 0 l 97 1000 l 519 1000 q 559 999 534 1000 q 603 994 583 998 q 750 935 692 981 q 834 822 807 890 q 861 669 861 753 q 834 517 861 585 q 749 403 806 449 q 603 344 692 358 q 558 340 583 342 q 519 339 533 339 l 286 339 l 286 0 l 97 0 m 286 515 l 511 515 q 543 517 526 515 q 575 522 560 518 q 634 557 613 533 q 663 612 655 582 q 671 669 671 642 q 663 727 671 697 q 634 782 655 757 q 575 817 613 806 q 543 822 560 821 q 511 824 526 824 l 286 824 l 286 515 z "},"Þ":{"ha":892,"x_min":97,"x_max":851,"o":"m 97 0 l 97 1000 l 289 1000 l 289 831 l 515 831 q 617 815 567 831 q 710 769 667 800 q 783 696 753 739 q 832 603 815 654 q 850 500 849 552 q 833 397 851 448 q 783 304 815 346 q 669 207 740 244 q 515 171 598 171 l 289 171 l 289 0 l 97 0 m 289 347 l 514 347 q 574 363 542 347 q 628 408 606 379 q 651 452 642 428 q 658 500 660 475 q 649 553 658 527 q 622 599 640 579 q 573 637 603 622 q 514 653 543 653 l 289 653 l 289 347 z "},"Q":{"ha":1053,"x_min":42,"x_max":1011,"o":"m 879 -21 l 588 269 l 704 386 l 994 96 l 879 -21 m 526 -21 q 268 44 376 -21 q 100 227 159 110 q 42 500 42 344 q 100 773 42 656 q 268 956 159 890 q 526 1021 376 1021 q 785 956 676 1021 q 952 773 894 890 q 1011 500 1011 656 q 952 227 1011 344 q 785 44 894 110 q 526 -21 676 -21 m 526 157 q 685 198 622 156 q 780 318 748 240 q 811 500 811 396 q 780 681 811 604 q 685 799 748 757 q 526 843 622 842 q 368 802 431 844 q 273 682 305 760 q 242 500 242 604 q 273 319 242 396 q 368 201 305 243 q 526 157 431 158 z "},"R":{"ha":931,"x_min":97,"x_max":875,"o":"m 97 0 l 97 1000 l 519 1000 q 559 999 534 1000 q 603 994 583 998 q 750 935 692 981 q 834 822 807 890 q 861 669 861 753 q 799 455 861 544 q 603 344 736 365 l 519 339 l 286 339 l 286 0 l 97 0 m 661 0 l 464 407 l 658 444 l 875 0 l 661 0 m 286 515 l 511 515 q 543 517 526 515 q 575 522 560 518 q 634 557 613 533 q 663 612 655 582 q 671 669 671 642 q 663 727 671 697 q 634 782 655 757 q 575 817 613 806 q 543 822 560 821 q 511 824 526 824 l 286 824 l 286 515 z "},"Ŕ":{"ha":931,"x_min":97,"x_max":875,"o":"m 519 1104 l 378 1104 l 494 1375 l 634 1375 l 519 1104 m 97 0 l 97 1000 l 519 1000 q 559 999 534 1000 q 603 994 583 998 q 750 935 692 981 q 834 822 807 890 q 861 669 861 753 q 799 455 861 544 q 603 344 736 365 l 519 339 l 286 339 l 286 0 l 97 0 m 661 0 l 464 407 l 658 444 l 875 0 l 661 0 m 286 515 l 511 515 q 543 517 526 515 q 575 522 560 518 q 634 557 613 533 q 663 612 655 582 q 671 669 671 642 q 663 727 671 697 q 634 782 655 757 q 575 817 613 806 q 543 822 560 821 q 511 824 526 824 l 286 824 l 286 515 z "},"Ř":{"ha":931,"x_min":97,"x_max":875,"o":"m 154 1333 l 328 1333 l 432 1208 l 536 1333 l 710 1333 l 510 1104 l 354 1104 l 154 1333 m 97 0 l 97 1000 l 519 1000 q 559 999 534 1000 q 603 994 583 998 q 750 935 692 981 q 834 822 807 890 q 861 669 861 753 q 799 455 861 544 q 603 344 736 365 l 519 339 l 286 339 l 286 0 l 97 0 m 661 0 l 464 407 l 658 444 l 875 0 l 661 0 m 286 515 l 511 515 q 543 517 526 515 q 575 522 560 518 q 634 557 613 533 q 663 612 655 582 q 671 669 671 642 q 663 727 671 697 q 634 782 655 757 q 575 817 613 806 q 543 822 560 821 q 511 824 526 824 l 286 824 l 286 515 z "},"Ŗ":{"ha":931,"x_min":97,"x_max":875,"o":"m 376 -437 l 376 -358 q 411 -354 388 -358 q 455 -333 435 -349 q 475 -282 475 -317 l 376 -282 l 376 -104 l 554 -104 l 554 -282 q 505 -394 554 -351 q 376 -437 456 -437 m 97 0 l 97 1000 l 519 1000 q 559 999 534 1000 q 603 994 583 998 q 750 935 692 981 q 834 822 807 890 q 861 669 861 753 q 799 455 861 544 q 603 344 736 365 l 519 339 l 286 339 l 286 0 l 97 0 m 661 0 l 464 407 l 658 444 l 875 0 l 661 0 m 286 515 l 511 515 q 543 517 526 515 q 575 522 560 518 q 634 557 613 533 q 663 612 655 582 q 671 669 671 642 q 663 727 671 697 q 634 782 655 757 q 575 817 613 806 q 543 822 560 821 q 511 824 526 824 l 286 824 l 286 515 z "},"S":{"ha":932,"x_min":56,"x_max":876,"o":"m 475 -21 q 275 18 364 -21 q 128 131 185 58 q 56 306 71 204 l 253 335 q 339 202 274 249 q 488 156 404 156 q 578 170 534 156 q 650 213 622 185 q 678 283 678 242 q 673 313 678 299 q 658 340 669 327 q 629 363 648 352 q 581 383 610 374 l 321 460 q 253 483 292 468 q 178 527 215 499 q 118 602 142 556 q 94 721 94 649 q 145 888 94 822 q 281 988 196 955 q 468 1019 365 1020 q 653 984 572 1018 q 789 885 734 950 q 868 726 844 820 l 664 692 q 623 774 653 740 q 552 824 593 807 q 465 843 510 842 q 382 831 421 844 q 318 792 342 817 q 293 731 293 766 q 313 677 293 698 q 364 644 333 657 q 426 624 394 632 l 600 576 q 686 549 639 566 q 777 502 733 532 q 848 422 820 472 q 876 297 876 373 q 843 157 876 217 q 752 57 809 97 q 623 -1 695 18 q 475 -21 551 -21 z "},"Ś":{"ha":932,"x_min":56,"x_max":876,"o":"m 545 1104 l 405 1104 l 520 1375 l 660 1375 l 545 1104 m 475 -21 q 275 18 364 -21 q 128 131 185 58 q 56 306 71 204 l 253 335 q 339 202 274 249 q 488 156 404 156 q 578 170 534 156 q 650 213 622 185 q 678 283 678 242 q 673 313 678 299 q 658 340 669 327 q 629 363 648 352 q 581 383 610 374 l 321 460 q 253 483 292 468 q 178 527 215 499 q 118 602 142 556 q 94 721 94 649 q 145 888 94 822 q 281 988 196 955 q 468 1019 365 1020 q 653 984 572 1018 q 789 885 734 950 q 868 726 844 820 l 664 692 q 623 774 653 740 q 552 824 593 807 q 465 843 510 842 q 382 831 421 844 q 318 792 342 817 q 293 731 293 766 q 313 677 293 698 q 364 644 333 657 q 426 624 394 632 l 600 576 q 686 549 639 566 q 777 502 733 532 q 848 422 820 472 q 876 297 876 373 q 843 157 876 217 q 752 57 809 97 q 623 -1 695 18 q 475 -21 551 -21 z "},"Š":{"ha":932,"x_min":56,"x_max":876,"o":"m 204 1333 l 378 1333 l 482 1208 l 586 1333 l 760 1333 l 560 1104 l 404 1104 l 204 1333 m 475 -21 q 275 18 364 -21 q 128 131 185 58 q 56 306 71 204 l 253 335 q 339 202 274 249 q 488 156 404 156 q 578 170 534 156 q 650 213 622 185 q 678 283 678 242 q 673 313 678 299 q 658 340 669 327 q 629 363 648 352 q 581 383 610 374 l 321 460 q 253 483 292 468 q 178 527 215 499 q 118 602 142 556 q 94 721 94 649 q 145 888 94 822 q 281 988 196 955 q 468 1019 365 1020 q 653 984 572 1018 q 789 885 734 950 q 868 726 844 820 l 664 692 q 623 774 653 740 q 552 824 593 807 q 465 843 510 842 q 382 831 421 844 q 318 792 342 817 q 293 731 293 766 q 313 677 293 698 q 364 644 333 657 q 426 624 394 632 l 600 576 q 686 549 639 566 q 777 502 733 532 q 848 422 820 472 q 876 297 876 373 q 843 157 876 217 q 752 57 809 97 q 623 -1 695 18 q 475 -21 551 -21 z "},"Ş":{"ha":932,"x_min":56,"x_max":876,"o":"m 482 -336 q 428 -328 453 -336 q 383 -310 404 -321 l 424 -201 q 465 -210 451 -210 q 494 -199 484 -210 q 504 -178 504 -189 q 477 -141 504 -153 q 414 -118 451 -128 l 463 24 l 572 25 l 547 -50 q 610 -104 588 -71 q 632 -182 632 -137 q 587 -293 632 -251 q 482 -336 542 -336 m 475 -21 q 275 18 364 -21 q 128 131 185 58 q 56 306 71 204 l 253 335 q 339 202 274 249 q 488 156 404 156 q 578 170 534 156 q 650 213 622 185 q 678 283 678 242 q 673 313 678 299 q 658 340 669 327 q 629 363 648 352 q 581 383 610 374 l 321 460 q 253 483 292 468 q 178 527 215 499 q 118 602 142 556 q 94 721 94 649 q 145 888 94 822 q 281 988 196 955 q 468 1019 365 1020 q 653 984 572 1018 q 789 885 734 950 q 868 726 844 820 l 664 692 q 623 774 653 740 q 552 824 593 807 q 465 843 510 842 q 382 831 421 844 q 318 792 342 817 q 293 731 293 766 q 313 677 293 698 q 364 644 333 657 q 426 624 394 632 l 600 576 q 686 549 639 566 q 777 502 733 532 q 848 422 820 472 q 876 297 876 373 q 843 157 876 217 q 752 57 809 97 q 623 -1 695 18 q 475 -21 551 -21 z "},"Ŝ":{"ha":932,"x_min":56,"x_max":876,"o":"m 199 1104 l 399 1333 l 555 1333 l 755 1104 l 581 1104 l 477 1229 l 373 1104 l 199 1104 m 475 -21 q 275 18 364 -21 q 128 131 185 58 q 56 306 71 204 l 253 335 q 339 202 274 249 q 488 156 404 156 q 578 170 534 156 q 650 213 622 185 q 678 283 678 242 q 673 313 678 299 q 658 340 669 327 q 629 363 648 352 q 581 383 610 374 l 321 460 q 253 483 292 468 q 178 527 215 499 q 118 602 142 556 q 94 721 94 649 q 145 888 94 822 q 281 988 196 955 q 468 1019 365 1020 q 653 984 572 1018 q 789 885 734 950 q 868 726 844 820 l 664 692 q 623 774 653 740 q 552 824 593 807 q 465 843 510 842 q 382 831 421 844 q 318 792 342 817 q 293 731 293 766 q 313 677 293 698 q 364 644 333 657 q 426 624 394 632 l 600 576 q 686 549 639 566 q 777 502 733 532 q 848 422 820 472 q 876 297 876 373 q 843 157 876 217 q 752 57 809 97 q 623 -1 695 18 q 475 -21 551 -21 z "},"Ș":{"ha":932,"x_min":56,"x_max":876,"o":"m 407 -437 l 407 -358 q 442 -354 418 -358 q 485 -333 465 -349 q 506 -282 506 -317 l 407 -282 l 407 -104 l 585 -104 l 585 -282 q 535 -394 585 -351 q 407 -437 486 -437 m 475 -21 q 275 18 364 -21 q 128 131 185 58 q 56 306 71 204 l 253 335 q 339 202 274 249 q 488 156 404 156 q 578 170 534 156 q 650 213 622 185 q 678 283 678 242 q 673 313 678 299 q 658 340 669 327 q 629 363 648 352 q 581 383 610 374 l 321 460 q 253 483 292 468 q 178 527 215 499 q 118 602 142 556 q 94 721 94 649 q 145 888 94 822 q 281 988 196 955 q 468 1019 365 1020 q 653 984 572 1018 q 789 885 734 950 q 868 726 844 820 l 664 692 q 623 774 653 740 q 552 824 593 807 q 465 843 510 842 q 382 831 421 844 q 318 792 342 817 q 293 731 293 766 q 313 677 293 698 q 364 644 333 657 q 426 624 394 632 l 600 576 q 686 549 639 566 q 777 502 733 532 q 848 422 820 472 q 876 297 876 373 q 843 157 876 217 q 752 57 809 97 q 623 -1 695 18 q 475 -21 551 -21 z "},"ẞ":{"ha":1061,"x_min":96,"x_max":978,"o":"m 660 -21 q 574 -15 614 -21 q 510 0 534 -10 l 510 185 q 569 169 538 174 q 632 164 600 164 q 715 178 678 164 q 774 223 752 192 q 794 304 795 254 q 762 399 794 365 q 680 447 729 433 q 579 461 631 461 l 544 578 l 697 819 q 627 839 663 834 q 560 844 592 844 q 399 803 467 844 q 304 676 331 761 q 291 603 295 645 q 286 518 286 561 l 286 0 l 96 0 l 96 556 q 103 674 96 624 q 124 763 110 725 q 220 909 158 852 q 365 993 283 966 q 539 1021 447 1021 q 710 1002 639 1021 q 834 957 781 984 q 930 902 886 929 l 745 587 q 863 535 810 572 q 947 438 916 497 q 978 297 978 378 q 896 66 978 153 q 660 -21 814 -21 z "},"T":{"ha":847,"x_min":14,"x_max":833,"o":"m 329 0 l 329 824 l 14 824 l 14 1000 l 833 1000 l 833 824 l 518 824 l 518 0 l 329 0 z "},"Ŧ":{"ha":847,"x_min":14,"x_max":833,"o":"m 90 406 l 90 594 l 757 594 l 757 406 l 90 406 m 329 0 l 329 824 l 14 824 l 14 1000 l 833 1000 l 833 824 l 518 824 l 518 0 l 329 0 z "},"Ť":{"ha":847,"x_min":14,"x_max":833,"o":"m 143 1333 l 317 1333 l 421 1208 l 525 1333 l 699 1333 l 499 1104 l 343 1104 l 143 1333 m 329 0 l 329 824 l 14 824 l 14 1000 l 833 1000 l 833 824 l 518 824 l 518 0 l 329 0 z "},"Ţ":{"ha":847,"x_min":14,"x_max":833,"o":"m 329 0 l 329 824 l 14 824 l 14 1000 l 833 1000 l 833 824 l 518 824 l 518 0 l 329 0 m 393 -336 q 340 -328 364 -336 q 294 -310 315 -321 l 335 -201 q 376 -210 362 -210 q 405 -199 395 -210 q 415 -178 415 -189 q 389 -141 415 -153 q 325 -118 362 -128 l 374 24 l 483 25 l 458 -50 q 521 -104 499 -71 q 543 -182 543 -137 q 498 -293 543 -251 q 393 -336 453 -336 z "},"Ț":{"ha":847,"x_min":14,"x_max":833,"o":"m 335 -437 l 335 -358 q 369 -354 346 -358 q 413 -333 393 -349 q 433 -282 433 -317 l 335 -282 l 335 -104 l 513 -104 l 513 -282 q 463 -394 513 -351 q 335 -437 414 -437 m 329 0 l 329 824 l 14 824 l 14 1000 l 833 1000 l 833 824 l 518 824 l 518 0 l 329 0 z "},"U":{"ha":1008,"x_min":97,"x_max":911,"o":"m 504 -21 q 292 28 383 -21 q 149 166 200 77 q 97 375 97 255 l 97 999 l 289 1000 l 289 376 q 306 287 289 327 q 352 217 322 247 q 420 173 381 188 q 504 157 460 157 q 589 173 550 157 q 658 218 628 189 q 703 288 687 247 q 719 376 719 328 l 719 1000 l 911 1000 l 911 375 q 860 166 911 255 q 717 28 808 77 q 504 -21 625 -21 z "},"Ú":{"ha":1008,"x_min":97,"x_max":911,"o":"m 573 1104 l 433 1104 l 548 1375 l 688 1375 l 573 1104 m 504 -21 q 292 28 383 -21 q 149 166 200 77 q 97 375 97 255 l 97 999 l 289 1000 l 289 376 q 306 287 289 327 q 352 217 322 247 q 420 173 381 188 q 504 157 460 157 q 589 173 550 157 q 658 218 628 189 q 703 288 687 247 q 719 376 719 328 l 719 1000 l 911 1000 l 911 375 q 860 166 911 255 q 717 28 808 77 q 504 -21 625 -21 z "},"Ŭ":{"ha":1008,"x_min":97,"x_max":911,"o":"m 504 1083 q 393 1113 443 1083 q 313 1193 343 1143 q 283 1304 283 1243 l 429 1304 q 451 1251 429 1273 q 504 1229 473 1229 q 557 1251 535 1229 q 579 1304 579 1273 l 725 1304 q 695 1193 725 1243 q 615 1113 665 1143 q 504 1083 565 1083 m 504 -21 q 292 28 383 -21 q 149 166 200 77 q 97 375 97 255 l 97 999 l 289 1000 l 289 376 q 306 287 289 327 q 352 217 322 247 q 420 173 381 188 q 504 157 460 157 q 589 173 550 157 q 658 218 628 189 q 703 288 687 247 q 719 376 719 328 l 719 1000 l 911 1000 l 911 375 q 860 166 911 255 q 717 28 808 77 q 504 -21 625 -21 z "},"Û":{"ha":1008,"x_min":97,"x_max":911,"o":"m 224 1104 l 424 1333 l 579 1333 l 779 1104 l 606 1104 l 501 1229 l 397 1104 l 224 1104 m 504 -21 q 292 28 383 -21 q 149 166 200 77 q 97 375 97 255 l 97 999 l 289 1000 l 289 376 q 306 287 289 327 q 352 217 322 247 q 420 173 381 188 q 504 157 460 157 q 589 173 550 157 q 658 218 628 189 q 703 288 687 247 q 719 376 719 328 l 719 1000 l 911 1000 l 911 375 q 860 166 911 255 q 717 28 808 77 q 504 -21 625 -21 z "},"Ü":{"ha":1008,"x_min":97,"x_max":911,"o":"m 568 1106 l 568 1272 l 735 1272 l 735 1106 l 568 1106 m 274 1106 l 274 1272 l 440 1272 l 440 1106 l 274 1106 m 504 -21 q 292 28 383 -21 q 149 166 200 77 q 97 375 97 255 l 97 999 l 289 1000 l 289 376 q 306 287 289 327 q 352 217 322 247 q 420 173 381 188 q 504 157 460 157 q 589 173 550 157 q 658 218 628 189 q 703 288 687 247 q 719 376 719 328 l 719 1000 l 911 1000 l 911 375 q 860 166 911 255 q 717 28 808 77 q 504 -21 625 -21 z "},"Ụ":{"ha":1008,"x_min":97,"x_max":911,"o":"m 438 -271 l 438 -104 l 626 -104 l 626 -271 l 438 -271 m 504 -21 q 292 28 383 -21 q 149 166 200 77 q 97 375 97 255 l 97 999 l 289 1000 l 289 376 q 306 287 289 327 q 352 217 322 247 q 420 173 381 188 q 504 157 460 157 q 589 173 550 157 q 658 218 628 189 q 703 288 687 247 q 719 376 719 328 l 719 1000 l 911 1000 l 911 375 q 860 166 911 255 q 717 28 808 77 q 504 -21 625 -21 z "},"Ù":{"ha":1008,"x_min":97,"x_max":911,"o":"m 446 1104 l 331 1375 l 471 1375 l 586 1104 l 446 1104 m 504 -21 q 292 28 383 -21 q 149 166 200 77 q 97 375 97 255 l 97 999 l 289 1000 l 289 376 q 306 287 289 327 q 352 217 322 247 q 420 173 381 188 q 504 157 460 157 q 589 173 550 157 q 658 218 628 189 q 703 288 687 247 q 719 376 719 328 l 719 1000 l 911 1000 l 911 375 q 860 166 911 255 q 717 28 808 77 q 504 -21 625 -21 z "},"Ủ":{"ha":1008,"x_min":97,"x_max":911,"o":"m 426 1310 l 379 1402 q 479 1448 422 1439 q 585 1434 535 1458 q 658 1349 635 1411 q 669 1258 677 1299 q 635 1186 661 1217 q 574 1139 609 1156 q 503 1119 538 1122 l 474 1195 q 538 1232 511 1205 q 546 1299 565 1258 q 513 1331 534 1326 q 468 1329 492 1336 q 426 1310 444 1322 m 504 -21 q 292 28 383 -21 q 149 166 200 77 q 97 375 97 255 l 97 999 l 289 1000 l 289 376 q 306 287 289 327 q 352 217 322 247 q 420 173 381 188 q 504 157 460 157 q 589 173 550 157 q 658 218 628 189 q 703 288 687 247 q 719 376 719 328 l 719 1000 l 911 1000 l 911 375 q 860 166 911 255 q 717 28 808 77 q 504 -21 625 -21 z "},"Ư":{"ha":1008,"x_min":97,"x_max":1101,"o":"m 950 1124 l 1090 1125 q 1080 994 1101 1043 q 1015 921 1060 945 q 914 895 970 896 q 813 900 857 895 l 813 1000 q 841 1000 828 1000 q 868 1003 855 1001 q 936 1048 923 1012 q 950 1124 950 1083 m 504 -21 q 292 28 383 -21 q 149 166 200 77 q 97 375 97 255 l 97 999 l 289 1000 l 289 376 q 306 287 289 327 q 352 217 322 247 q 420 173 381 188 q 504 157 460 157 q 589 173 550 157 q 658 218 628 189 q 703 288 687 247 q 719 376 719 328 l 719 1000 l 911 1000 l 911 375 q 860 166 911 255 q 717 28 808 77 q 504 -21 625 -21 z "},"Ứ":{"ha":1008,"x_min":97,"x_max":1101,"o":"m 950 1124 l 1090 1125 q 1080 994 1101 1043 q 1015 921 1060 945 q 914 895 970 896 q 813 900 857 895 l 813 1000 q 841 1000 828 1000 q 868 1003 855 1001 q 936 1048 923 1012 q 950 1124 950 1083 m 573 1104 l 433 1104 l 548 1375 l 688 1375 l 573 1104 m 504 -21 q 292 28 383 -21 q 149 166 200 77 q 97 375 97 255 l 97 999 l 289 1000 l 289 376 q 306 287 289 327 q 352 217 322 247 q 420 173 381 188 q 504 157 460 157 q 589 173 550 157 q 658 218 628 189 q 703 288 687 247 q 719 376 719 328 l 719 1000 l 911 1000 l 911 375 q 860 166 911 255 q 717 28 808 77 q 504 -21 625 -21 z "},"Ự":{"ha":1008,"x_min":97,"x_max":1101,"o":"m 410 -271 l 410 -104 l 599 -104 l 599 -271 l 410 -271 m 950 1124 l 1090 1125 q 1080 994 1101 1043 q 1015 921 1060 945 q 914 895 970 896 q 813 900 857 895 l 813 1000 q 841 1000 828 1000 q 868 1003 855 1001 q 936 1048 923 1012 q 950 1124 950 1083 m 504 -21 q 292 28 383 -21 q 149 166 200 77 q 97 375 97 255 l 97 999 l 289 1000 l 289 376 q 306 287 289 327 q 352 217 322 247 q 420 173 381 188 q 504 157 460 157 q 589 173 550 157 q 658 218 628 189 q 703 288 687 247 q 719 376 719 328 l 719 1000 l 911 1000 l 911 375 q 860 166 911 255 q 717 28 808 77 q 504 -21 625 -21 z "},"Ừ":{"ha":1008,"x_min":97,"x_max":1101,"o":"m 950 1124 l 1090 1125 q 1080 994 1101 1043 q 1015 921 1060 945 q 914 895 970 896 q 813 900 857 895 l 813 1000 q 841 1000 828 1000 q 868 1003 855 1001 q 936 1048 923 1012 q 950 1124 950 1083 m 446 1104 l 331 1375 l 471 1375 l 586 1104 l 446 1104 m 504 -21 q 292 28 383 -21 q 149 166 200 77 q 97 375 97 255 l 97 999 l 289 1000 l 289 376 q 306 287 289 327 q 352 217 322 247 q 420 173 381 188 q 504 157 460 157 q 589 173 550 157 q 658 218 628 189 q 703 288 687 247 q 719 376 719 328 l 719 1000 l 911 1000 l 911 375 q 860 166 911 255 q 717 28 808 77 q 504 -21 625 -21 z "},"Ử":{"ha":1008,"x_min":97,"x_max":1101,"o":"m 950 1124 l 1090 1125 q 1080 994 1101 1043 q 1015 921 1060 945 q 914 895 970 896 q 813 900 857 895 l 813 1000 q 841 1000 828 1000 q 868 1003 855 1001 q 936 1048 923 1012 q 950 1124 950 1083 m 426 1310 l 379 1402 q 479 1448 422 1439 q 585 1434 535 1458 q 658 1349 635 1411 q 669 1258 677 1299 q 635 1186 661 1217 q 574 1139 609 1156 q 503 1119 538 1122 l 474 1195 q 538 1232 511 1205 q 546 1299 565 1258 q 513 1331 534 1326 q 468 1329 492 1336 q 426 1310 444 1322 m 504 -21 q 292 28 383 -21 q 149 166 200 77 q 97 375 97 255 l 97 999 l 289 1000 l 289 376 q 306 287 289 327 q 352 217 322 247 q 420 173 381 188 q 504 157 460 157 q 589 173 550 157 q 658 218 628 189 q 703 288 687 247 q 719 376 719 328 l 719 1000 l 911 1000 l 911 375 q 860 166 911 255 q 717 28 808 77 q 504 -21 625 -21 z "},"Ữ":{"ha":1008,"x_min":97,"x_max":1101,"o":"m 950 1124 l 1090 1125 q 1080 994 1101 1043 q 1015 921 1060 945 q 914 895 970 896 q 813 900 857 895 l 813 1000 q 841 1000 828 1000 q 868 1003 855 1001 q 936 1048 923 1012 q 950 1124 950 1083 m 504 -21 q 292 28 383 -21 q 149 166 200 77 q 97 375 97 255 l 97 999 l 289 1000 l 289 376 q 306 287 289 327 q 352 217 322 247 q 420 173 381 188 q 504 157 460 157 q 589 173 550 157 q 658 218 628 189 q 703 288 687 247 q 719 376 719 328 l 719 1000 l 911 1000 l 911 375 q 860 166 911 255 q 717 28 808 77 q 504 -21 625 -21 m 644 1108 q 580 1124 610 1108 q 520 1160 549 1140 q 468 1195 492 1180 q 424 1211 444 1211 q 395 1188 403 1211 q 396 1129 387 1165 l 279 1129 q 288 1283 258 1220 q 406 1346 318 1346 q 470 1330 440 1346 q 530 1294 501 1315 q 582 1259 558 1274 q 626 1243 606 1243 q 656 1266 647 1243 q 654 1325 664 1290 l 771 1325 q 763 1172 793 1235 q 644 1108 732 1108 z "},"Ű":{"ha":1008,"x_min":97,"x_max":911,"o":"m 705 1104 l 565 1104 l 680 1375 l 820 1375 l 705 1104 m 410 1104 l 270 1104 l 385 1375 l 526 1375 l 410 1104 m 504 -21 q 292 28 383 -21 q 149 166 200 77 q 97 375 97 255 l 97 999 l 289 1000 l 289 376 q 306 287 289 327 q 352 217 322 247 q 420 173 381 188 q 504 157 460 157 q 589 173 550 157 q 658 218 628 189 q 703 288 687 247 q 719 376 719 328 l 719 1000 l 911 1000 l 911 375 q 860 166 911 255 q 717 28 808 77 q 504 -21 625 -21 z "},"Ū":{"ha":1008,"x_min":97,"x_max":911,"o":"m 315 1167 l 315 1311 l 693 1311 l 693 1167 l 315 1167 m 504 -21 q 292 28 383 -21 q 149 166 200 77 q 97 375 97 255 l 97 999 l 289 1000 l 289 376 q 306 287 289 327 q 352 217 322 247 q 420 173 381 188 q 504 157 460 157 q 589 173 550 157 q 658 218 628 189 q 703 288 687 247 q 719 376 719 328 l 719 1000 l 911 1000 l 911 375 q 860 166 911 255 q 717 28 808 77 q 504 -21 625 -21 z "},"Ų":{"ha":1008,"x_min":97,"x_max":911,"o":"m 504 -21 q 292 28 383 -21 q 149 166 200 77 q 97 375 97 255 l 97 999 l 289 1000 l 289 376 q 306 287 289 327 q 352 217 322 247 q 420 173 381 188 q 504 157 460 157 q 589 173 550 157 q 658 218 628 189 q 703 288 687 247 q 719 376 719 328 l 719 1000 l 911 1000 l 911 375 q 860 166 911 255 q 717 28 808 77 q 504 -21 625 -21 m 597 -289 q 517 -267 551 -289 q 463 -209 482 -244 q 443 -132 443 -173 q 472 -29 443 -81 q 550 65 501 22 q 661 135 599 108 l 740 43 q 663 -8 698 22 q 608 -66 628 -37 q 588 -117 588 -95 q 598 -141 588 -131 q 624 -151 608 -151 q 646 -146 634 -151 q 671 -131 658 -141 l 736 -217 q 674 -270 711 -251 q 597 -289 637 -289 z "},"Ů":{"ha":1008,"x_min":97,"x_max":911,"o":"m 510 1076 q 416 1102 458 1076 q 348 1170 373 1127 q 322 1264 322 1213 q 348 1358 322 1316 q 416 1426 373 1401 q 510 1451 458 1451 q 604 1426 562 1451 q 672 1358 647 1401 q 697 1264 697 1316 q 672 1170 697 1213 q 604 1102 647 1127 q 510 1076 562 1076 m 510 1188 q 564 1210 542 1188 q 586 1264 586 1233 q 564 1318 586 1296 q 510 1340 542 1340 q 456 1318 478 1340 q 433 1264 433 1296 q 456 1210 433 1233 q 510 1188 478 1188 m 504 -21 q 292 28 383 -21 q 149 166 200 77 q 97 375 97 255 l 97 999 l 289 1000 l 289 376 q 306 287 289 327 q 352 217 322 247 q 420 173 381 188 q 504 157 460 157 q 589 173 550 157 q 658 218 628 189 q 703 288 687 247 q 719 376 719 328 l 719 1000 l 911 1000 l 911 375 q 860 166 911 255 q 717 28 808 77 q 504 -21 625 -21 z "},"Ũ":{"ha":1008,"x_min":97,"x_max":911,"o":"m 504 -21 q 292 28 383 -21 q 149 166 200 77 q 97 375 97 255 l 97 999 l 289 1000 l 289 376 q 306 287 289 327 q 352 217 322 247 q 420 173 381 188 q 504 157 460 157 q 589 173 550 157 q 658 218 628 189 q 703 288 687 247 q 719 376 719 328 l 719 1000 l 911 1000 l 911 375 q 860 166 911 255 q 717 28 808 77 q 504 -21 625 -21 m 637 1108 q 572 1124 603 1108 q 513 1160 541 1140 q 460 1195 485 1180 q 416 1211 436 1211 q 387 1188 395 1211 q 388 1129 379 1165 l 272 1129 q 280 1283 250 1220 q 398 1346 310 1346 q 463 1330 432 1346 q 522 1294 494 1315 q 574 1259 550 1274 q 619 1243 599 1243 q 648 1266 640 1243 q 647 1325 656 1290 l 763 1325 q 755 1172 785 1235 q 637 1108 724 1108 z "},"V":{"ha":907,"x_min":7,"x_max":900,"o":"m 313 0 l 7 1000 l 201 1000 l 451 178 l 706 1000 l 900 1000 l 594 0 l 313 0 z "},"W":{"ha":1374,"x_min":14,"x_max":1360,"o":"m 307 0 l 14 1000 l 213 1000 l 400 313 l 588 999 l 786 1000 l 974 313 l 1161 1000 l 1360 1000 l 1067 0 l 881 0 l 687 675 l 493 0 l 307 0 z "},"Ẃ":{"ha":1374,"x_min":14,"x_max":1360,"o":"m 766 1104 l 626 1104 l 741 1375 l 881 1375 l 766 1104 m 307 0 l 14 1000 l 213 1000 l 400 313 l 588 999 l 786 1000 l 974 313 l 1161 1000 l 1360 1000 l 1067 0 l 881 0 l 687 675 l 493 0 l 307 0 z "},"Ŵ":{"ha":1374,"x_min":14,"x_max":1360,"o":"m 407 1104 l 607 1333 l 763 1333 l 963 1104 l 789 1104 l 685 1229 l 581 1104 l 407 1104 m 307 0 l 14 1000 l 213 1000 l 400 313 l 588 999 l 786 1000 l 974 313 l 1161 1000 l 1360 1000 l 1067 0 l 881 0 l 687 675 l 493 0 l 307 0 z "},"Ẅ":{"ha":1374,"x_min":14,"x_max":1360,"o":"m 751 1106 l 751 1272 l 918 1272 l 918 1106 l 751 1106 m 457 1106 l 457 1272 l 624 1272 l 624 1106 l 457 1106 m 307 0 l 14 1000 l 213 1000 l 400 313 l 588 999 l 786 1000 l 974 313 l 1161 1000 l 1360 1000 l 1067 0 l 881 0 l 687 675 l 493 0 l 307 0 z "},"Ẁ":{"ha":1374,"x_min":14,"x_max":1360,"o":"m 608 1104 l 492 1375 l 633 1375 l 748 1104 l 608 1104 m 307 0 l 14 1000 l 213 1000 l 400 313 l 588 999 l 786 1000 l 974 313 l 1161 1000 l 1360 1000 l 1067 0 l 881 0 l 687 675 l 493 0 l 307 0 z "},"X":{"ha":933,"x_min":14,"x_max":919,"o":"m 14 0 l 350 506 l 24 1000 l 256 1000 l 468 667 l 678 1000 l 911 1000 l 585 506 l 919 0 l 688 0 l 468 344 l 247 0 l 14 0 z "},"Y":{"ha":875,"x_min":0,"x_max":875,"o":"m 342 0 l 342 407 l 0 1000 l 221 1000 l 438 624 l 654 1000 l 875 1000 l 533 407 l 533 0 l 342 0 z "},"Ý":{"ha":875,"x_min":0,"x_max":875,"o":"m 507 1104 l 367 1104 l 482 1375 l 622 1375 l 507 1104 m 342 0 l 342 407 l 0 1000 l 221 1000 l 438 624 l 654 1000 l 875 1000 l 533 407 l 533 0 l 342 0 z "},"Ŷ":{"ha":875,"x_min":0,"x_max":875,"o":"m 157 1104 l 357 1333 l 513 1333 l 713 1104 l 539 1104 l 435 1229 l 331 1104 l 157 1104 m 342 0 l 342 407 l 0 1000 l 221 1000 l 438 624 l 654 1000 l 875 1000 l 533 407 l 533 0 l 342 0 z "},"Ÿ":{"ha":875,"x_min":0,"x_max":875,"o":"m 501 1106 l 501 1272 l 668 1272 l 668 1106 l 501 1106 m 207 1106 l 207 1272 l 374 1272 l 374 1106 l 207 1106 m 342 0 l 342 407 l 0 1000 l 221 1000 l 438 624 l 654 1000 l 875 1000 l 533 407 l 533 0 l 342 0 z "},"Ỵ":{"ha":875,"x_min":0,"x_max":875,"o":"m 343 -271 l 343 -104 l 532 -104 l 532 -271 l 343 -271 m 342 0 l 342 407 l 0 1000 l 221 1000 l 438 624 l 654 1000 l 875 1000 l 533 407 l 533 0 l 342 0 z "},"Ỳ":{"ha":875,"x_min":0,"x_max":875,"o":"m 369 1104 l 253 1375 l 394 1375 l 509 1104 l 369 1104 m 342 0 l 342 407 l 0 1000 l 221 1000 l 438 624 l 654 1000 l 875 1000 l 533 407 l 533 0 l 342 0 z "},"Ỷ":{"ha":875,"x_min":0,"x_max":875,"o":"m 339 1310 l 292 1402 q 392 1448 335 1439 q 499 1434 449 1458 q 572 1349 549 1411 q 582 1258 590 1299 q 548 1186 574 1217 q 487 1139 522 1156 q 416 1119 451 1122 l 387 1195 q 451 1232 424 1205 q 459 1299 478 1258 q 426 1331 447 1326 q 381 1329 405 1336 q 339 1310 358 1322 m 342 0 l 342 407 l 0 1000 l 221 1000 l 438 624 l 654 1000 l 875 1000 l 533 407 l 533 0 l 342 0 z "},"Ỹ":{"ha":875,"x_min":0,"x_max":875,"o":"m 560 1108 q 495 1124 526 1108 q 436 1160 465 1140 q 384 1195 408 1180 q 340 1211 360 1211 q 311 1188 319 1211 q 312 1129 303 1165 l 195 1129 q 204 1283 174 1220 q 322 1346 234 1346 q 386 1330 356 1346 q 445 1294 417 1315 q 498 1259 474 1274 q 542 1243 522 1243 q 572 1266 563 1243 q 570 1325 580 1290 l 687 1325 q 678 1172 709 1235 q 560 1108 648 1108 m 342 0 l 342 407 l 0 1000 l 221 1000 l 438 624 l 654 1000 l 875 1000 l 533 407 l 533 0 l 342 0 z "},"Z":{"ha":944,"x_min":69,"x_max":875,"o":"m 69 0 l 69 24 l 544 824 l 111 824 l 111 1000 l 875 1000 l 875 976 l 403 178 l 861 178 l 861 0 l 69 0 z "},"Ź":{"ha":944,"x_min":69,"x_max":875,"o":"m 551 1104 l 411 1104 l 526 1375 l 667 1375 l 551 1104 m 69 0 l 69 24 l 544 824 l 111 824 l 111 1000 l 875 1000 l 875 976 l 403 178 l 861 178 l 861 0 l 69 0 z "},"Ž":{"ha":944,"x_min":69,"x_max":875,"o":"m 199 1333 l 372 1333 l 476 1208 l 581 1333 l 754 1333 l 554 1104 l 399 1104 l 199 1333 m 69 0 l 69 24 l 544 824 l 111 824 l 111 1000 l 875 1000 l 875 976 l 403 178 l 861 178 l 861 0 l 69 0 z "},"Ż":{"ha":944,"x_min":69,"x_max":875,"o":"m 399 1144 l 399 1333 l 588 1333 l 588 1144 l 399 1144 m 69 0 l 69 24 l 544 824 l 111 824 l 111 1000 l 875 1000 l 875 976 l 403 178 l 861 178 l 861 0 l 69 0 z "},"a":{"ha":810,"x_min":56,"x_max":726,"o":"m 306 -21 q 169 10 225 -21 q 84 93 113 41 q 56 207 56 144 q 72 302 56 259 q 123 378 88 345 q 219 433 159 411 q 319 460 261 449 q 449 483 376 472 q 610 507 522 494 l 542 469 q 510 567 542 536 q 403 599 478 599 q 316 578 361 599 q 253 507 271 558 l 82 561 q 189 713 110 654 q 403 771 267 771 q 579 740 502 771 q 696 635 656 710 q 722 551 718 593 q 726 458 726 510 l 726 0 l 561 0 l 561 154 l 585 122 q 466 13 530 47 q 306 -21 403 -21 m 346 128 q 434 146 398 128 q 491 188 469 165 q 519 228 512 212 q 536 299 534 258 q 539 367 539 340 l 594 353 q 458 330 510 339 q 374 313 406 320 q 318 296 342 305 q 273 272 290 285 q 248 244 256 259 q 240 210 240 228 q 253 166 240 184 q 290 138 266 147 q 346 128 313 128 z "},"á":{"ha":810,"x_min":56,"x_max":726,"o":"m 490 854 l 349 854 l 465 1125 l 605 1125 l 490 854 m 306 -21 q 169 10 225 -21 q 84 93 113 41 q 56 207 56 144 q 72 302 56 259 q 123 378 88 345 q 219 433 159 411 q 319 460 261 449 q 449 483 376 472 q 610 507 522 494 l 542 469 q 510 567 542 536 q 403 599 478 599 q 316 578 361 599 q 253 507 271 558 l 82 561 q 189 713 110 654 q 403 771 267 771 q 579 740 502 771 q 696 635 656 710 q 722 551 718 593 q 726 458 726 510 l 726 0 l 561 0 l 561 154 l 585 122 q 466 13 530 47 q 306 -21 403 -21 m 346 128 q 434 146 398 128 q 491 188 469 165 q 519 228 512 212 q 536 299 534 258 q 539 367 539 340 l 594 353 q 458 330 510 339 q 374 313 406 320 q 318 296 342 305 q 273 272 290 285 q 248 244 256 259 q 240 210 240 228 q 253 166 240 184 q 290 138 266 147 q 346 128 313 128 z "},"ă":{"ha":810,"x_min":56,"x_max":726,"o":"m 411 833 q 300 863 350 833 q 220 943 250 893 q 190 1054 190 993 l 336 1054 q 358 1001 336 1023 q 411 979 380 979 q 464 1001 442 979 q 486 1054 486 1023 l 632 1054 q 602 943 632 993 q 522 863 572 893 q 411 833 472 833 m 306 -21 q 169 10 225 -21 q 84 93 113 41 q 56 207 56 144 q 72 302 56 259 q 123 378 88 345 q 219 433 159 411 q 319 460 261 449 q 449 483 376 472 q 610 507 522 494 l 542 469 q 510 567 542 536 q 403 599 478 599 q 316 578 361 599 q 253 507 271 558 l 82 561 q 189 713 110 654 q 403 771 267 771 q 579 740 502 771 q 696 635 656 710 q 722 551 718 593 q 726 458 726 510 l 726 0 l 561 0 l 561 154 l 585 122 q 466 13 530 47 q 306 -21 403 -21 m 346 128 q 434 146 398 128 q 491 188 469 165 q 519 228 512 212 q 536 299 534 258 q 539 367 539 340 l 594 353 q 458 330 510 339 q 374 313 406 320 q 318 296 342 305 q 273 272 290 285 q 248 244 256 259 q 240 210 240 228 q 253 166 240 184 q 290 138 266 147 q 346 128 313 128 z "},"ắ":{"ha":810,"x_min":56,"x_max":726,"o":"m 409 833 q 298 863 348 833 q 218 943 248 893 q 188 1054 188 993 l 334 1054 q 356 1001 334 1023 q 409 979 378 979 q 462 1001 440 979 q 484 1054 484 1023 l 630 1054 q 600 943 630 993 q 520 863 570 893 q 409 833 470 833 m 483 1125 l 343 1125 l 458 1396 l 599 1396 l 483 1125 m 306 -21 q 169 10 225 -21 q 84 93 113 41 q 56 207 56 144 q 72 302 56 259 q 123 378 88 345 q 219 433 159 411 q 319 460 261 449 q 449 483 376 472 q 610 507 522 494 l 542 469 q 510 567 542 536 q 403 599 478 599 q 316 578 361 599 q 253 507 271 558 l 82 561 q 189 713 110 654 q 403 771 267 771 q 579 740 502 771 q 696 635 656 710 q 722 551 718 593 q 726 458 726 510 l 726 0 l 561 0 l 561 154 l 585 122 q 466 13 530 47 q 306 -21 403 -21 m 346 128 q 434 146 398 128 q 491 188 469 165 q 519 228 512 212 q 536 299 534 258 q 539 367 539 340 l 594 353 q 458 330 510 339 q 374 313 406 320 q 318 296 342 305 q 273 272 290 285 q 248 244 256 259 q 240 210 240 228 q 253 166 240 184 q 290 138 266 147 q 346 128 313 128 z "},"ặ":{"ha":810,"x_min":56,"x_max":726,"o":"m 321 -271 l 321 -104 l 510 -104 l 510 -271 l 321 -271 m 411 833 q 300 863 350 833 q 220 943 250 893 q 190 1054 190 993 l 336 1054 q 358 1001 336 1023 q 411 979 380 979 q 464 1001 442 979 q 486 1054 486 1023 l 632 1054 q 602 943 632 993 q 522 863 572 893 q 411 833 472 833 m 306 -21 q 169 10 225 -21 q 84 93 113 41 q 56 207 56 144 q 72 302 56 259 q 123 378 88 345 q 219 433 159 411 q 319 460 261 449 q 449 483 376 472 q 610 507 522 494 l 542 469 q 510 567 542 536 q 403 599 478 599 q 316 578 361 599 q 253 507 271 558 l 82 561 q 189 713 110 654 q 403 771 267 771 q 579 740 502 771 q 696 635 656 710 q 722 551 718 593 q 726 458 726 510 l 726 0 l 561 0 l 561 154 l 585 122 q 466 13 530 47 q 306 -21 403 -21 m 346 128 q 434 146 398 128 q 491 188 469 165 q 519 228 512 212 q 536 299 534 258 q 539 367 539 340 l 594 353 q 458 330 510 339 q 374 313 406 320 q 318 296 342 305 q 273 272 290 285 q 248 244 256 259 q 240 210 240 228 q 253 166 240 184 q 290 138 266 147 q 346 128 313 128 z "},"ằ":{"ha":810,"x_min":56,"x_max":726,"o":"m 412 833 q 301 863 351 833 q 221 943 251 893 q 191 1054 191 993 l 337 1054 q 359 1001 337 1023 q 412 979 381 979 q 465 1001 443 979 q 487 1054 487 1023 l 633 1054 q 603 943 633 993 q 523 863 573 893 q 412 833 473 833 m 338 1125 l 222 1396 l 363 1396 l 478 1125 l 338 1125 m 306 -21 q 169 10 225 -21 q 84 93 113 41 q 56 207 56 144 q 72 302 56 259 q 123 378 88 345 q 219 433 159 411 q 319 460 261 449 q 449 483 376 472 q 610 507 522 494 l 542 469 q 510 567 542 536 q 403 599 478 599 q 316 578 361 599 q 253 507 271 558 l 82 561 q 189 713 110 654 q 403 771 267 771 q 579 740 502 771 q 696 635 656 710 q 722 551 718 593 q 726 458 726 510 l 726 0 l 561 0 l 561 154 l 585 122 q 466 13 530 47 q 306 -21 403 -21 m 346 128 q 434 146 398 128 q 491 188 469 165 q 519 228 512 212 q 536 299 534 258 q 539 367 539 340 l 594 353 q 458 330 510 339 q 374 313 406 320 q 318 296 342 305 q 273 272 290 285 q 248 244 256 259 q 240 210 240 228 q 253 166 240 184 q 290 138 266 147 q 346 128 313 128 z "},"ẳ":{"ha":810,"x_min":56,"x_max":726,"o":"m 433 833 q 322 863 372 833 q 242 943 272 893 q 212 1054 212 993 l 358 1054 q 380 1001 358 1023 q 433 979 401 979 q 486 1001 464 979 q 508 1054 508 1023 l 653 1054 q 624 943 653 993 q 544 863 594 893 q 433 833 494 833 m 310 1310 l 264 1402 q 364 1448 307 1439 q 470 1434 420 1458 q 543 1349 520 1411 q 554 1258 562 1299 q 520 1186 546 1217 q 458 1139 494 1156 q 388 1119 423 1122 l 358 1195 q 423 1232 396 1205 q 431 1299 449 1258 q 398 1331 419 1326 q 353 1329 376 1336 q 310 1310 329 1322 m 306 -21 q 169 10 225 -21 q 84 93 113 41 q 56 207 56 144 q 72 302 56 259 q 123 378 88 345 q 219 433 159 411 q 319 460 261 449 q 449 483 376 472 q 610 507 522 494 l 542 469 q 510 567 542 536 q 403 599 478 599 q 316 578 361 599 q 253 507 271 558 l 82 561 q 189 713 110 654 q 403 771 267 771 q 579 740 502 771 q 696 635 656 710 q 722 551 718 593 q 726 458 726 510 l 726 0 l 561 0 l 561 154 l 585 122 q 466 13 530 47 q 306 -21 403 -21 m 346 128 q 434 146 398 128 q 491 188 469 165 q 519 228 512 212 q 536 299 534 258 q 539 367 539 340 l 594 353 q 458 330 510 339 q 374 313 406 320 q 318 296 342 305 q 273 272 290 285 q 248 244 256 259 q 240 210 240 228 q 253 166 240 184 q 290 138 266 147 q 346 128 313 128 z "},"ẵ":{"ha":810,"x_min":56,"x_max":726,"o":"m 533 1104 q 468 1120 499 1104 q 409 1156 438 1135 q 357 1191 381 1176 q 313 1207 333 1207 q 284 1184 292 1207 q 285 1125 276 1160 l 168 1125 q 177 1279 147 1216 q 294 1342 207 1342 q 359 1326 328 1342 q 418 1290 390 1310 q 471 1255 447 1270 q 515 1239 495 1239 q 544 1262 536 1239 q 543 1321 553 1285 l 660 1321 q 651 1167 682 1231 q 533 1104 621 1104 m 411 833 q 300 863 350 833 q 220 943 250 893 q 190 1054 190 993 l 336 1054 q 358 1001 336 1023 q 411 979 380 979 q 464 1001 442 979 q 486 1054 486 1023 l 632 1054 q 602 943 632 993 q 522 863 572 893 q 411 833 472 833 m 306 -21 q 169 10 225 -21 q 84 93 113 41 q 56 207 56 144 q 72 302 56 259 q 123 378 88 345 q 219 433 159 411 q 319 460 261 449 q 449 483 376 472 q 610 507 522 494 l 542 469 q 510 567 542 536 q 403 599 478 599 q 316 578 361 599 q 253 507 271 558 l 82 561 q 189 713 110 654 q 403 771 267 771 q 579 740 502 771 q 696 635 656 710 q 722 551 718 593 q 726 458 726 510 l 726 0 l 561 0 l 561 154 l 585 122 q 466 13 530 47 q 306 -21 403 -21 m 346 128 q 434 146 398 128 q 491 188 469 165 q 519 228 512 212 q 536 299 534 258 q 539 367 539 340 l 594 353 q 458 330 510 339 q 374 313 406 320 q 318 296 342 305 q 273 272 290 285 q 248 244 256 259 q 240 210 240 228 q 253 166 240 184 q 290 138 266 147 q 346 128 313 128 z "},"â":{"ha":810,"x_min":56,"x_max":726,"o":"m 136 854 l 336 1083 l 492 1083 l 692 854 l 518 854 l 414 979 l 310 854 l 136 854 m 306 -21 q 169 10 225 -21 q 84 93 113 41 q 56 207 56 144 q 72 302 56 259 q 123 378 88 345 q 219 433 159 411 q 319 460 261 449 q 449 483 376 472 q 610 507 522 494 l 542 469 q 510 567 542 536 q 403 599 478 599 q 316 578 361 599 q 253 507 271 558 l 82 561 q 189 713 110 654 q 403 771 267 771 q 579 740 502 771 q 696 635 656 710 q 722 551 718 593 q 726 458 726 510 l 726 0 l 561 0 l 561 154 l 585 122 q 466 13 530 47 q 306 -21 403 -21 m 346 128 q 434 146 398 128 q 491 188 469 165 q 519 228 512 212 q 536 299 534 258 q 539 367 539 340 l 594 353 q 458 330 510 339 q 374 313 406 320 q 318 296 342 305 q 273 272 290 285 q 248 244 256 259 q 240 210 240 228 q 253 166 240 184 q 290 138 266 147 q 346 128 313 128 z "},"ấ":{"ha":810,"x_min":56,"x_max":919,"o":"m 142 854 l 342 1083 l 498 1083 l 698 854 l 524 854 l 420 979 l 316 854 l 142 854 m 804 1000 l 664 1000 l 779 1271 l 919 1271 l 804 1000 m 306 -21 q 169 10 225 -21 q 84 93 113 41 q 56 207 56 144 q 72 302 56 259 q 123 378 88 345 q 219 433 159 411 q 319 460 261 449 q 449 483 376 472 q 610 507 522 494 l 542 469 q 510 567 542 536 q 403 599 478 599 q 316 578 361 599 q 253 507 271 558 l 82 561 q 189 713 110 654 q 403 771 267 771 q 579 740 502 771 q 696 635 656 710 q 722 551 718 593 q 726 458 726 510 l 726 0 l 561 0 l 561 154 l 585 122 q 466 13 530 47 q 306 -21 403 -21 m 346 128 q 434 146 398 128 q 491 188 469 165 q 519 228 512 212 q 536 299 534 258 q 539 367 539 340 l 594 353 q 458 330 510 339 q 374 313 406 320 q 318 296 342 305 q 273 272 290 285 q 248 244 256 259 q 240 210 240 228 q 253 166 240 184 q 290 138 266 147 q 346 128 313 128 z "},"ậ":{"ha":810,"x_min":56,"x_max":726,"o":"m 321 -271 l 321 -104 l 510 -104 l 510 -271 l 321 -271 m 136 854 l 336 1083 l 492 1083 l 692 854 l 518 854 l 414 979 l 310 854 l 136 854 m 306 -21 q 169 10 225 -21 q 84 93 113 41 q 56 207 56 144 q 72 302 56 259 q 123 378 88 345 q 219 433 159 411 q 319 460 261 449 q 449 483 376 472 q 610 507 522 494 l 542 469 q 510 567 542 536 q 403 599 478 599 q 316 578 361 599 q 253 507 271 558 l 82 561 q 189 713 110 654 q 403 771 267 771 q 579 740 502 771 q 696 635 656 710 q 722 551 718 593 q 726 458 726 510 l 726 0 l 561 0 l 561 154 l 585 122 q 466 13 530 47 q 306 -21 403 -21 m 346 128 q 434 146 398 128 q 491 188 469 165 q 519 228 512 212 q 536 299 534 258 q 539 367 539 340 l 594 353 q 458 330 510 339 q 374 313 406 320 q 318 296 342 305 q 273 272 290 285 q 248 244 256 259 q 240 210 240 228 q 253 166 240 184 q 290 138 266 147 q 346 128 313 128 z "},"ầ":{"ha":810,"x_min":56,"x_max":811,"o":"m 136 854 l 336 1083 l 492 1083 l 692 854 l 518 854 l 414 979 l 310 854 l 136 854 m 671 1000 l 556 1271 l 696 1271 l 811 1000 l 671 1000 m 306 -21 q 169 10 225 -21 q 84 93 113 41 q 56 207 56 144 q 72 302 56 259 q 123 378 88 345 q 219 433 159 411 q 319 460 261 449 q 449 483 376 472 q 610 507 522 494 l 542 469 q 510 567 542 536 q 403 599 478 599 q 316 578 361 599 q 253 507 271 558 l 82 561 q 189 713 110 654 q 403 771 267 771 q 579 740 502 771 q 696 635 656 710 q 722 551 718 593 q 726 458 726 510 l 726 0 l 561 0 l 561 154 l 585 122 q 466 13 530 47 q 306 -21 403 -21 m 346 128 q 434 146 398 128 q 491 188 469 165 q 519 228 512 212 q 536 299 534 258 q 539 367 539 340 l 594 353 q 458 330 510 339 q 374 313 406 320 q 318 296 342 305 q 273 272 290 285 q 248 244 256 259 q 240 210 240 228 q 253 166 240 184 q 290 138 266 147 q 346 128 313 128 z "},"ẩ":{"ha":810,"x_min":56,"x_max":907,"o":"m 133 854 l 333 1083 l 489 1083 l 689 854 l 515 854 l 411 979 l 307 854 l 133 854 m 656 1060 l 609 1152 q 709 1198 652 1189 q 815 1184 765 1208 q 888 1099 865 1161 q 899 1008 907 1049 q 865 936 891 967 q 803 889 839 906 q 733 869 768 872 l 703 945 q 768 982 741 955 q 776 1049 794 1008 q 743 1081 764 1076 q 698 1079 722 1086 q 656 1060 674 1072 m 306 -21 q 169 10 225 -21 q 84 93 113 41 q 56 207 56 144 q 72 302 56 259 q 123 378 88 345 q 219 433 159 411 q 319 460 261 449 q 449 483 376 472 q 610 507 522 494 l 542 469 q 510 567 542 536 q 403 599 478 599 q 316 578 361 599 q 253 507 271 558 l 82 561 q 189 713 110 654 q 403 771 267 771 q 579 740 502 771 q 696 635 656 710 q 722 551 718 593 q 726 458 726 510 l 726 0 l 561 0 l 561 154 l 585 122 q 466 13 530 47 q 306 -21 403 -21 m 346 128 q 434 146 398 128 q 491 188 469 165 q 519 228 512 212 q 536 299 534 258 q 539 367 539 340 l 594 353 q 458 330 510 339 q 374 313 406 320 q 318 296 342 305 q 273 272 290 285 q 248 244 256 259 q 240 210 240 228 q 253 166 240 184 q 290 138 266 147 q 346 128 313 128 z "},"ẫ":{"ha":810,"x_min":56,"x_max":726,"o":"m 125 854 l 325 1083 l 481 1083 l 681 854 l 507 854 l 403 979 l 299 854 l 125 854 m 531 1118 q 466 1134 497 1118 q 407 1169 435 1149 q 354 1205 378 1190 q 310 1221 330 1221 q 281 1198 289 1221 q 282 1139 273 1174 l 165 1139 q 174 1293 144 1230 q 292 1356 204 1356 q 357 1340 326 1356 q 416 1304 388 1324 q 468 1268 444 1284 q 513 1253 492 1253 q 542 1276 533 1253 q 540 1335 550 1299 l 657 1335 q 649 1181 679 1244 q 531 1118 618 1118 m 306 -21 q 169 10 225 -21 q 84 93 113 41 q 56 207 56 144 q 72 302 56 259 q 123 378 88 345 q 219 433 159 411 q 319 460 261 449 q 449 483 376 472 q 610 507 522 494 l 542 469 q 510 567 542 536 q 403 599 478 599 q 316 578 361 599 q 253 507 271 558 l 82 561 q 189 713 110 654 q 403 771 267 771 q 579 740 502 771 q 696 635 656 710 q 722 551 718 593 q 726 458 726 510 l 726 0 l 561 0 l 561 154 l 585 122 q 466 13 530 47 q 306 -21 403 -21 m 346 128 q 434 146 398 128 q 491 188 469 165 q 519 228 512 212 q 536 299 534 258 q 539 367 539 340 l 594 353 q 458 330 510 339 q 374 313 406 320 q 318 296 342 305 q 273 272 290 285 q 248 244 256 259 q 240 210 240 228 q 253 166 240 184 q 290 138 266 147 q 346 128 313 128 z "},"ä":{"ha":810,"x_min":56,"x_max":726,"o":"m 481 856 l 481 1022 l 647 1022 l 647 856 l 481 856 m 186 856 l 186 1022 l 353 1022 l 353 856 l 186 856 m 306 -21 q 169 10 225 -21 q 84 93 113 41 q 56 207 56 144 q 72 302 56 259 q 123 378 88 345 q 219 433 159 411 q 319 460 261 449 q 449 483 376 472 q 610 507 522 494 l 542 469 q 510 567 542 536 q 403 599 478 599 q 316 578 361 599 q 253 507 271 558 l 82 561 q 189 713 110 654 q 403 771 267 771 q 579 740 502 771 q 696 635 656 710 q 722 551 718 593 q 726 458 726 510 l 726 0 l 561 0 l 561 154 l 585 122 q 466 13 530 47 q 306 -21 403 -21 m 346 128 q 434 146 398 128 q 491 188 469 165 q 519 228 512 212 q 536 299 534 258 q 539 367 539 340 l 594 353 q 458 330 510 339 q 374 313 406 320 q 318 296 342 305 q 273 272 290 285 q 248 244 256 259 q 240 210 240 228 q 253 166 240 184 q 290 138 266 147 q 346 128 313 128 z "},"ạ":{"ha":810,"x_min":56,"x_max":726,"o":"m 321 -271 l 321 -104 l 510 -104 l 510 -271 l 321 -271 m 306 -21 q 169 10 225 -21 q 84 93 113 41 q 56 207 56 144 q 72 302 56 259 q 123 378 88 345 q 219 433 159 411 q 319 460 261 449 q 449 483 376 472 q 610 507 522 494 l 542 469 q 510 567 542 536 q 403 599 478 599 q 316 578 361 599 q 253 507 271 558 l 82 561 q 189 713 110 654 q 403 771 267 771 q 579 740 502 771 q 696 635 656 710 q 722 551 718 593 q 726 458 726 510 l 726 0 l 561 0 l 561 154 l 585 122 q 466 13 530 47 q 306 -21 403 -21 m 346 128 q 434 146 398 128 q 491 188 469 165 q 519 228 512 212 q 536 299 534 258 q 539 367 539 340 l 594 353 q 458 330 510 339 q 374 313 406 320 q 318 296 342 305 q 273 272 290 285 q 248 244 256 259 q 240 210 240 228 q 253 166 240 184 q 290 138 266 147 q 346 128 313 128 z "},"à":{"ha":810,"x_min":56,"x_max":726,"o":"m 343 854 l 228 1125 l 368 1125 l 483 854 l 343 854 m 306 -21 q 169 10 225 -21 q 84 93 113 41 q 56 207 56 144 q 72 302 56 259 q 123 378 88 345 q 219 433 159 411 q 319 460 261 449 q 449 483 376 472 q 610 507 522 494 l 542 469 q 510 567 542 536 q 403 599 478 599 q 316 578 361 599 q 253 507 271 558 l 82 561 q 189 713 110 654 q 403 771 267 771 q 579 740 502 771 q 696 635 656 710 q 722 551 718 593 q 726 458 726 510 l 726 0 l 561 0 l 561 154 l 585 122 q 466 13 530 47 q 306 -21 403 -21 m 346 128 q 434 146 398 128 q 491 188 469 165 q 519 228 512 212 q 536 299 534 258 q 539 367 539 340 l 594 353 q 458 330 510 339 q 374 313 406 320 q 318 296 342 305 q 273 272 290 285 q 248 244 256 259 q 240 210 240 228 q 253 166 240 184 q 290 138 266 147 q 346 128 313 128 z "},"ả":{"ha":810,"x_min":56,"x_max":726,"o":"m 325 1065 l 278 1158 q 378 1204 322 1194 q 485 1190 435 1213 q 558 1105 535 1167 q 568 1013 576 1054 q 534 942 560 972 q 473 895 508 912 q 402 875 438 878 l 373 951 q 437 987 410 960 q 445 1055 464 1014 q 412 1086 433 1081 q 367 1085 391 1092 q 325 1065 344 1078 m 306 -21 q 169 10 225 -21 q 84 93 113 41 q 56 207 56 144 q 72 302 56 259 q 123 378 88 345 q 219 433 159 411 q 319 460 261 449 q 449 483 376 472 q 610 507 522 494 l 542 469 q 510 567 542 536 q 403 599 478 599 q 316 578 361 599 q 253 507 271 558 l 82 561 q 189 713 110 654 q 403 771 267 771 q 579 740 502 771 q 696 635 656 710 q 722 551 718 593 q 726 458 726 510 l 726 0 l 561 0 l 561 154 l 585 122 q 466 13 530 47 q 306 -21 403 -21 m 346 128 q 434 146 398 128 q 491 188 469 165 q 519 228 512 212 q 536 299 534 258 q 539 367 539 340 l 594 353 q 458 330 510 339 q 374 313 406 320 q 318 296 342 305 q 273 272 290 285 q 248 244 256 259 q 240 210 240 228 q 253 166 240 184 q 290 138 266 147 q 346 128 313 128 z "},"ā":{"ha":810,"x_min":56,"x_max":726,"o":"m 243 917 l 243 1061 l 621 1061 l 621 917 l 243 917 m 306 -21 q 169 10 225 -21 q 84 93 113 41 q 56 207 56 144 q 72 302 56 259 q 123 378 88 345 q 219 433 159 411 q 319 460 261 449 q 449 483 376 472 q 610 507 522 494 l 542 469 q 510 567 542 536 q 403 599 478 599 q 316 578 361 599 q 253 507 271 558 l 82 561 q 189 713 110 654 q 403 771 267 771 q 579 740 502 771 q 696 635 656 710 q 722 551 718 593 q 726 458 726 510 l 726 0 l 561 0 l 561 154 l 585 122 q 466 13 530 47 q 306 -21 403 -21 m 346 128 q 434 146 398 128 q 491 188 469 165 q 519 228 512 212 q 536 299 534 258 q 539 367 539 340 l 594 353 q 458 330 510 339 q 374 313 406 320 q 318 296 342 305 q 273 272 290 285 q 248 244 256 259 q 240 210 240 228 q 253 166 240 184 q 290 138 266 147 q 346 128 313 128 z "},"ą":{"ha":810,"x_min":56,"x_max":726,"o":"m 583 -332 q 503 -310 538 -332 q 449 -252 468 -287 q 429 -175 429 -216 q 458 -72 429 -124 q 536 22 487 -21 q 647 92 585 65 l 726 0 q 649 -51 684 -22 q 594 -109 615 -80 q 574 -160 574 -138 q 584 -184 574 -174 q 610 -194 594 -194 q 632 -189 620 -194 q 657 -174 644 -184 l 722 -260 q 660 -313 697 -294 q 583 -332 623 -332 m 306 -21 q 169 10 225 -21 q 84 93 113 41 q 56 207 56 144 q 72 302 56 259 q 123 378 88 345 q 219 433 159 411 q 319 460 261 449 q 449 483 376 472 q 610 507 522 494 l 542 469 q 510 567 542 536 q 403 599 478 599 q 316 578 361 599 q 253 507 271 558 l 82 561 q 189 713 110 654 q 403 771 267 771 q 579 740 502 771 q 696 635 656 710 q 722 551 718 593 q 726 458 726 510 l 726 0 l 561 0 l 561 154 l 585 122 q 466 13 530 47 q 306 -21 403 -21 m 346 128 q 434 146 398 128 q 491 188 469 165 q 519 228 512 212 q 536 299 534 258 q 539 367 539 340 l 594 353 q 458 330 510 339 q 374 313 406 320 q 318 296 342 305 q 273 272 290 285 q 248 244 256 259 q 240 210 240 228 q 253 166 240 184 q 290 138 266 147 q 346 128 313 128 z "},"å":{"ha":810,"x_min":56,"x_max":726,"o":"m 414 826 q 320 852 363 826 q 252 920 277 877 q 226 1014 226 963 q 252 1108 226 1066 q 320 1176 277 1151 q 414 1201 363 1201 q 508 1176 466 1201 q 576 1108 551 1151 q 601 1014 601 1066 q 576 920 601 963 q 508 852 551 877 q 414 826 466 826 m 414 938 q 468 960 446 938 q 490 1014 490 983 q 468 1068 490 1046 q 414 1090 446 1090 q 360 1068 383 1090 q 338 1014 338 1046 q 360 960 338 983 q 414 938 383 938 m 306 -21 q 169 10 225 -21 q 84 93 113 41 q 56 207 56 144 q 72 302 56 259 q 123 378 88 345 q 219 433 159 411 q 319 460 261 449 q 449 483 376 472 q 610 507 522 494 l 542 469 q 510 567 542 536 q 403 599 478 599 q 316 578 361 599 q 253 507 271 558 l 82 561 q 189 713 110 654 q 403 771 267 771 q 579 740 502 771 q 696 635 656 710 q 722 551 718 593 q 726 458 726 510 l 726 0 l 561 0 l 561 154 l 585 122 q 466 13 530 47 q 306 -21 403 -21 m 346 128 q 434 146 398 128 q 491 188 469 165 q 519 228 512 212 q 536 299 534 258 q 539 367 539 340 l 594 353 q 458 330 510 339 q 374 313 406 320 q 318 296 342 305 q 273 272 290 285 q 248 244 256 259 q 240 210 240 228 q 253 166 240 184 q 290 138 266 147 q 346 128 313 128 z "},"ã":{"ha":810,"x_min":56,"x_max":726,"o":"m 549 858 q 484 874 515 858 q 425 910 453 890 q 372 945 397 930 q 328 961 348 961 q 299 938 307 961 q 300 879 291 915 l 183 879 q 192 1033 162 970 q 310 1096 222 1096 q 375 1080 344 1096 q 434 1044 406 1065 q 486 1009 462 1024 q 531 993 510 993 q 560 1016 551 993 q 558 1075 568 1040 l 675 1075 q 667 922 697 985 q 549 858 636 858 m 306 -21 q 169 10 225 -21 q 84 93 113 41 q 56 207 56 144 q 72 302 56 259 q 123 378 88 345 q 219 433 159 411 q 319 460 261 449 q 449 483 376 472 q 610 507 522 494 l 542 469 q 510 567 542 536 q 403 599 478 599 q 316 578 361 599 q 253 507 271 558 l 82 561 q 189 713 110 654 q 403 771 267 771 q 579 740 502 771 q 696 635 656 710 q 722 551 718 593 q 726 458 726 510 l 726 0 l 561 0 l 561 154 l 585 122 q 466 13 530 47 q 306 -21 403 -21 m 346 128 q 434 146 398 128 q 491 188 469 165 q 519 228 512 212 q 536 299 534 258 q 539 367 539 340 l 594 353 q 458 330 510 339 q 374 313 406 320 q 318 296 342 305 q 273 272 290 285 q 248 244 256 259 q 240 210 240 228 q 253 166 240 184 q 290 138 266 147 q 346 128 313 128 z "},"æ":{"ha":1297,"x_min":56,"x_max":1249,"o":"m 917 -21 q 723 29 806 -21 q 594 166 640 79 q 549 365 549 253 q 593 578 549 487 q 719 720 638 669 q 907 771 799 771 q 1100 713 1023 771 q 1213 554 1178 656 q 1239 322 1249 453 l 1062 322 l 1062 392 q 1032 550 1062 494 q 907 607 1002 607 q 806 577 843 607 q 753 494 769 547 q 738 375 738 442 q 780 215 738 274 q 907 156 823 156 q 995 180 956 156 q 1053 250 1033 203 l 1232 196 q 1157 79 1206 128 q 1046 5 1108 31 q 917 -21 984 -21 m 346 126 q 449 155 403 126 q 514 217 494 183 q 531 259 525 236 q 540 310 538 283 q 540 369 542 338 l 608 346 l 450 326 q 387 317 423 324 q 318 298 351 310 q 263 263 285 285 q 240 208 240 242 q 268 150 240 173 q 346 126 296 126 m 315 -21 q 123 42 190 -21 q 56 201 56 106 q 80 303 56 261 q 143 371 103 344 q 229 414 182 398 q 324 438 276 430 q 411 451 372 447 l 582 474 l 538 438 q 527 534 545 499 q 476 584 510 569 q 403 599 442 599 q 313 576 354 599 q 251 507 272 554 l 82 558 q 152 664 107 615 q 261 741 197 712 q 408 771 325 771 q 607 721 531 771 q 710 583 683 671 q 724 505 722 543 q 726 447 726 467 l 631 147 q 547 50 594 88 q 442 -4 499 13 q 315 -21 384 -21 m 682 322 l 682 468 l 1152 468 l 1152 322 l 682 322 z "},"b":{"ha":867,"x_min":96,"x_max":811,"o":"m 465 -21 q 278 31 353 -21 q 166 173 203 83 q 128 375 128 263 q 165 577 128 488 q 276 719 203 667 q 456 771 349 771 q 643 719 563 771 q 767 579 723 668 q 811 375 811 490 q 768 173 811 263 q 647 31 724 83 q 465 -21 569 -21 m 96 0 l 96 1000 l 286 1000 l 286 514 l 263 514 l 263 0 l 96 0 m 435 147 q 535 178 496 147 q 592 260 574 208 q 611 375 611 312 q 592 489 611 438 q 532 572 572 541 q 428 603 491 603 q 332 574 369 603 q 279 494 296 546 q 263 375 263 443 q 279 256 263 307 q 334 176 296 204 q 435 147 372 147 z "},"c":{"ha":810,"x_min":56,"x_max":768,"o":"m 428 -21 q 228 31 311 -21 q 100 173 144 83 q 56 375 56 263 q 102 578 56 489 q 232 719 148 668 q 431 771 316 771 q 653 704 563 771 q 768 521 743 637 l 579 471 q 521 562 563 529 q 428 594 480 594 q 330 566 368 594 q 274 487 292 537 q 256 375 256 438 q 299 216 256 277 q 428 156 342 156 q 525 185 492 156 q 575 268 558 214 l 768 228 q 647 44 736 108 q 428 -21 558 -21 z "},"ć":{"ha":810,"x_min":56,"x_max":768,"o":"m 499 854 l 358 854 l 474 1125 l 614 1125 l 499 854 m 428 -21 q 228 31 311 -21 q 100 173 144 83 q 56 375 56 263 q 102 578 56 489 q 232 719 148 668 q 431 771 316 771 q 653 704 563 771 q 768 521 743 637 l 579 471 q 521 562 563 529 q 428 594 480 594 q 330 566 368 594 q 274 487 292 537 q 256 375 256 438 q 299 216 256 277 q 428 156 342 156 q 525 185 492 156 q 575 268 558 214 l 768 228 q 647 44 736 108 q 428 -21 558 -21 z "},"č":{"ha":810,"x_min":56,"x_max":768,"o":"m 150 1083 l 324 1083 l 428 958 l 532 1083 l 706 1083 l 506 854 l 350 854 l 150 1083 m 428 -21 q 228 31 311 -21 q 100 173 144 83 q 56 375 56 263 q 102 578 56 489 q 232 719 148 668 q 431 771 316 771 q 653 704 563 771 q 768 521 743 637 l 579 471 q 521 562 563 529 q 428 594 480 594 q 330 566 368 594 q 274 487 292 537 q 256 375 256 438 q 299 216 256 277 q 428 156 342 156 q 525 185 492 156 q 575 268 558 214 l 768 228 q 647 44 736 108 q 428 -21 558 -21 z "},"ç":{"ha":810,"x_min":56,"x_max":768,"o":"m 407 -336 q 353 -328 378 -336 q 308 -310 329 -321 l 349 -201 q 390 -210 376 -210 q 419 -199 409 -210 q 429 -178 429 -189 q 402 -141 429 -153 q 339 -118 376 -128 l 388 24 l 497 25 l 472 -50 q 535 -104 513 -71 q 557 -182 557 -137 q 512 -293 557 -251 q 407 -336 467 -336 m 428 -21 q 228 31 311 -21 q 100 173 144 83 q 56 375 56 263 q 102 578 56 489 q 232 719 148 668 q 431 771 316 771 q 653 704 563 771 q 768 521 743 637 l 579 471 q 521 562 563 529 q 428 594 480 594 q 330 566 368 594 q 274 487 292 537 q 256 375 256 438 q 299 216 256 277 q 428 156 342 156 q 525 185 492 156 q 575 268 558 214 l 768 228 q 647 44 736 108 q 428 -21 558 -21 z "},"ĉ":{"ha":810,"x_min":56,"x_max":768,"o":"m 156 854 l 356 1083 l 511 1083 l 711 854 l 538 854 l 433 979 l 329 854 l 156 854 m 428 -21 q 228 31 311 -21 q 100 173 144 83 q 56 375 56 263 q 102 578 56 489 q 232 719 148 668 q 431 771 316 771 q 653 704 563 771 q 768 521 743 637 l 579 471 q 521 562 563 529 q 428 594 480 594 q 330 566 368 594 q 274 487 292 537 q 256 375 256 438 q 299 216 256 277 q 428 156 342 156 q 525 185 492 156 q 575 268 558 214 l 768 228 q 647 44 736 108 q 428 -21 558 -21 z "},"ċ":{"ha":810,"x_min":56,"x_max":768,"o":"m 358 894 l 358 1083 l 547 1083 l 547 894 l 358 894 m 428 -21 q 228 31 311 -21 q 100 173 144 83 q 56 375 56 263 q 102 578 56 489 q 232 719 148 668 q 431 771 316 771 q 653 704 563 771 q 768 521 743 637 l 579 471 q 521 562 563 529 q 428 594 480 594 q 330 566 368 594 q 274 487 292 537 q 256 375 256 438 q 299 216 256 277 q 428 156 342 156 q 525 185 492 156 q 575 268 558 214 l 768 228 q 647 44 736 108 q 428 -21 558 -21 z "},"d":{"ha":868,"x_min":56,"x_max":771,"o":"m 401 -21 q 220 31 298 -21 q 99 173 142 83 q 56 375 56 263 q 100 579 56 490 q 224 719 144 668 q 411 771 303 771 q 591 719 518 771 q 701 577 664 667 q 739 375 739 488 q 701 173 739 263 q 588 31 663 83 q 401 -21 513 -21 m 432 147 q 533 176 495 147 q 588 256 571 204 q 604 375 604 307 q 588 494 604 443 q 534 574 571 546 q 439 603 498 603 q 335 572 376 603 q 275 489 294 541 q 256 375 256 438 q 274 260 256 312 q 332 178 293 208 q 432 147 371 147 m 604 0 l 604 514 l 581 514 l 581 1000 l 771 1000 l 771 0 l 604 0 z "},"ð":{"ha":835,"x_min":56,"x_max":779,"o":"m 418 -21 q 230 26 311 -21 q 102 156 148 73 q 56 349 56 240 q 102 542 56 458 q 230 673 148 626 q 418 719 311 719 q 505 709 464 719 q 601 671 547 698 q 544 783 592 730 q 426 872 497 836 q 279 913 356 907 l 308 1056 q 498 1015 415 1053 q 639 906 582 976 q 720 768 689 844 q 765 590 751 691 q 779 354 779 489 q 735 155 779 240 q 610 25 691 71 q 418 -21 528 -21 m 418 146 q 545 200 499 146 q 590 350 590 253 q 545 499 590 446 q 418 553 499 553 q 289 500 334 553 q 244 350 244 448 q 290 199 244 252 q 418 146 335 146 m 444 735 l 342 826 l 571 1088 l 674 996 l 444 735 z "},"ď":{"ha":1122,"x_min":56,"x_max":1064,"o":"m 401 -21 q 220 31 298 -21 q 99 173 142 83 q 56 375 56 263 q 100 579 56 490 q 224 719 144 668 q 411 771 303 771 q 591 719 518 771 q 701 577 664 667 q 739 375 739 488 q 701 173 739 263 q 588 31 663 83 q 401 -21 513 -21 m 432 147 q 533 176 495 147 q 588 256 571 204 q 604 375 604 307 q 588 494 604 443 q 534 574 571 546 q 439 603 498 603 q 335 572 376 603 q 275 489 294 541 q 256 375 256 438 q 274 260 256 312 q 332 178 293 208 q 432 147 371 147 m 604 0 l 604 514 l 581 514 l 581 1000 l 771 1000 l 771 0 l 604 0 m 875 624 l 886 703 q 940 714 919 700 q 969 752 961 727 q 972 811 977 778 l 875 811 l 875 1000 l 1064 1000 l 1064 811 q 1017 660 1064 711 q 875 624 971 608 z "},"đ":{"ha":868,"x_min":56,"x_max":857,"o":"m 479 806 l 479 950 l 857 950 l 857 806 l 479 806 m 401 -21 q 220 31 298 -21 q 99 173 142 83 q 56 375 56 263 q 100 579 56 490 q 224 719 144 668 q 411 771 303 771 q 591 719 518 771 q 701 577 664 667 q 739 375 739 488 q 701 173 739 263 q 588 31 663 83 q 401 -21 513 -21 m 432 147 q 533 176 495 147 q 588 256 571 204 q 604 375 604 307 q 588 494 604 443 q 534 574 571 546 q 439 603 498 603 q 335 572 376 603 q 275 489 294 541 q 256 375 256 438 q 274 260 256 312 q 332 178 293 208 q 432 147 371 147 m 604 0 l 604 514 l 581 514 l 581 1000 l 771 1000 l 771 0 l 604 0 z "},"e":{"ha":844,"x_min":56,"x_max":797,"o":"m 446 -21 q 243 29 331 -21 q 105 166 155 78 q 56 365 56 253 q 104 579 56 488 q 238 720 153 670 q 435 771 324 771 q 635 715 553 771 q 758 559 718 660 q 785 322 797 458 l 599 322 l 599 392 q 562 557 599 506 q 443 607 526 607 q 301 548 347 607 q 256 375 256 490 q 301 213 256 270 q 435 156 347 156 q 530 180 490 156 q 590 250 569 204 l 779 196 q 645 36 737 93 q 446 -21 554 -21 m 197 322 l 197 463 l 694 463 l 694 322 l 197 322 z "},"é":{"ha":844,"x_min":56,"x_max":797,"o":"m 520 854 l 380 854 l 495 1125 l 635 1125 l 520 854 m 446 -21 q 243 29 331 -21 q 105 166 155 78 q 56 365 56 253 q 104 579 56 488 q 238 720 153 670 q 435 771 324 771 q 635 715 553 771 q 758 559 718 660 q 785 322 797 458 l 599 322 l 599 392 q 562 557 599 506 q 443 607 526 607 q 301 548 347 607 q 256 375 256 490 q 301 213 256 270 q 435 156 347 156 q 530 180 490 156 q 590 250 569 204 l 779 196 q 645 36 737 93 q 446 -21 554 -21 m 197 322 l 197 463 l 694 463 l 694 322 l 197 322 z "},"ě":{"ha":844,"x_min":56,"x_max":797,"o":"m 154 1083 l 328 1083 l 432 958 l 536 1083 l 710 1083 l 510 854 l 354 854 l 154 1083 m 446 -21 q 243 29 331 -21 q 105 166 155 78 q 56 365 56 253 q 104 579 56 488 q 238 720 153 670 q 435 771 324 771 q 635 715 553 771 q 758 559 718 660 q 785 322 797 458 l 599 322 l 599 392 q 562 557 599 506 q 443 607 526 607 q 301 548 347 607 q 256 375 256 490 q 301 213 256 270 q 435 156 347 156 q 530 180 490 156 q 590 250 569 204 l 779 196 q 645 36 737 93 q 446 -21 554 -21 m 197 322 l 197 463 l 694 463 l 694 322 l 197 322 z "},"ê":{"ha":844,"x_min":56,"x_max":797,"o":"m 154 854 l 354 1083 l 510 1083 l 710 854 l 536 854 l 432 979 l 328 854 l 154 854 m 446 -21 q 243 29 331 -21 q 105 166 155 78 q 56 365 56 253 q 104 579 56 488 q 238 720 153 670 q 435 771 324 771 q 635 715 553 771 q 758 559 718 660 q 785 322 797 458 l 599 322 l 599 392 q 562 557 599 506 q 443 607 526 607 q 301 548 347 607 q 256 375 256 490 q 301 213 256 270 q 435 156 347 156 q 530 180 490 156 q 590 250 569 204 l 779 196 q 645 36 737 93 q 446 -21 554 -21 m 197 322 l 197 463 l 694 463 l 694 322 l 197 322 z "},"ế":{"ha":844,"x_min":56,"x_max":935,"o":"m 158 854 l 358 1083 l 514 1083 l 714 854 l 540 854 l 436 979 l 332 854 l 158 854 m 820 1000 l 680 1000 l 795 1271 l 935 1271 l 820 1000 m 446 -21 q 243 29 331 -21 q 105 166 155 78 q 56 365 56 253 q 104 579 56 488 q 238 720 153 670 q 435 771 324 771 q 635 715 553 771 q 758 559 718 660 q 785 322 797 458 l 599 322 l 599 392 q 562 557 599 506 q 443 607 526 607 q 301 548 347 607 q 256 375 256 490 q 301 213 256 270 q 435 156 347 156 q 530 180 490 156 q 590 250 569 204 l 779 196 q 645 36 737 93 q 446 -21 554 -21 m 197 322 l 197 463 l 694 463 l 694 322 l 197 322 z "},"ệ":{"ha":844,"x_min":56,"x_max":797,"o":"m 327 -271 l 327 -104 l 516 -104 l 516 -271 l 327 -271 m 154 854 l 354 1083 l 510 1083 l 710 854 l 536 854 l 432 979 l 328 854 l 154 854 m 446 -21 q 243 29 331 -21 q 105 166 155 78 q 56 365 56 253 q 104 579 56 488 q 238 720 153 670 q 435 771 324 771 q 635 715 553 771 q 758 559 718 660 q 785 322 797 458 l 599 322 l 599 392 q 562 557 599 506 q 443 607 526 607 q 301 548 347 607 q 256 375 256 490 q 301 213 256 270 q 435 156 347 156 q 530 180 490 156 q 590 250 569 204 l 779 196 q 645 36 737 93 q 446 -21 554 -21 m 197 322 l 197 463 l 694 463 l 694 322 l 197 322 z "},"ề":{"ha":844,"x_min":56,"x_max":829,"o":"m 154 854 l 354 1083 l 510 1083 l 710 854 l 536 854 l 432 979 l 328 854 l 154 854 m 689 1000 l 574 1271 l 714 1271 l 829 1000 l 689 1000 m 446 -21 q 243 29 331 -21 q 105 166 155 78 q 56 365 56 253 q 104 579 56 488 q 238 720 153 670 q 435 771 324 771 q 635 715 553 771 q 758 559 718 660 q 785 322 797 458 l 599 322 l 599 392 q 562 557 599 506 q 443 607 526 607 q 301 548 347 607 q 256 375 256 490 q 301 213 256 270 q 435 156 347 156 q 530 180 490 156 q 590 250 569 204 l 779 196 q 645 36 737 93 q 446 -21 554 -21 m 197 322 l 197 463 l 694 463 l 694 322 l 197 322 z "},"ể":{"ha":844,"x_min":56,"x_max":928,"o":"m 155 854 l 355 1083 l 510 1083 l 710 854 l 537 854 l 433 979 l 328 854 l 155 854 m 677 1060 l 631 1152 q 730 1198 674 1189 q 837 1184 787 1208 q 910 1099 887 1161 q 920 1008 928 1049 q 886 936 913 967 q 825 889 860 906 q 754 869 790 872 l 725 945 q 789 982 763 955 q 797 1049 816 1008 q 764 1081 785 1076 q 719 1079 743 1086 q 677 1060 696 1072 m 446 -21 q 243 29 331 -21 q 105 166 155 78 q 56 365 56 253 q 104 579 56 488 q 238 720 153 670 q 435 771 324 771 q 635 715 553 771 q 758 559 718 660 q 785 322 797 458 l 599 322 l 599 392 q 562 557 599 506 q 443 607 526 607 q 301 548 347 607 q 256 375 256 490 q 301 213 256 270 q 435 156 347 156 q 530 180 490 156 q 590 250 569 204 l 779 196 q 645 36 737 93 q 446 -21 554 -21 m 197 322 l 197 463 l 694 463 l 694 322 l 197 322 z "},"ễ":{"ha":844,"x_min":56,"x_max":797,"o":"m 154 854 l 354 1083 l 510 1083 l 710 854 l 536 854 l 432 979 l 328 854 l 154 854 m 560 1118 q 495 1134 526 1118 q 436 1169 464 1149 q 383 1205 408 1190 q 339 1221 359 1221 q 310 1198 318 1221 q 311 1139 302 1174 l 194 1139 q 203 1293 173 1230 q 321 1356 233 1356 q 386 1340 355 1356 q 445 1304 417 1324 q 497 1268 473 1284 q 542 1253 522 1253 q 571 1276 563 1253 q 569 1335 579 1299 l 686 1335 q 678 1181 708 1244 q 560 1118 647 1118 m 446 -21 q 243 29 331 -21 q 105 166 155 78 q 56 365 56 253 q 104 579 56 488 q 238 720 153 670 q 435 771 324 771 q 635 715 553 771 q 758 559 718 660 q 785 322 797 458 l 599 322 l 599 392 q 562 557 599 506 q 443 607 526 607 q 301 548 347 607 q 256 375 256 490 q 301 213 256 270 q 435 156 347 156 q 530 180 490 156 q 590 250 569 204 l 779 196 q 645 36 737 93 q 446 -21 554 -21 m 197 322 l 197 463 l 694 463 l 694 322 l 197 322 z "},"ë":{"ha":844,"x_min":56,"x_max":797,"o":"m 499 856 l 499 1022 l 665 1022 l 665 856 l 499 856 m 204 856 l 204 1022 l 371 1022 l 371 856 l 204 856 m 446 -21 q 243 29 331 -21 q 105 166 155 78 q 56 365 56 253 q 104 579 56 488 q 238 720 153 670 q 435 771 324 771 q 635 715 553 771 q 758 559 718 660 q 785 322 797 458 l 599 322 l 599 392 q 562 557 599 506 q 443 607 526 607 q 301 548 347 607 q 256 375 256 490 q 301 213 256 270 q 435 156 347 156 q 530 180 490 156 q 590 250 569 204 l 779 196 q 645 36 737 93 q 446 -21 554 -21 m 197 322 l 197 463 l 694 463 l 694 322 l 197 322 z "},"ė":{"ha":844,"x_min":56,"x_max":797,"o":"m 342 894 l 342 1083 l 531 1083 l 531 894 l 342 894 m 446 -21 q 243 29 331 -21 q 105 166 155 78 q 56 365 56 253 q 104 579 56 488 q 238 720 153 670 q 435 771 324 771 q 635 715 553 771 q 758 559 718 660 q 785 322 797 458 l 599 322 l 599 392 q 562 557 599 506 q 443 607 526 607 q 301 548 347 607 q 256 375 256 490 q 301 213 256 270 q 435 156 347 156 q 530 180 490 156 q 590 250 569 204 l 779 196 q 645 36 737 93 q 446 -21 554 -21 m 197 322 l 197 463 l 694 463 l 694 322 l 197 322 z "},"ẹ":{"ha":844,"x_min":56,"x_max":797,"o":"m 356 -271 l 356 -104 l 545 -104 l 545 -271 l 356 -271 m 446 -21 q 243 29 331 -21 q 105 166 155 78 q 56 365 56 253 q 104 579 56 488 q 238 720 153 670 q 435 771 324 771 q 635 715 553 771 q 758 559 718 660 q 785 322 797 458 l 599 322 l 599 392 q 562 557 599 506 q 443 607 526 607 q 301 548 347 607 q 256 375 256 490 q 301 213 256 270 q 435 156 347 156 q 530 180 490 156 q 590 250 569 204 l 779 196 q 645 36 737 93 q 446 -21 554 -21 m 197 322 l 197 463 l 694 463 l 694 322 l 197 322 z "},"è":{"ha":844,"x_min":56,"x_max":797,"o":"m 363 854 l 248 1125 l 388 1125 l 503 854 l 363 854 m 446 -21 q 243 29 331 -21 q 105 166 155 78 q 56 365 56 253 q 104 579 56 488 q 238 720 153 670 q 435 771 324 771 q 635 715 553 771 q 758 559 718 660 q 785 322 797 458 l 599 322 l 599 392 q 562 557 599 506 q 443 607 526 607 q 301 548 347 607 q 256 375 256 490 q 301 213 256 270 q 435 156 347 156 q 530 180 490 156 q 590 250 569 204 l 779 196 q 645 36 737 93 q 446 -21 554 -21 m 197 322 l 197 463 l 694 463 l 694 322 l 197 322 z "},"ẻ":{"ha":833,"x_min":56,"x_max":797,"o":"m 346 1065 l 299 1158 q 399 1204 342 1194 q 506 1190 456 1213 q 578 1105 556 1167 q 589 1013 597 1054 q 555 942 581 972 q 494 895 529 912 q 423 875 458 878 l 394 951 q 458 987 431 960 q 466 1055 485 1014 q 433 1086 454 1081 q 388 1085 412 1092 q 346 1065 365 1078 m 446 -21 q 243 29 331 -21 q 105 166 155 78 q 56 365 56 253 q 104 579 56 488 q 238 720 153 670 q 435 771 324 771 q 635 715 553 771 q 758 559 718 660 q 785 322 797 458 l 599 322 l 599 392 q 562 557 599 506 q 443 607 526 607 q 301 548 347 607 q 256 375 256 490 q 301 213 256 270 q 435 156 347 156 q 530 180 490 156 q 590 250 569 204 l 779 196 q 645 36 737 93 q 446 -21 554 -21 m 197 322 l 197 463 l 694 463 l 694 322 l 197 322 z "},"ē":{"ha":844,"x_min":56,"x_max":797,"o":"m 260 917 l 260 1061 l 638 1061 l 638 917 l 260 917 m 446 -21 q 243 29 331 -21 q 105 166 155 78 q 56 365 56 253 q 104 579 56 488 q 238 720 153 670 q 435 771 324 771 q 635 715 553 771 q 758 559 718 660 q 785 322 797 458 l 599 322 l 599 392 q 562 557 599 506 q 443 607 526 607 q 301 548 347 607 q 256 375 256 490 q 301 213 256 270 q 435 156 347 156 q 530 180 490 156 q 590 250 569 204 l 779 196 q 645 36 737 93 q 446 -21 554 -21 m 197 322 l 197 463 l 694 463 l 694 322 l 197 322 z "},"ę":{"ha":844,"x_min":56,"x_max":797,"o":"m 679 -319 q 577 -327 631 -341 q 490 -271 523 -312 q 456 -185 463 -236 q 469 -86 449 -134 q 504 -22 483 -55 q 539 33 524 10 q 564 72 549 49 q 597 118 579 94 q 632 161 615 142 l 750 142 q 720 93 734 116 q 693 49 706 70 q 670 10 681 28 q 650 -25 660 -8 q 619 -86 631 -58 q 600 -135 606 -115 q 597 -156 598 -141 q 606 -182 597 -172 q 641 -192 618 -197 q 681 -174 664 -187 l 746 -260 q 719 -294 735 -278 q 679 -319 702 -309 m 446 -21 q 243 29 331 -21 q 105 166 155 78 q 56 365 56 253 q 104 579 56 488 q 238 720 153 670 q 435 771 324 771 q 635 715 553 771 q 758 559 718 660 q 785 322 797 458 l 599 322 l 599 392 q 562 557 599 506 q 443 607 526 607 q 301 548 347 607 q 256 375 256 490 q 301 213 256 270 q 435 156 347 156 q 530 180 490 156 q 590 250 569 204 l 779 196 q 645 36 737 93 q 446 -21 554 -21 m 197 322 l 197 463 l 694 463 l 694 322 l 197 322 z "},"ẽ":{"ha":844,"x_min":56,"x_max":797,"o":"m 569 858 q 505 874 535 858 q 445 910 474 890 q 393 945 417 930 q 349 961 369 961 q 320 938 328 961 q 321 879 312 915 l 204 879 q 213 1033 183 970 q 331 1096 243 1096 q 395 1080 365 1096 q 455 1044 426 1065 q 507 1009 483 1024 q 551 993 531 993 q 581 1016 572 993 q 579 1075 589 1040 l 696 1075 q 688 922 718 985 q 569 858 657 858 m 446 -21 q 243 29 331 -21 q 105 166 155 78 q 56 365 56 253 q 104 579 56 488 q 238 720 153 670 q 435 771 324 771 q 635 715 553 771 q 758 559 718 660 q 785 322 797 458 l 599 322 l 599 392 q 562 557 599 506 q 443 607 526 607 q 301 548 347 607 q 256 375 256 490 q 301 213 256 270 q 435 156 347 156 q 530 180 490 156 q 590 250 569 204 l 779 196 q 645 36 737 93 q 446 -21 554 -21 m 197 322 l 197 463 l 694 463 l 694 322 l 197 322 z "},"ə":{"ha":844,"x_min":48,"x_max":789,"o":"m 399 771 q 602 721 514 771 q 739 584 690 672 q 789 385 789 497 q 740 171 789 262 q 606 30 692 80 q 410 -21 521 -21 q 209 35 292 -21 q 87 191 126 90 q 59 428 48 292 l 246 428 l 246 358 q 283 193 246 244 q 401 143 319 143 q 544 202 499 143 q 589 375 589 260 q 544 538 589 481 q 410 594 499 594 q 315 570 355 594 q 254 500 275 546 l 65 554 q 199 714 108 658 q 399 771 290 771 m 647 428 l 647 288 l 150 288 l 150 428 l 647 428 z "},"f":{"ha":536,"x_min":42,"x_max":522,"o":"m 160 0 l 160 747 q 161 812 160 776 q 173 885 163 848 q 210 951 183 922 q 285 1005 244 990 q 364 1020 326 1019 q 429 1021 402 1021 l 522 1021 l 522 868 l 436 868 q 370 845 392 868 q 349 792 349 823 l 349 0 l 160 0 m 42 604 l 42 750 l 522 750 l 522 604 l 42 604 z "},"g":{"ha":867,"x_min":56,"x_max":769,"o":"m 418 -354 q 297 -334 354 -354 q 193 -277 239 -313 q 119 -192 148 -240 l 294 -107 q 346 -158 313 -140 q 419 -175 380 -175 q 499 -161 462 -175 q 559 -118 537 -147 q 581 -49 582 -90 l 581 169 l 604 169 l 604 750 l 769 750 l 769 -51 q 767 -104 769 -79 q 758 -153 765 -128 q 691 -266 740 -222 q 572 -332 642 -310 q 418 -354 501 -354 m 401 -21 q 220 31 298 -21 q 99 173 142 83 q 56 375 56 263 q 100 579 56 490 q 224 719 144 668 q 411 771 303 771 q 591 719 518 771 q 701 577 664 667 q 739 375 739 488 q 701 173 739 263 q 588 31 663 83 q 401 -21 513 -21 m 432 147 q 533 176 495 147 q 588 256 571 204 q 604 375 604 307 q 588 494 604 443 q 534 574 571 546 q 439 603 498 603 q 335 572 376 603 q 275 489 294 541 q 256 375 256 438 q 274 260 256 312 q 332 178 293 208 q 432 147 371 147 z "},"ğ":{"ha":867,"x_min":56,"x_max":769,"o":"m 479 833 q 368 863 418 833 q 288 943 318 893 q 258 1054 258 993 l 404 1054 q 426 1001 404 1023 q 479 979 448 979 q 532 1001 510 979 q 554 1054 554 1023 l 700 1054 q 670 943 700 993 q 590 863 640 893 q 479 833 540 833 m 418 -354 q 297 -334 354 -354 q 193 -277 239 -313 q 119 -192 148 -240 l 294 -107 q 346 -158 313 -140 q 419 -175 380 -175 q 499 -161 462 -175 q 559 -118 537 -147 q 581 -49 582 -90 l 581 169 l 604 169 l 604 750 l 769 750 l 769 -51 q 767 -104 769 -79 q 758 -153 765 -128 q 691 -266 740 -222 q 572 -332 642 -310 q 418 -354 501 -354 m 401 -21 q 220 31 298 -21 q 99 173 142 83 q 56 375 56 263 q 100 579 56 490 q 224 719 144 668 q 411 771 303 771 q 591 719 518 771 q 701 577 664 667 q 739 375 739 488 q 701 173 739 263 q 588 31 663 83 q 401 -21 513 -21 m 432 147 q 533 176 495 147 q 588 256 571 204 q 604 375 604 307 q 588 494 604 443 q 534 574 571 546 q 439 603 498 603 q 335 572 376 603 q 275 489 294 541 q 256 375 256 438 q 274 260 256 312 q 332 178 293 208 q 432 147 371 147 z "},"ĝ":{"ha":867,"x_min":56,"x_max":769,"o":"m 163 854 l 363 1083 l 519 1083 l 719 854 l 545 854 l 441 979 l 337 854 l 163 854 m 418 -354 q 297 -334 354 -354 q 193 -277 239 -313 q 119 -192 148 -240 l 294 -107 q 346 -158 313 -140 q 419 -175 380 -175 q 499 -161 462 -175 q 559 -118 537 -147 q 581 -49 582 -90 l 581 169 l 604 169 l 604 750 l 769 750 l 769 -51 q 767 -104 769 -79 q 758 -153 765 -128 q 691 -266 740 -222 q 572 -332 642 -310 q 418 -354 501 -354 m 401 -21 q 220 31 298 -21 q 99 173 142 83 q 56 375 56 263 q 100 579 56 490 q 224 719 144 668 q 411 771 303 771 q 591 719 518 771 q 701 577 664 667 q 739 375 739 488 q 701 173 739 263 q 588 31 663 83 q 401 -21 513 -21 m 432 147 q 533 176 495 147 q 588 256 571 204 q 604 375 604 307 q 588 494 604 443 q 534 574 571 546 q 439 603 498 603 q 335 572 376 603 q 275 489 294 541 q 256 375 256 438 q 274 260 256 312 q 332 178 293 208 q 432 147 371 147 z "},"ģ":{"ha":867,"x_min":56,"x_max":769,"o":"m 538 1228 l 538 1149 q 503 1144 526 1149 q 459 1123 479 1140 q 439 1072 439 1107 l 538 1072 l 538 894 l 360 894 l 360 1072 q 409 1184 360 1141 q 538 1228 458 1228 m 418 -354 q 297 -334 354 -354 q 193 -277 239 -313 q 119 -192 148 -240 l 294 -107 q 346 -158 313 -140 q 419 -175 380 -175 q 499 -161 462 -175 q 559 -118 537 -147 q 581 -49 582 -90 l 581 169 l 604 169 l 604 750 l 769 750 l 769 -51 q 767 -104 769 -79 q 758 -153 765 -128 q 691 -266 740 -222 q 572 -332 642 -310 q 418 -354 501 -354 m 401 -21 q 220 31 298 -21 q 99 173 142 83 q 56 375 56 263 q 100 579 56 490 q 224 719 144 668 q 411 771 303 771 q 591 719 518 771 q 701 577 664 667 q 739 375 739 488 q 701 173 739 263 q 588 31 663 83 q 401 -21 513 -21 m 432 147 q 533 176 495 147 q 588 256 571 204 q 604 375 604 307 q 588 494 604 443 q 534 574 571 546 q 439 603 498 603 q 335 572 376 603 q 275 489 294 541 q 256 375 256 438 q 274 260 256 312 q 332 178 293 208 q 432 147 371 147 z "},"ġ":{"ha":867,"x_min":56,"x_max":769,"o":"m 372 894 l 372 1083 l 561 1083 l 561 894 l 372 894 m 418 -354 q 297 -334 354 -354 q 193 -277 239 -313 q 119 -192 148 -240 l 294 -107 q 346 -158 313 -140 q 419 -175 380 -175 q 499 -161 462 -175 q 559 -118 537 -147 q 581 -49 582 -90 l 581 169 l 604 169 l 604 750 l 769 750 l 769 -51 q 767 -104 769 -79 q 758 -153 765 -128 q 691 -266 740 -222 q 572 -332 642 -310 q 418 -354 501 -354 m 401 -21 q 220 31 298 -21 q 99 173 142 83 q 56 375 56 263 q 100 579 56 490 q 224 719 144 668 q 411 771 303 771 q 591 719 518 771 q 701 577 664 667 q 739 375 739 488 q 701 173 739 263 q 588 31 663 83 q 401 -21 513 -21 m 432 147 q 533 176 495 147 q 588 256 571 204 q 604 375 604 307 q 588 494 604 443 q 534 574 571 546 q 439 603 498 603 q 335 572 376 603 q 275 489 294 541 q 256 375 256 438 q 274 260 256 312 q 332 178 293 208 q 432 147 371 147 z "},"h":{"ha":883,"x_min":96,"x_max":800,"o":"m 608 0 l 608 354 q 606 420 608 380 q 588 500 603 460 q 541 567 574 540 q 447 594 508 594 q 395 587 423 594 q 343 557 367 579 q 303 493 319 535 q 288 381 288 451 l 179 432 q 215 599 179 521 q 324 724 251 676 q 507 772 397 772 q 651 742 595 772 q 737 667 706 713 q 781 571 768 621 q 797 481 794 522 q 800 421 800 440 l 800 0 l 608 0 m 96 0 l 96 1000 l 264 1000 l 264 486 l 288 486 l 288 0 l 96 0 z "},"ħ":{"ha":883,"x_min":25,"x_max":800,"o":"m 25 806 l 25 950 l 403 950 l 403 806 l 25 806 m 608 0 l 608 354 q 606 420 608 380 q 588 500 603 460 q 541 567 574 540 q 447 594 508 594 q 395 587 423 594 q 343 557 367 579 q 303 493 319 535 q 288 381 288 451 l 179 432 q 215 599 179 521 q 324 724 251 676 q 507 772 397 772 q 651 742 595 772 q 737 667 706 713 q 781 571 768 621 q 797 481 794 522 q 800 421 800 440 l 800 0 l 608 0 m 96 0 l 96 1000 l 264 1000 l 264 486 l 288 486 l 288 0 l 96 0 z "},"ĥ":{"ha":883,"x_min":-101,"x_max":800,"o":"m -101 1104 l 99 1333 l 255 1333 l 455 1104 l 281 1104 l 177 1229 l 73 1104 l -101 1104 m 608 0 l 608 354 q 606 420 608 380 q 588 500 603 460 q 541 567 574 540 q 447 594 508 594 q 395 587 423 594 q 343 557 367 579 q 303 493 319 535 q 288 381 288 451 l 179 432 q 215 599 179 521 q 324 724 251 676 q 507 772 397 772 q 651 742 595 772 q 737 667 706 713 q 781 571 768 621 q 797 481 794 522 q 800 421 800 440 l 800 0 l 608 0 m 96 0 l 96 1000 l 264 1000 l 264 486 l 288 486 l 288 0 l 96 0 z "},"i":{"ha":411,"x_min":111,"x_max":300,"o":"m 111 854 l 111 1021 l 300 1021 l 300 854 l 111 854 m 111 0 l 111 750 l 300 750 l 300 0 l 111 0 z "},"ı":{"ha":411,"x_min":111,"x_max":300,"o":"m 111 0 l 111 750 l 300 750 l 300 0 l 111 0 z "},"í":{"ha":411,"x_min":111,"x_max":394,"o":"m 278 854 l 138 854 l 253 1125 l 394 1125 l 278 854 m 111 0 l 111 750 l 300 750 l 300 0 l 111 0 z "},"î":{"ha":411,"x_min":-61,"x_max":494,"o":"m -61 854 l 139 1083 l 294 1083 l 494 854 l 321 854 l 217 979 l 113 854 l -61 854 m 111 0 l 111 750 l 300 750 l 300 0 l 111 0 z "},"ï":{"ha":411,"x_min":-25,"x_max":436,"o":"m 269 856 l 269 1022 l 436 1022 l 436 856 l 269 856 m -25 856 l -25 1022 l 142 1022 l 142 856 l -25 856 m 111 0 l 111 750 l 300 750 l 300 0 l 111 0 z "},"ị":{"ha":411,"x_min":111,"x_max":300,"o":"m 111 -271 l 111 -104 l 300 -104 l 300 -271 l 111 -271 m 111 854 l 111 1021 l 300 1021 l 300 854 l 111 854 m 111 0 l 111 750 l 300 750 l 300 0 l 111 0 z "},"ì":{"ha":411,"x_min":17,"x_max":300,"o":"m 133 854 l 17 1125 l 158 1125 l 273 854 l 133 854 m 111 0 l 111 750 l 300 750 l 300 0 l 111 0 z "},"ỉ":{"ha":411,"x_min":47,"x_max":345,"o":"m 94 1065 l 47 1158 q 147 1204 90 1194 q 253 1190 203 1213 q 326 1105 303 1167 q 337 1013 345 1054 q 303 942 329 972 q 242 895 277 912 q 171 875 206 878 l 142 951 q 206 987 179 960 q 214 1055 233 1014 q 181 1086 202 1081 q 136 1085 160 1092 q 94 1065 113 1078 m 111 0 l 111 750 l 300 750 l 300 0 l 111 0 z "},"ī":{"ha":411,"x_min":17,"x_max":394,"o":"m 17 917 l 17 1061 l 394 1061 l 394 917 l 17 917 m 111 0 l 111 750 l 300 750 l 300 0 l 111 0 z "},"į":{"ha":411,"x_min":3,"x_max":300,"o":"m 157 -332 q 76 -310 111 -332 q 22 -252 42 -287 q 3 -175 3 -216 q 32 -72 3 -124 q 110 22 60 -21 q 221 92 159 65 l 300 0 q 223 -51 258 -22 q 168 -109 188 -80 q 147 -160 147 -138 q 158 -184 147 -174 q 183 -194 168 -194 q 206 -189 194 -194 q 231 -174 218 -184 l 296 -260 q 234 -313 271 -294 q 157 -332 197 -332 m 111 854 l 111 1021 l 300 1021 l 300 854 l 111 854 m 111 0 l 111 750 l 300 750 l 300 0 l 111 0 z "},"ĩ":{"ha":411,"x_min":-62,"x_max":474,"o":"m 325 858 q 260 874 291 858 q 201 910 229 890 q 149 945 173 930 q 104 961 124 961 q 75 938 83 961 q 76 879 67 915 l -40 879 q -32 1033 -62 970 q 86 1096 -1 1096 q 151 1080 120 1096 q 210 1044 182 1065 q 263 1009 238 1024 q 307 993 287 993 q 336 1016 328 993 q 335 1075 344 1040 l 451 1075 q 443 922 474 985 q 325 858 413 858 m 111 0 l 111 750 l 300 750 l 300 0 l 111 0 z "},"j":{"ha":418,"x_min":-14,"x_max":321,"o":"m -14 -333 l -14 -157 l 19 -157 q 108 -128 84 -157 q 132 -44 132 -99 l 132 750 l 321 750 l 321 -136 q 265 -280 321 -226 q 114 -333 209 -333 l -14 -333 m 132 854 l 132 1021 l 321 1021 l 321 854 l 132 854 z "},"ĵ":{"ha":418,"x_min":-55,"x_max":501,"o":"m -14 -333 l -14 -157 l 19 -157 q 108 -128 84 -157 q 132 -44 132 -99 l 132 750 l 321 750 l 321 -136 q 265 -280 321 -226 q 114 -333 209 -333 l -14 -333 m -55 854 l 145 1083 l 301 1083 l 501 854 l 327 854 l 223 979 l 119 854 l -55 854 z "},"k":{"ha":767,"x_min":96,"x_max":794,"o":"m 96 0 l 97 1000 l 289 1000 l 289 389 l 543 750 l 776 750 l 506 375 l 794 0 l 549 0 l 289 361 l 289 0 l 96 0 z "},"ķ":{"ha":767,"x_min":96,"x_max":794,"o":"m 339 -437 l 339 -358 q 374 -354 350 -358 q 417 -333 397 -349 q 438 -282 438 -317 l 339 -282 l 339 -104 l 517 -104 l 517 -282 q 467 -394 517 -351 q 339 -437 418 -437 m 96 0 l 97 1000 l 289 1000 l 289 389 l 543 750 l 776 750 l 506 375 l 794 0 l 549 0 l 289 361 l 289 0 l 96 0 z "},"l":{"ha":411,"x_min":111,"x_max":300,"o":"m 111 0 l 111 1021 l 300 1021 l 300 0 l 111 0 z "},"ĺ":{"ha":411,"x_min":111,"x_max":394,"o":"m 278 1104 l 138 1104 l 253 1375 l 394 1375 l 278 1104 m 111 0 l 111 1021 l 300 1021 l 300 0 l 111 0 z "},"ľ":{"ha":658,"x_min":111,"x_max":600,"o":"m 111 0 l 111 1021 l 300 1021 l 300 0 l 111 0 m 411 624 l 422 703 q 476 714 456 700 q 505 752 497 727 q 508 811 513 778 l 411 811 l 411 1000 l 600 1000 l 600 811 q 553 660 600 711 q 411 624 507 608 z "},"ļ":{"ha":411,"x_min":111,"x_max":300,"o":"m 117 -437 l 117 -358 q 151 -354 128 -358 q 195 -333 175 -349 q 215 -282 215 -317 l 117 -282 l 117 -104 l 294 -104 l 294 -282 q 245 -394 294 -351 q 117 -437 196 -437 m 111 0 l 111 1021 l 300 1021 l 300 0 l 111 0 z "},"ł":{"ha":564,"x_min":32,"x_max":532,"o":"m 32 265 l 32 469 l 532 756 l 532 551 l 32 265 m 188 0 l 188 1021 l 376 1021 l 376 0 l 188 0 z "},"m":{"ha":1272,"x_min":96,"x_max":1189,"o":"m 1000 0 l 1000 443 q 965 559 1000 517 q 868 600 930 600 q 799 582 828 600 q 754 530 770 563 q 738 454 738 497 l 658 507 q 695 643 658 584 q 793 735 731 702 q 929 768 854 768 q 1123 692 1058 768 q 1189 493 1189 616 l 1189 0 l 1000 0 m 96 0 l 96 750 l 263 750 l 263 501 l 286 501 l 286 0 l 96 0 m 549 0 l 549 443 q 514 559 549 517 q 417 600 478 600 q 322 559 358 600 q 286 454 286 519 l 207 510 q 244 642 207 583 q 343 734 281 700 q 482 768 405 768 q 627 731 570 768 q 710 631 683 693 q 738 493 738 568 l 738 0 l 549 0 z "},"n":{"ha":883,"x_min":96,"x_max":800,"o":"m 608 0 l 608 354 q 606 420 608 380 q 588 500 603 460 q 541 567 574 540 q 447 594 508 594 q 395 587 423 594 q 343 557 367 579 q 303 493 319 535 q 288 381 288 451 l 179 432 q 215 599 179 521 q 324 724 251 676 q 507 772 397 772 q 651 742 595 772 q 737 667 706 713 q 781 571 768 621 q 797 481 794 522 q 800 421 800 440 l 800 0 l 608 0 m 96 0 l 96 750 l 264 750 l 264 501 l 288 501 l 288 0 l 96 0 z "},"ń":{"ha":883,"x_min":96,"x_max":800,"o":"m 517 854 l 376 854 l 492 1125 l 632 1125 l 517 854 m 608 0 l 608 354 q 606 420 608 380 q 588 500 603 460 q 541 567 574 540 q 447 594 508 594 q 395 587 423 594 q 343 557 367 579 q 303 493 319 535 q 288 381 288 451 l 179 432 q 215 599 179 521 q 324 724 251 676 q 507 772 397 772 q 651 742 595 772 q 737 667 706 713 q 781 571 768 621 q 797 481 794 522 q 800 421 800 440 l 800 0 l 608 0 m 96 0 l 96 750 l 264 750 l 264 501 l 288 501 l 288 0 l 96 0 z "},"ň":{"ha":883,"x_min":96,"x_max":800,"o":"m 161 1083 l 335 1083 l 439 958 l 543 1083 l 717 1083 l 517 854 l 361 854 l 161 1083 m 608 0 l 608 354 q 606 420 608 380 q 588 500 603 460 q 541 567 574 540 q 447 594 508 594 q 395 587 423 594 q 343 557 367 579 q 303 493 319 535 q 288 381 288 451 l 179 432 q 215 599 179 521 q 324 724 251 676 q 507 772 397 772 q 651 742 595 772 q 737 667 706 713 q 781 571 768 621 q 797 481 794 522 q 800 421 800 440 l 800 0 l 608 0 m 96 0 l 96 750 l 264 750 l 264 501 l 288 501 l 288 0 l 96 0 z "},"ņ":{"ha":883,"x_min":96,"x_max":800,"o":"m 364 -437 l 364 -358 q 399 -354 375 -358 q 442 -333 422 -349 q 463 -282 463 -317 l 364 -282 l 364 -104 l 542 -104 l 542 -282 q 492 -394 542 -351 q 364 -437 443 -437 m 608 0 l 608 354 q 606 420 608 380 q 588 500 603 460 q 541 567 574 540 q 447 594 508 594 q 395 587 423 594 q 343 557 367 579 q 303 493 319 535 q 288 381 288 451 l 179 432 q 215 599 179 521 q 324 724 251 676 q 507 772 397 772 q 651 742 595 772 q 737 667 706 713 q 781 571 768 621 q 797 481 794 522 q 800 421 800 440 l 800 0 l 608 0 m 96 0 l 96 750 l 264 750 l 264 501 l 288 501 l 288 0 l 96 0 z "},"ŋ":{"ha":883,"x_min":96,"x_max":800,"o":"m 654 -325 q 561 -331 603 -335 q 481 -318 518 -327 l 481 -186 q 518 -188 497 -187 q 561 -182 540 -189 q 595 -155 581 -176 q 608 -92 608 -134 l 608 3 l 800 3 l 800 -122 q 761 -258 800 -204 q 654 -325 723 -311 m 608 0 l 608 354 q 606 420 608 380 q 588 500 603 460 q 541 567 574 540 q 447 594 508 594 q 395 587 423 594 q 343 557 367 579 q 303 493 319 535 q 288 381 288 451 l 179 432 q 215 599 179 521 q 324 724 251 676 q 507 772 397 772 q 651 742 595 772 q 737 667 706 713 q 781 571 768 621 q 797 481 794 522 q 800 421 800 440 l 800 0 l 608 0 m 96 0 l 96 750 l 264 750 l 264 501 l 288 501 l 288 0 l 96 0 z "},"ñ":{"ha":883,"x_min":96,"x_max":800,"o":"m 563 858 q 498 874 528 858 q 439 910 467 890 q 386 945 410 930 q 342 961 362 961 q 313 938 321 961 q 314 879 305 915 l 197 879 q 206 1033 176 970 q 324 1096 236 1096 q 389 1080 358 1096 q 448 1044 419 1065 q 500 1009 476 1024 q 544 993 524 993 q 574 1016 565 993 q 572 1075 582 1040 l 689 1075 q 681 922 711 985 q 563 858 650 858 m 608 0 l 608 354 q 606 420 608 380 q 588 500 603 460 q 541 567 574 540 q 447 594 508 594 q 395 587 423 594 q 343 557 367 579 q 303 493 319 535 q 288 381 288 451 l 179 432 q 215 599 179 521 q 324 724 251 676 q 507 772 397 772 q 651 742 595 772 q 737 667 706 713 q 781 571 768 621 q 797 481 794 522 q 800 421 800 440 l 800 0 l 608 0 m 96 0 l 96 750 l 264 750 l 264 501 l 288 501 l 288 0 l 96 0 z "},"o":{"ha":871,"x_min":56,"x_max":815,"o":"m 435 -21 q 236 30 322 -21 q 103 170 151 81 q 56 375 56 259 q 104 582 56 492 q 238 721 153 671 q 435 771 324 771 q 634 720 548 771 q 767 580 719 669 q 815 375 815 491 q 767 169 815 258 q 633 30 719 80 q 435 -21 547 -21 m 435 156 q 570 217 526 156 q 615 375 615 278 q 570 535 615 475 q 435 594 524 594 q 333 567 373 594 q 275 490 294 539 q 256 375 256 440 q 301 215 256 274 q 435 156 347 156 z "},"ó":{"ha":871,"x_min":56,"x_max":815,"o":"m 508 854 l 367 854 l 483 1125 l 623 1125 l 508 854 m 435 -21 q 236 30 322 -21 q 103 170 151 81 q 56 375 56 259 q 104 582 56 492 q 238 721 153 671 q 435 771 324 771 q 634 720 548 771 q 767 580 719 669 q 815 375 815 491 q 767 169 815 258 q 633 30 719 80 q 435 -21 547 -21 m 435 156 q 570 217 526 156 q 615 375 615 278 q 570 535 615 475 q 435 594 524 594 q 333 567 373 594 q 275 490 294 539 q 256 375 256 440 q 301 215 256 274 q 435 156 347 156 z "},"ô":{"ha":871,"x_min":56,"x_max":815,"o":"m 156 854 l 356 1083 l 511 1083 l 711 854 l 538 854 l 433 979 l 329 854 l 156 854 m 435 -21 q 236 30 322 -21 q 103 170 151 81 q 56 375 56 259 q 104 582 56 492 q 238 721 153 671 q 435 771 324 771 q 634 720 548 771 q 767 580 719 669 q 815 375 815 491 q 767 169 815 258 q 633 30 719 80 q 435 -21 547 -21 m 435 156 q 570 217 526 156 q 615 375 615 278 q 570 535 615 475 q 435 594 524 594 q 333 567 373 594 q 275 490 294 539 q 256 375 256 440 q 301 215 256 274 q 435 156 347 156 z "},"ố":{"ha":871,"x_min":56,"x_max":942,"o":"m 165 854 l 365 1083 l 521 1083 l 721 854 l 547 854 l 443 979 l 339 854 l 165 854 m 827 1000 l 687 1000 l 802 1271 l 942 1271 l 827 1000 m 435 -21 q 236 30 322 -21 q 103 170 151 81 q 56 375 56 259 q 104 582 56 492 q 238 721 153 671 q 435 771 324 771 q 634 720 548 771 q 767 580 719 669 q 815 375 815 491 q 767 169 815 258 q 633 30 719 80 q 435 -21 547 -21 m 435 156 q 570 217 526 156 q 615 375 615 278 q 570 535 615 475 q 435 594 524 594 q 333 567 373 594 q 275 490 294 539 q 256 375 256 440 q 301 215 256 274 q 435 156 347 156 z "},"ộ":{"ha":871,"x_min":56,"x_max":815,"o":"m 357 -271 l 357 -104 l 546 -104 l 546 -271 l 357 -271 m 156 854 l 356 1083 l 511 1083 l 711 854 l 538 854 l 433 979 l 329 854 l 156 854 m 435 -21 q 236 30 322 -21 q 103 170 151 81 q 56 375 56 259 q 104 582 56 492 q 238 721 153 671 q 435 771 324 771 q 634 720 548 771 q 767 580 719 669 q 815 375 815 491 q 767 169 815 258 q 633 30 719 80 q 435 -21 547 -21 m 435 156 q 570 217 526 156 q 615 375 615 278 q 570 535 615 475 q 435 594 524 594 q 333 567 373 594 q 275 490 294 539 q 256 375 256 440 q 301 215 256 274 q 435 156 347 156 z "},"ồ":{"ha":871,"x_min":56,"x_max":840,"o":"m 165 854 l 365 1083 l 521 1083 l 721 854 l 547 854 l 443 979 l 339 854 l 165 854 m 700 1000 l 585 1271 l 725 1271 l 840 1000 l 700 1000 m 435 -21 q 236 30 322 -21 q 103 170 151 81 q 56 375 56 259 q 104 582 56 492 q 238 721 153 671 q 435 771 324 771 q 634 720 548 771 q 767 580 719 669 q 815 375 815 491 q 767 169 815 258 q 633 30 719 80 q 435 -21 547 -21 m 435 156 q 570 217 526 156 q 615 375 615 278 q 570 535 615 475 q 435 594 524 594 q 333 567 373 594 q 275 490 294 539 q 256 375 256 440 q 301 215 256 274 q 435 156 347 156 z "},"ổ":{"ha":871,"x_min":56,"x_max":928,"o":"m 155 854 l 355 1083 l 510 1083 l 710 854 l 537 854 l 433 979 l 328 854 l 155 854 m 677 1060 l 631 1152 q 730 1198 674 1189 q 837 1184 787 1208 q 910 1099 887 1161 q 920 1008 928 1049 q 886 936 913 967 q 825 889 860 906 q 754 869 790 872 l 725 945 q 789 982 763 955 q 797 1049 816 1008 q 764 1081 785 1076 q 719 1079 743 1086 q 677 1060 696 1072 m 435 -21 q 236 30 322 -21 q 103 170 151 81 q 56 375 56 259 q 104 582 56 492 q 238 721 153 671 q 435 771 324 771 q 634 720 548 771 q 767 580 719 669 q 815 375 815 491 q 767 169 815 258 q 633 30 719 80 q 435 -21 547 -21 m 435 156 q 570 217 526 156 q 615 375 615 278 q 570 535 615 475 q 435 594 524 594 q 333 567 373 594 q 275 490 294 539 q 256 375 256 440 q 301 215 256 274 q 435 156 347 156 z "},"ỗ":{"ha":871,"x_min":56,"x_max":815,"o":"m 178 854 l 378 1083 l 533 1083 l 733 854 l 560 854 l 456 979 l 351 854 l 178 854 m 583 1118 q 518 1134 549 1118 q 459 1169 488 1149 q 407 1205 431 1190 q 363 1221 383 1221 q 334 1198 342 1221 q 335 1139 326 1174 l 218 1139 q 227 1293 197 1230 q 344 1356 257 1356 q 409 1340 378 1356 q 468 1304 440 1324 q 521 1268 497 1284 q 565 1253 545 1253 q 594 1276 586 1253 q 593 1335 603 1299 l 710 1335 q 701 1181 732 1244 q 583 1118 671 1118 m 435 -21 q 236 30 322 -21 q 103 170 151 81 q 56 375 56 259 q 104 582 56 492 q 238 721 153 671 q 435 771 324 771 q 634 720 548 771 q 767 580 719 669 q 815 375 815 491 q 767 169 815 258 q 633 30 719 80 q 435 -21 547 -21 m 435 156 q 570 217 526 156 q 615 375 615 278 q 570 535 615 475 q 435 594 524 594 q 333 567 373 594 q 275 490 294 539 q 256 375 256 440 q 301 215 256 274 q 435 156 347 156 z "},"ö":{"ha":871,"x_min":56,"x_max":815,"o":"m 500 856 l 500 1022 l 667 1022 l 667 856 l 500 856 m 206 856 l 206 1022 l 372 1022 l 372 856 l 206 856 m 435 -21 q 236 30 322 -21 q 103 170 151 81 q 56 375 56 259 q 104 582 56 492 q 238 721 153 671 q 435 771 324 771 q 634 720 548 771 q 767 580 719 669 q 815 375 815 491 q 767 169 815 258 q 633 30 719 80 q 435 -21 547 -21 m 435 156 q 570 217 526 156 q 615 375 615 278 q 570 535 615 475 q 435 594 524 594 q 333 567 373 594 q 275 490 294 539 q 256 375 256 440 q 301 215 256 274 q 435 156 347 156 z "},"ọ":{"ha":871,"x_min":56,"x_max":815,"o":"m 341 -271 l 341 -104 l 530 -104 l 530 -271 l 341 -271 m 435 -21 q 236 30 322 -21 q 103 170 151 81 q 56 375 56 259 q 104 582 56 492 q 238 721 153 671 q 435 771 324 771 q 634 720 548 771 q 767 580 719 669 q 815 375 815 491 q 767 169 815 258 q 633 30 719 80 q 435 -21 547 -21 m 435 156 q 570 217 526 156 q 615 375 615 278 q 570 535 615 475 q 435 594 524 594 q 333 567 373 594 q 275 490 294 539 q 256 375 256 440 q 301 215 256 274 q 435 156 347 156 z "},"ò":{"ha":871,"x_min":56,"x_max":815,"o":"m 356 854 l 241 1125 l 381 1125 l 497 854 l 356 854 m 435 -21 q 236 30 322 -21 q 103 170 151 81 q 56 375 56 259 q 104 582 56 492 q 238 721 153 671 q 435 771 324 771 q 634 720 548 771 q 767 580 719 669 q 815 375 815 491 q 767 169 815 258 q 633 30 719 80 q 435 -21 547 -21 m 435 156 q 570 217 526 156 q 615 375 615 278 q 570 535 615 475 q 435 594 524 594 q 333 567 373 594 q 275 490 294 539 q 256 375 256 440 q 301 215 256 274 q 435 156 347 156 z "},"ỏ":{"ha":871,"x_min":56,"x_max":815,"o":"m 346 1065 l 299 1158 q 399 1204 342 1194 q 506 1190 456 1213 q 578 1105 556 1167 q 589 1013 597 1054 q 555 942 581 972 q 494 895 529 912 q 423 875 458 878 l 394 951 q 458 987 431 960 q 466 1055 485 1014 q 433 1086 454 1081 q 388 1085 412 1092 q 346 1065 365 1078 m 435 -21 q 236 30 322 -21 q 103 170 151 81 q 56 375 56 259 q 104 582 56 492 q 238 721 153 671 q 435 771 324 771 q 634 720 548 771 q 767 580 719 669 q 815 375 815 491 q 767 169 815 258 q 633 30 719 80 q 435 -21 547 -21 m 435 156 q 570 217 526 156 q 615 375 615 278 q 570 535 615 475 q 435 594 524 594 q 333 567 373 594 q 275 490 294 539 q 256 375 256 440 q 301 215 256 274 q 435 156 347 156 z "},"ơ":{"ha":871,"x_min":56,"x_max":822,"o":"m 672 874 l 812 875 q 803 741 822 793 q 736 667 784 690 q 631 651 690 646 q 534 680 573 657 l 534 760 q 586 750 565 753 q 627 756 608 747 q 667 805 662 772 q 672 874 672 838 m 435 -21 q 236 30 322 -21 q 103 170 151 81 q 56 375 56 259 q 104 582 56 492 q 238 721 153 671 q 435 771 324 771 q 634 720 548 771 q 767 580 719 669 q 815 375 815 491 q 767 169 815 258 q 633 30 719 80 q 435 -21 547 -21 m 435 156 q 570 217 526 156 q 615 375 615 278 q 570 535 615 475 q 435 594 524 594 q 333 567 373 594 q 275 490 294 539 q 256 375 256 440 q 301 215 256 274 q 435 156 347 156 z "},"ớ":{"ha":871,"x_min":56,"x_max":822,"o":"m 672 874 l 812 875 q 803 741 822 793 q 736 667 784 690 q 631 651 690 646 q 534 680 573 657 l 534 760 q 586 750 565 753 q 627 756 608 747 q 667 805 662 772 q 672 874 672 838 m 508 854 l 367 854 l 483 1125 l 623 1125 l 508 854 m 435 -21 q 236 30 322 -21 q 103 170 151 81 q 56 375 56 259 q 104 582 56 492 q 238 721 153 671 q 435 771 324 771 q 634 720 548 771 q 767 580 719 669 q 815 375 815 491 q 767 169 815 258 q 633 30 719 80 q 435 -21 547 -21 m 435 156 q 570 217 526 156 q 615 375 615 278 q 570 535 615 475 q 435 594 524 594 q 333 567 373 594 q 275 490 294 539 q 256 375 256 440 q 301 215 256 274 q 435 156 347 156 z "},"ợ":{"ha":871,"x_min":56,"x_max":822,"o":"m 356 -271 l 356 -104 l 545 -104 l 545 -271 l 356 -271 m 672 874 l 812 875 q 803 741 822 793 q 736 667 784 690 q 631 651 690 646 q 534 680 573 657 l 534 760 q 586 750 565 753 q 627 756 608 747 q 667 805 662 772 q 672 874 672 838 m 435 -21 q 236 30 322 -21 q 103 170 151 81 q 56 375 56 259 q 104 582 56 492 q 238 721 153 671 q 435 771 324 771 q 634 720 548 771 q 767 580 719 669 q 815 375 815 491 q 767 169 815 258 q 633 30 719 80 q 435 -21 547 -21 m 435 156 q 570 217 526 156 q 615 375 615 278 q 570 535 615 475 q 435 594 524 594 q 333 567 373 594 q 275 490 294 539 q 256 375 256 440 q 301 215 256 274 q 435 156 347 156 z "},"ờ":{"ha":871,"x_min":56,"x_max":822,"o":"m 672 874 l 812 875 q 803 741 822 793 q 736 667 784 690 q 631 651 690 646 q 534 680 573 657 l 534 760 q 586 750 565 753 q 627 756 608 747 q 667 805 662 772 q 672 874 672 838 m 356 854 l 241 1125 l 381 1125 l 497 854 l 356 854 m 435 -21 q 236 30 322 -21 q 103 170 151 81 q 56 375 56 259 q 104 582 56 492 q 238 721 153 671 q 435 771 324 771 q 634 720 548 771 q 767 580 719 669 q 815 375 815 491 q 767 169 815 258 q 633 30 719 80 q 435 -21 547 -21 m 435 156 q 570 217 526 156 q 615 375 615 278 q 570 535 615 475 q 435 594 524 594 q 333 567 373 594 q 275 490 294 539 q 256 375 256 440 q 301 215 256 274 q 435 156 347 156 z "},"ở":{"ha":871,"x_min":56,"x_max":822,"o":"m 346 1065 l 299 1158 q 399 1204 342 1194 q 506 1190 456 1213 q 578 1105 556 1167 q 589 1013 597 1054 q 555 942 581 972 q 494 895 529 912 q 423 875 458 878 l 394 951 q 458 987 431 960 q 466 1055 485 1014 q 433 1086 454 1081 q 388 1085 412 1092 q 346 1065 365 1078 m 672 874 l 812 875 q 803 741 822 793 q 736 667 784 690 q 631 651 690 646 q 534 680 573 657 l 534 760 q 586 750 565 753 q 627 756 608 747 q 667 805 662 772 q 672 874 672 838 m 435 -21 q 236 30 322 -21 q 103 170 151 81 q 56 375 56 259 q 104 582 56 492 q 238 721 153 671 q 435 771 324 771 q 634 720 548 771 q 767 580 719 669 q 815 375 815 491 q 767 169 815 258 q 633 30 719 80 q 435 -21 547 -21 m 435 156 q 570 217 526 156 q 615 375 615 278 q 570 535 615 475 q 435 594 524 594 q 333 567 373 594 q 275 490 294 539 q 256 375 256 440 q 301 215 256 274 q 435 156 347 156 z "},"ỡ":{"ha":871,"x_min":56,"x_max":822,"o":"m 569 858 q 505 874 535 858 q 445 910 474 890 q 393 945 417 930 q 349 961 369 961 q 320 938 328 961 q 321 879 312 915 l 204 879 q 213 1033 183 970 q 331 1096 243 1096 q 395 1080 365 1096 q 455 1044 426 1065 q 507 1009 483 1024 q 551 993 531 993 q 581 1016 572 993 q 579 1075 589 1040 l 696 1075 q 688 922 718 985 q 569 858 657 858 m 672 874 l 812 875 q 803 741 822 793 q 736 667 784 690 q 631 651 690 646 q 534 680 573 657 l 534 760 q 586 750 565 753 q 627 756 608 747 q 667 805 662 772 q 672 874 672 838 m 435 -21 q 236 30 322 -21 q 103 170 151 81 q 56 375 56 259 q 104 582 56 492 q 238 721 153 671 q 435 771 324 771 q 634 720 548 771 q 767 580 719 669 q 815 375 815 491 q 767 169 815 258 q 633 30 719 80 q 435 -21 547 -21 m 435 156 q 570 217 526 156 q 615 375 615 278 q 570 535 615 475 q 435 594 524 594 q 333 567 373 594 q 275 490 294 539 q 256 375 256 440 q 301 215 256 274 q 435 156 347 156 z "},"ő":{"ha":871,"x_min":56,"x_max":815,"o":"m 636 854 l 496 854 l 611 1125 l 751 1125 l 636 854 m 342 854 l 201 854 l 317 1125 l 457 1125 l 342 854 m 435 -21 q 236 30 322 -21 q 103 170 151 81 q 56 375 56 259 q 104 582 56 492 q 238 721 153 671 q 435 771 324 771 q 634 720 548 771 q 767 580 719 669 q 815 375 815 491 q 767 169 815 258 q 633 30 719 80 q 435 -21 547 -21 m 435 156 q 570 217 526 156 q 615 375 615 278 q 570 535 615 475 q 435 594 524 594 q 333 567 373 594 q 275 490 294 539 q 256 375 256 440 q 301 215 256 274 q 435 156 347 156 z "},"ō":{"ha":871,"x_min":56,"x_max":815,"o":"m 247 917 l 247 1061 l 625 1061 l 625 917 l 247 917 m 435 -21 q 236 30 322 -21 q 103 170 151 81 q 56 375 56 259 q 104 582 56 492 q 238 721 153 671 q 435 771 324 771 q 634 720 548 771 q 767 580 719 669 q 815 375 815 491 q 767 169 815 258 q 633 30 719 80 q 435 -21 547 -21 m 435 156 q 570 217 526 156 q 615 375 615 278 q 570 535 615 475 q 435 594 524 594 q 333 567 373 594 q 275 490 294 539 q 256 375 256 440 q 301 215 256 274 q 435 156 347 156 z "},"ø":{"ha":871,"x_min":39,"x_max":832,"o":"m 164 -21 l 39 104 l 165 231 l 222 258 l 578 613 l 592 656 l 707 771 l 832 644 l 711 525 l 665 507 l 317 158 l 282 97 l 164 -21 m 435 -21 q 236 30 322 -21 q 103 170 151 81 q 56 375 56 259 q 104 582 56 492 q 238 721 153 671 q 435 771 324 771 q 634 720 548 771 q 767 580 719 669 q 815 375 815 491 q 767 169 815 258 q 633 30 719 80 q 435 -21 547 -21 m 435 156 q 570 217 526 156 q 615 375 615 278 q 570 535 615 475 q 435 594 524 594 q 333 567 373 594 q 275 490 294 539 q 256 375 256 440 q 301 215 256 274 q 435 156 347 156 z "},"õ":{"ha":871,"x_min":56,"x_max":815,"o":"m 556 858 q 491 874 522 858 q 432 910 460 890 q 379 945 403 930 q 335 961 355 961 q 306 938 314 961 q 307 879 298 915 l 190 879 q 199 1033 169 970 q 317 1096 229 1096 q 382 1080 351 1096 q 441 1044 413 1065 q 493 1009 469 1024 q 538 993 517 993 q 567 1016 558 993 q 565 1075 575 1040 l 682 1075 q 674 922 704 985 q 556 858 643 858 m 435 -21 q 236 30 322 -21 q 103 170 151 81 q 56 375 56 259 q 104 582 56 492 q 238 721 153 671 q 435 771 324 771 q 634 720 548 771 q 767 580 719 669 q 815 375 815 491 q 767 169 815 258 q 633 30 719 80 q 435 -21 547 -21 m 435 156 q 570 217 526 156 q 615 375 615 278 q 570 535 615 475 q 435 594 524 594 q 333 567 373 594 q 275 490 294 539 q 256 375 256 440 q 301 215 256 274 q 435 156 347 156 z "},"œ":{"ha":1404,"x_min":56,"x_max":1357,"o":"m 1006 -21 q 802 29 890 -21 q 665 166 715 78 q 615 365 615 253 q 664 579 615 488 q 798 720 713 670 q 994 771 883 771 q 1195 715 1113 771 q 1317 559 1278 660 q 1345 322 1357 458 l 1158 322 l 1158 392 q 1122 557 1158 506 q 1003 607 1085 607 q 861 548 906 607 q 815 375 815 490 q 861 213 815 270 q 994 156 906 156 q 1090 180 1050 156 q 1150 250 1129 204 l 1339 196 q 1205 36 1297 93 q 1006 -21 1114 -21 m 757 322 l 757 463 l 1254 463 l 1254 322 l 757 322 m 435 -21 q 236 30 322 -21 q 103 170 151 81 q 56 375 56 259 q 104 582 56 492 q 238 721 153 671 q 435 771 324 771 q 634 720 548 771 q 767 580 719 669 q 815 375 815 491 q 767 169 815 258 q 633 30 719 80 q 435 -21 547 -21 m 435 156 q 570 217 526 156 q 615 375 615 278 q 570 535 615 475 q 435 594 524 594 q 333 567 373 594 q 275 490 294 539 q 256 375 256 440 q 301 215 256 274 q 435 156 347 156 z "},"p":{"ha":867,"x_min":96,"x_max":811,"o":"m 465 -21 q 278 31 353 -21 q 166 173 203 83 q 128 375 128 263 q 165 577 128 488 q 276 719 203 667 q 456 771 349 771 q 643 719 563 771 q 767 579 723 668 q 811 375 811 490 q 768 173 811 263 q 647 31 724 83 q 465 -21 569 -21 m 96 -333 l 96 750 l 263 750 l 263 236 l 286 236 l 286 -333 l 96 -333 m 435 147 q 535 178 496 147 q 592 260 574 208 q 611 375 611 312 q 592 489 611 438 q 532 572 572 541 q 428 603 491 603 q 332 574 369 603 q 279 494 296 546 q 263 375 263 443 q 279 256 263 307 q 334 176 296 204 q 435 147 372 147 z "},"þ":{"ha":867,"x_min":96,"x_max":811,"o":"m 97 600 l 97 1000 l 288 1000 l 288 600 l 97 600 m 465 -21 q 278 31 353 -21 q 166 173 203 83 q 128 375 128 263 q 165 577 128 488 q 276 719 203 667 q 456 771 349 771 q 643 719 563 771 q 767 579 723 668 q 811 375 811 490 q 768 173 811 263 q 647 31 724 83 q 465 -21 569 -21 m 96 -333 l 96 750 l 263 750 l 263 236 l 286 236 l 286 -333 l 96 -333 m 435 147 q 535 178 496 147 q 592 260 574 208 q 611 375 611 312 q 592 489 611 438 q 532 572 572 541 q 428 603 491 603 q 332 574 369 603 q 279 494 296 546 q 263 375 263 443 q 279 256 263 307 q 334 176 296 204 q 435 147 372 147 z "},"q":{"ha":868,"x_min":56,"x_max":771,"o":"m 401 -21 q 220 31 298 -21 q 99 173 142 83 q 56 375 56 263 q 100 579 56 490 q 224 719 144 668 q 411 771 303 771 q 591 719 518 771 q 701 577 664 667 q 739 375 739 488 q 701 173 739 263 q 588 31 663 83 q 401 -21 513 -21 m 432 147 q 533 176 495 147 q 588 256 571 204 q 604 375 604 307 q 588 494 604 443 q 534 574 571 546 q 439 603 498 603 q 335 572 376 603 q 275 489 294 541 q 256 375 256 438 q 274 260 256 312 q 332 178 293 208 q 432 147 371 147 m 581 -333 l 581 236 l 604 236 l 604 750 l 771 750 l 771 -333 l 581 -333 z "},"r":{"ha":572,"x_min":97,"x_max":538,"o":"m 97 0 l 97 750 l 264 750 l 264 567 l 246 590 q 285 661 260 629 q 344 714 309 693 q 403 740 372 731 q 469 752 435 749 q 538 750 503 754 l 538 574 q 465 580 506 583 q 390 561 424 577 q 334 520 357 546 q 299 461 311 495 q 288 383 288 426 l 288 0 l 97 0 z "},"ŕ":{"ha":572,"x_min":97,"x_max":538,"o":"m 348 854 l 208 854 l 323 1125 l 463 1125 l 348 854 m 97 0 l 97 750 l 264 750 l 264 567 l 246 590 q 285 661 260 629 q 344 714 309 693 q 403 740 372 731 q 469 752 435 749 q 538 750 503 754 l 538 574 q 465 580 506 583 q 390 561 424 577 q 334 520 357 546 q 299 461 311 495 q 288 383 288 426 l 288 0 l 97 0 z "},"ř":{"ha":572,"x_min":38,"x_max":593,"o":"m 38 1083 l 211 1083 l 315 958 l 419 1083 l 593 1083 l 393 854 l 238 854 l 38 1083 m 97 0 l 97 750 l 264 750 l 264 567 l 246 590 q 285 661 260 629 q 344 714 309 693 q 403 740 372 731 q 469 752 435 749 q 538 750 503 754 l 538 574 q 465 580 506 583 q 390 561 424 577 q 334 520 357 546 q 299 461 311 495 q 288 383 288 426 l 288 0 l 97 0 z "},"ŗ":{"ha":572,"x_min":97,"x_max":538,"o":"m 104 -437 l 104 -358 q 139 -354 115 -358 q 183 -333 163 -349 q 203 -282 203 -317 l 104 -282 l 104 -104 l 282 -104 l 282 -282 q 233 -394 282 -351 q 104 -437 183 -437 m 97 0 l 97 750 l 264 750 l 264 567 l 246 590 q 285 661 260 629 q 344 714 309 693 q 403 740 372 731 q 469 752 435 749 q 538 750 503 754 l 538 574 q 465 580 506 583 q 390 561 424 577 q 334 520 357 546 q 299 461 311 495 q 288 383 288 426 l 288 0 l 97 0 z "},"s":{"ha":760,"x_min":56,"x_max":704,"o":"m 390 -21 q 161 43 249 -21 q 56 225 74 108 l 249 254 q 301 172 260 201 q 404 142 342 142 q 483 161 456 142 q 511 217 511 181 q 500 252 511 239 q 450 279 489 266 q 331 314 412 292 q 184 367 239 338 q 105 436 129 396 q 81 535 81 477 q 117 660 81 607 q 221 742 154 713 q 379 771 288 771 q 535 744 467 771 q 645 667 603 717 q 697 549 688 617 l 504 514 q 468 580 499 556 q 383 608 437 604 q 300 594 331 612 q 268 544 268 577 q 282 512 268 525 q 338 485 295 499 q 468 449 381 471 q 605 397 553 426 q 681 326 657 367 q 704 226 704 285 q 621 45 704 111 q 390 -21 538 -21 z "},"ś":{"ha":760,"x_min":56,"x_max":704,"o":"m 449 854 l 308 854 l 424 1125 l 564 1125 l 449 854 m 390 -21 q 161 43 249 -21 q 56 225 74 108 l 249 254 q 301 172 260 201 q 404 142 342 142 q 483 161 456 142 q 511 217 511 181 q 500 252 511 239 q 450 279 489 266 q 331 314 412 292 q 184 367 239 338 q 105 436 129 396 q 81 535 81 477 q 117 660 81 607 q 221 742 154 713 q 379 771 288 771 q 535 744 467 771 q 645 667 603 717 q 697 549 688 617 l 504 514 q 468 580 499 556 q 383 608 437 604 q 300 594 331 612 q 268 544 268 577 q 282 512 268 525 q 338 485 295 499 q 468 449 381 471 q 605 397 553 426 q 681 326 657 367 q 704 226 704 285 q 621 45 704 111 q 390 -21 538 -21 z "},"š":{"ha":760,"x_min":56,"x_max":704,"o":"m 110 1083 l 283 1083 l 388 958 l 492 1083 l 665 1083 l 465 854 l 310 854 l 110 1083 m 390 -21 q 161 43 249 -21 q 56 225 74 108 l 249 254 q 301 172 260 201 q 404 142 342 142 q 483 161 456 142 q 511 217 511 181 q 500 252 511 239 q 450 279 489 266 q 331 314 412 292 q 184 367 239 338 q 105 436 129 396 q 81 535 81 477 q 117 660 81 607 q 221 742 154 713 q 379 771 288 771 q 535 744 467 771 q 645 667 603 717 q 697 549 688 617 l 504 514 q 468 580 499 556 q 383 608 437 604 q 300 594 331 612 q 268 544 268 577 q 282 512 268 525 q 338 485 295 499 q 468 449 381 471 q 605 397 553 426 q 681 326 657 367 q 704 226 704 285 q 621 45 704 111 q 390 -21 538 -21 z "},"ş":{"ha":760,"x_min":56,"x_max":704,"o":"m 369 -336 q 316 -328 340 -336 q 271 -310 292 -321 l 311 -201 q 353 -210 338 -210 q 382 -199 372 -210 q 392 -178 392 -189 q 365 -141 392 -153 q 301 -118 338 -128 l 350 24 l 460 25 l 435 -50 q 498 -104 476 -71 q 519 -182 519 -137 q 475 -293 519 -251 q 369 -336 430 -336 m 390 -21 q 161 43 249 -21 q 56 225 74 108 l 249 254 q 301 172 260 201 q 404 142 342 142 q 483 161 456 142 q 511 217 511 181 q 500 252 511 239 q 450 279 489 266 q 331 314 412 292 q 184 367 239 338 q 105 436 129 396 q 81 535 81 477 q 117 660 81 607 q 221 742 154 713 q 379 771 288 771 q 535 744 467 771 q 645 667 603 717 q 697 549 688 617 l 504 514 q 468 580 499 556 q 383 608 437 604 q 300 594 331 612 q 268 544 268 577 q 282 512 268 525 q 338 485 295 499 q 468 449 381 471 q 605 397 553 426 q 681 326 657 367 q 704 226 704 285 q 621 45 704 111 q 390 -21 538 -21 z "},"ŝ":{"ha":760,"x_min":56,"x_max":704,"o":"m 113 854 l 313 1083 l 469 1083 l 669 854 l 495 854 l 391 979 l 287 854 l 113 854 m 390 -21 q 161 43 249 -21 q 56 225 74 108 l 249 254 q 301 172 260 201 q 404 142 342 142 q 483 161 456 142 q 511 217 511 181 q 500 252 511 239 q 450 279 489 266 q 331 314 412 292 q 184 367 239 338 q 105 436 129 396 q 81 535 81 477 q 117 660 81 607 q 221 742 154 713 q 379 771 288 771 q 535 744 467 771 q 645 667 603 717 q 697 549 688 617 l 504 514 q 468 580 499 556 q 383 608 437 604 q 300 594 331 612 q 268 544 268 577 q 282 512 268 525 q 338 485 295 499 q 468 449 381 471 q 605 397 553 426 q 681 326 657 367 q 704 226 704 285 q 621 45 704 111 q 390 -21 538 -21 z "},"ș":{"ha":760,"x_min":56,"x_max":704,"o":"m 301 -437 l 301 -358 q 336 -354 313 -358 q 380 -333 360 -349 q 400 -282 400 -317 l 301 -282 l 301 -104 l 479 -104 l 479 -282 q 430 -394 479 -351 q 301 -437 381 -437 m 390 -21 q 161 43 249 -21 q 56 225 74 108 l 249 254 q 301 172 260 201 q 404 142 342 142 q 483 161 456 142 q 511 217 511 181 q 500 252 511 239 q 450 279 489 266 q 331 314 412 292 q 184 367 239 338 q 105 436 129 396 q 81 535 81 477 q 117 660 81 607 q 221 742 154 713 q 379 771 288 771 q 535 744 467 771 q 645 667 603 717 q 697 549 688 617 l 504 514 q 468 580 499 556 q 383 608 437 604 q 300 594 331 612 q 268 544 268 577 q 282 512 268 525 q 338 485 295 499 q 468 449 381 471 q 605 397 553 426 q 681 326 657 367 q 704 226 704 285 q 621 45 704 111 q 390 -21 538 -21 z "},"ß":{"ha":897,"x_min":96,"x_max":814,"o":"m 493 -21 q 418 -16 447 -21 q 364 0 388 -10 l 364 185 q 408 171 382 178 q 465 164 433 164 q 582 197 538 164 q 625 300 625 231 q 567 413 625 379 q 415 447 508 447 l 415 611 q 486 629 458 614 q 530 669 515 644 q 544 731 544 695 q 504 815 544 785 q 414 844 464 844 q 352 832 381 844 q 304 786 323 819 q 291 742 295 769 q 286 685 286 715 l 286 0 l 96 0 l 96 736 q 98 783 96 763 q 107 825 101 804 q 175 938 128 895 q 284 1001 222 981 q 414 1021 347 1021 q 576 983 503 1021 q 692 881 649 946 q 735 735 735 816 q 717 636 735 682 q 663 554 700 590 q 727 514 699 539 q 775 455 756 488 q 804 381 794 421 q 814 297 814 341 q 731 64 814 149 q 493 -21 649 -21 z "},"t":{"ha":617,"x_min":14,"x_max":547,"o":"m 547 0 q 395 -13 469 -15 q 261 14 320 -11 q 172 93 203 38 q 143 198 144 144 q 142 318 142 251 l 142 958 l 331 958 l 331 329 q 332 250 331 285 q 346 194 333 215 q 426 151 371 155 q 547 157 481 148 l 547 0 m 14 604 l 14 750 l 547 750 l 547 604 l 14 604 z "},"ŧ":{"ha":644,"x_min":14,"x_max":575,"o":"m 14 317 l 14 463 l 575 463 l 575 317 l 14 317 m 547 0 q 395 -13 469 -15 q 261 14 320 -11 q 172 93 203 38 q 143 198 144 144 q 142 318 142 251 l 142 958 l 331 958 l 331 329 q 332 250 331 285 q 346 194 333 215 q 426 151 371 155 q 547 157 481 148 l 547 0 m 14 604 l 14 750 l 547 750 l 547 604 l 14 604 z "},"ť":{"ha":617,"x_min":14,"x_max":675,"o":"m 547 0 q 395 -13 469 -15 q 261 14 320 -11 q 172 93 203 38 q 143 198 144 144 q 142 318 142 251 l 142 958 l 331 958 l 331 329 q 332 250 331 285 q 346 194 333 215 q 426 151 371 155 q 547 157 481 148 l 547 0 m 14 604 l 14 750 l 547 750 l 547 604 l 14 604 m 486 833 l 497 913 q 551 923 531 910 q 580 962 572 937 q 583 1021 588 988 l 486 1021 l 486 1210 l 675 1210 l 675 1021 q 628 869 675 921 q 486 833 582 818 z "},"ţ":{"ha":617,"x_min":14,"x_max":547,"o":"m 328 -336 q 274 -328 299 -336 q 229 -310 250 -321 l 269 -201 q 311 -210 297 -210 q 340 -199 330 -210 q 350 -178 350 -189 q 323 -141 350 -153 q 260 -118 297 -128 l 308 24 l 418 25 l 393 -50 q 456 -104 434 -71 q 478 -182 478 -137 q 433 -293 478 -251 q 328 -336 388 -336 m 547 0 q 395 -13 469 -15 q 261 14 320 -11 q 172 93 203 38 q 143 198 144 144 q 142 318 142 251 l 142 958 l 331 958 l 331 329 q 332 250 331 285 q 346 194 333 215 q 426 151 371 155 q 547 157 481 148 l 547 0 m 14 604 l 14 750 l 547 750 l 547 604 l 14 604 z "},"ț":{"ha":617,"x_min":14,"x_max":547,"o":"m 258 -437 l 258 -358 q 293 -354 269 -358 q 337 -333 317 -349 q 357 -282 357 -317 l 258 -282 l 258 -104 l 436 -104 l 436 -282 q 387 -394 436 -351 q 258 -437 338 -437 m 547 0 q 395 -13 469 -15 q 261 14 320 -11 q 172 93 203 38 q 143 198 144 144 q 142 318 142 251 l 142 958 l 331 958 l 331 329 q 332 250 331 285 q 346 194 333 215 q 426 151 371 155 q 547 157 481 148 l 547 0 m 14 604 l 14 750 l 547 750 l 547 604 l 14 604 z "},"u":{"ha":883,"x_min":83,"x_max":786,"o":"m 376 -22 q 233 8 288 -22 q 146 83 177 38 q 102 179 115 129 q 86 269 89 228 q 83 329 83 310 l 83 750 l 275 750 l 275 396 q 278 330 275 370 q 295 250 281 290 q 343 183 310 210 q 436 156 376 156 q 488 163 460 156 q 540 193 516 171 q 580 257 565 215 q 596 369 596 300 l 704 318 q 668 151 704 229 q 559 26 632 74 q 376 -22 487 -22 m 619 0 l 619 249 l 596 249 l 596 750 l 786 750 l 786 0 l 619 0 z "},"ú":{"ha":883,"x_min":83,"x_max":786,"o":"m 497 854 l 356 854 l 472 1125 l 612 1125 l 497 854 m 376 -22 q 233 8 288 -22 q 146 83 177 38 q 102 179 115 129 q 86 269 89 228 q 83 329 83 310 l 83 750 l 275 750 l 275 396 q 278 330 275 370 q 295 250 281 290 q 343 183 310 210 q 436 156 376 156 q 488 163 460 156 q 540 193 516 171 q 580 257 565 215 q 596 369 596 300 l 704 318 q 668 151 704 229 q 559 26 632 74 q 376 -22 487 -22 m 619 0 l 619 249 l 596 249 l 596 750 l 786 750 l 786 0 l 619 0 z "},"ŭ":{"ha":883,"x_min":83,"x_max":786,"o":"m 435 833 q 324 863 374 833 q 244 943 274 893 q 214 1054 214 993 l 360 1054 q 382 1001 360 1023 q 435 979 403 979 q 488 1001 466 979 q 510 1054 510 1023 l 656 1054 q 626 943 656 993 q 546 863 596 893 q 435 833 496 833 m 376 -22 q 233 8 288 -22 q 146 83 177 38 q 102 179 115 129 q 86 269 89 228 q 83 329 83 310 l 83 750 l 275 750 l 275 396 q 278 330 275 370 q 295 250 281 290 q 343 183 310 210 q 436 156 376 156 q 488 163 460 156 q 540 193 516 171 q 580 257 565 215 q 596 369 596 300 l 704 318 q 668 151 704 229 q 559 26 632 74 q 376 -22 487 -22 m 619 0 l 619 249 l 596 249 l 596 750 l 786 750 l 786 0 l 619 0 z "},"û":{"ha":883,"x_min":83,"x_max":786,"o":"m 154 854 l 354 1083 l 510 1083 l 710 854 l 536 854 l 432 979 l 328 854 l 154 854 m 376 -22 q 233 8 288 -22 q 146 83 177 38 q 102 179 115 129 q 86 269 89 228 q 83 329 83 310 l 83 750 l 275 750 l 275 396 q 278 330 275 370 q 295 250 281 290 q 343 183 310 210 q 436 156 376 156 q 488 163 460 156 q 540 193 516 171 q 580 257 565 215 q 596 369 596 300 l 704 318 q 668 151 704 229 q 559 26 632 74 q 376 -22 487 -22 m 619 0 l 619 249 l 596 249 l 596 750 l 786 750 l 786 0 l 619 0 z "},"ü":{"ha":883,"x_min":83,"x_max":786,"o":"m 499 856 l 499 1022 l 665 1022 l 665 856 l 499 856 m 204 856 l 204 1022 l 371 1022 l 371 856 l 204 856 m 376 -22 q 233 8 288 -22 q 146 83 177 38 q 102 179 115 129 q 86 269 89 228 q 83 329 83 310 l 83 750 l 275 750 l 275 396 q 278 330 275 370 q 295 250 281 290 q 343 183 310 210 q 436 156 376 156 q 488 163 460 156 q 540 193 516 171 q 580 257 565 215 q 596 369 596 300 l 704 318 q 668 151 704 229 q 559 26 632 74 q 376 -22 487 -22 m 619 0 l 619 249 l 596 249 l 596 750 l 786 750 l 786 0 l 619 0 z "},"ụ":{"ha":883,"x_min":83,"x_max":786,"o":"m 349 -271 l 349 -104 l 538 -104 l 538 -271 l 349 -271 m 376 -22 q 233 8 288 -22 q 146 83 177 38 q 102 179 115 129 q 86 269 89 228 q 83 329 83 310 l 83 750 l 275 750 l 275 396 q 278 330 275 370 q 295 250 281 290 q 343 183 310 210 q 436 156 376 156 q 488 163 460 156 q 540 193 516 171 q 580 257 565 215 q 596 369 596 300 l 704 318 q 668 151 704 229 q 559 26 632 74 q 376 -22 487 -22 m 619 0 l 619 249 l 596 249 l 596 750 l 786 750 l 786 0 l 619 0 z "},"ù":{"ha":883,"x_min":83,"x_max":786,"o":"m 363 854 l 247 1125 l 388 1125 l 503 854 l 363 854 m 376 -22 q 233 8 288 -22 q 146 83 177 38 q 102 179 115 129 q 86 269 89 228 q 83 329 83 310 l 83 750 l 275 750 l 275 396 q 278 330 275 370 q 295 250 281 290 q 343 183 310 210 q 436 156 376 156 q 488 163 460 156 q 540 193 516 171 q 580 257 565 215 q 596 369 596 300 l 704 318 q 668 151 704 229 q 559 26 632 74 q 376 -22 487 -22 m 619 0 l 619 249 l 596 249 l 596 750 l 786 750 l 786 0 l 619 0 z "},"ủ":{"ha":883,"x_min":83,"x_max":786,"o":"m 346 1065 l 299 1158 q 399 1204 342 1194 q 506 1190 456 1213 q 578 1105 556 1167 q 589 1013 597 1054 q 555 942 581 972 q 494 895 529 912 q 423 875 458 878 l 394 951 q 458 987 431 960 q 466 1055 485 1014 q 433 1086 454 1081 q 388 1085 412 1092 q 346 1065 365 1078 m 376 -22 q 233 8 288 -22 q 146 83 177 38 q 102 179 115 129 q 86 269 89 228 q 83 329 83 310 l 83 750 l 275 750 l 275 396 q 278 330 275 370 q 295 250 281 290 q 343 183 310 210 q 436 156 376 156 q 488 163 460 156 q 540 193 516 171 q 580 257 565 215 q 596 369 596 300 l 704 318 q 668 151 704 229 q 559 26 632 74 q 376 -22 487 -22 m 619 0 l 619 249 l 596 249 l 596 750 l 786 750 l 786 0 l 619 0 z "},"ư":{"ha":883,"x_min":83,"x_max":934,"o":"m 783 874 l 924 875 q 914 744 934 793 q 849 671 893 695 q 747 645 803 646 q 646 650 690 645 l 646 750 q 675 750 661 750 q 701 753 688 751 q 770 798 756 762 q 783 874 783 833 m 376 -22 q 233 8 288 -22 q 146 83 177 38 q 102 179 115 129 q 86 269 89 228 q 83 329 83 310 l 83 750 l 275 750 l 275 396 q 278 330 275 370 q 295 250 281 290 q 343 183 310 210 q 436 156 376 156 q 488 163 460 156 q 540 193 516 171 q 580 257 565 215 q 596 369 596 300 l 704 318 q 668 151 704 229 q 559 26 632 74 q 376 -22 487 -22 m 619 0 l 619 249 l 596 249 l 596 750 l 786 750 l 786 0 l 619 0 z "},"ứ":{"ha":883,"x_min":83,"x_max":934,"o":"m 783 874 l 924 875 q 914 744 934 793 q 849 671 893 695 q 747 645 803 646 q 646 650 690 645 l 646 750 q 675 750 661 750 q 701 753 688 751 q 770 798 756 762 q 783 874 783 833 m 497 854 l 356 854 l 472 1125 l 612 1125 l 497 854 m 376 -22 q 233 8 288 -22 q 146 83 177 38 q 102 179 115 129 q 86 269 89 228 q 83 329 83 310 l 83 750 l 275 750 l 275 396 q 278 330 275 370 q 295 250 281 290 q 343 183 310 210 q 436 156 376 156 q 488 163 460 156 q 540 193 516 171 q 580 257 565 215 q 596 369 596 300 l 704 318 q 668 151 704 229 q 559 26 632 74 q 376 -22 487 -22 m 619 0 l 619 249 l 596 249 l 596 750 l 786 750 l 786 0 l 619 0 z "},"ự":{"ha":883,"x_min":83,"x_max":934,"o":"m 783 874 l 924 875 q 914 744 934 793 q 849 671 893 695 q 747 645 803 646 q 646 650 690 645 l 646 750 q 675 750 661 750 q 701 753 688 751 q 770 798 756 762 q 783 874 783 833 m 356 -271 l 356 -104 l 545 -104 l 545 -271 l 356 -271 m 376 -22 q 233 8 288 -22 q 146 83 177 38 q 102 179 115 129 q 86 269 89 228 q 83 329 83 310 l 83 750 l 275 750 l 275 396 q 278 330 275 370 q 295 250 281 290 q 343 183 310 210 q 436 156 376 156 q 488 163 460 156 q 540 193 516 171 q 580 257 565 215 q 596 369 596 300 l 704 318 q 668 151 704 229 q 559 26 632 74 q 376 -22 487 -22 m 619 0 l 619 249 l 596 249 l 596 750 l 786 750 l 786 0 l 619 0 z "},"ừ":{"ha":883,"x_min":83,"x_max":934,"o":"m 783 873 l 924 874 q 914 743 934 792 q 849 669 893 694 q 747 644 803 644 q 646 649 690 644 l 646 749 q 675 749 661 749 q 701 751 688 749 q 770 796 756 760 q 783 873 783 832 m 363 854 l 247 1125 l 388 1125 l 503 854 l 363 854 m 376 -22 q 233 8 288 -22 q 146 83 177 38 q 102 179 115 129 q 86 269 89 228 q 83 329 83 310 l 83 750 l 275 750 l 275 396 q 278 330 275 370 q 295 250 281 290 q 343 183 310 210 q 436 156 376 156 q 488 163 460 156 q 540 193 516 171 q 580 257 565 215 q 596 369 596 300 l 704 318 q 668 151 704 229 q 559 26 632 74 q 376 -22 487 -22 m 619 0 l 619 249 l 596 249 l 596 750 l 786 750 l 786 0 l 619 0 z "},"ử":{"ha":883,"x_min":83,"x_max":934,"o":"m 783 874 l 924 875 q 914 744 934 793 q 849 671 893 695 q 747 645 803 646 q 646 650 690 645 l 646 750 q 675 750 661 750 q 701 753 688 751 q 770 798 756 762 q 783 874 783 833 m 346 1065 l 299 1158 q 399 1204 342 1194 q 506 1190 456 1213 q 578 1105 556 1167 q 589 1013 597 1054 q 555 942 581 972 q 494 895 529 912 q 423 875 458 878 l 394 951 q 458 987 431 960 q 466 1055 485 1014 q 433 1086 454 1081 q 388 1085 412 1092 q 346 1065 365 1078 m 376 -22 q 233 8 288 -22 q 146 83 177 38 q 102 179 115 129 q 86 269 89 228 q 83 329 83 310 l 83 750 l 275 750 l 275 396 q 278 330 275 370 q 295 250 281 290 q 343 183 310 210 q 436 156 376 156 q 488 163 460 156 q 540 193 516 171 q 580 257 565 215 q 596 369 596 300 l 704 318 q 668 151 704 229 q 559 26 632 74 q 376 -22 487 -22 m 619 0 l 619 249 l 596 249 l 596 750 l 786 750 l 786 0 l 619 0 z "},"ữ":{"ha":883,"x_min":83,"x_max":934,"o":"m 783 874 l 924 875 q 914 744 934 793 q 849 671 893 695 q 747 645 803 646 q 646 650 690 645 l 646 750 q 675 750 661 750 q 701 753 688 751 q 770 798 756 762 q 783 874 783 833 m 569 858 q 505 874 535 858 q 445 910 474 890 q 393 945 417 930 q 349 961 369 961 q 320 938 328 961 q 321 879 312 915 l 204 879 q 213 1033 183 970 q 331 1096 243 1096 q 395 1080 365 1096 q 455 1044 426 1065 q 507 1009 483 1024 q 551 993 531 993 q 581 1016 572 993 q 579 1075 589 1040 l 696 1075 q 688 922 718 985 q 569 858 657 858 m 376 -22 q 233 8 288 -22 q 146 83 177 38 q 102 179 115 129 q 86 269 89 228 q 83 329 83 310 l 83 750 l 275 750 l 275 396 q 278 330 275 370 q 295 250 281 290 q 343 183 310 210 q 436 156 376 156 q 488 163 460 156 q 540 193 516 171 q 580 257 565 215 q 596 369 596 300 l 704 318 q 668 151 704 229 q 559 26 632 74 q 376 -22 487 -22 m 619 0 l 619 249 l 596 249 l 596 750 l 786 750 l 786 0 l 619 0 z "},"ű":{"ha":883,"x_min":83,"x_max":786,"o":"m 642 854 l 502 854 l 617 1125 l 758 1125 l 642 854 m 348 854 l 208 854 l 323 1125 l 463 1125 l 348 854 m 376 -22 q 233 8 288 -22 q 146 83 177 38 q 102 179 115 129 q 86 269 89 228 q 83 329 83 310 l 83 750 l 275 750 l 275 396 q 278 330 275 370 q 295 250 281 290 q 343 183 310 210 q 436 156 376 156 q 488 163 460 156 q 540 193 516 171 q 580 257 565 215 q 596 369 596 300 l 704 318 q 668 151 704 229 q 559 26 632 74 q 376 -22 487 -22 m 619 0 l 619 249 l 596 249 l 596 750 l 786 750 l 786 0 l 619 0 z "},"ū":{"ha":883,"x_min":83,"x_max":786,"o":"m 246 917 l 246 1061 l 624 1061 l 624 917 l 246 917 m 376 -22 q 233 8 288 -22 q 146 83 177 38 q 102 179 115 129 q 86 269 89 228 q 83 329 83 310 l 83 750 l 275 750 l 275 396 q 278 330 275 370 q 295 250 281 290 q 343 183 310 210 q 436 156 376 156 q 488 163 460 156 q 540 193 516 171 q 580 257 565 215 q 596 369 596 300 l 704 318 q 668 151 704 229 q 559 26 632 74 q 376 -22 487 -22 m 619 0 l 619 249 l 596 249 l 596 750 l 786 750 l 786 0 l 619 0 z "},"ų":{"ha":883,"x_min":83,"x_max":786,"o":"m 643 -332 q 563 -310 597 -332 q 508 -252 528 -287 q 489 -175 489 -216 q 518 -72 489 -124 q 596 22 547 -21 q 707 92 645 65 l 786 0 q 709 -51 744 -22 q 654 -109 674 -80 q 633 -160 633 -138 q 644 -184 633 -174 q 669 -194 654 -194 q 692 -189 680 -194 q 717 -174 704 -184 l 782 -260 q 720 -313 757 -294 q 643 -332 683 -332 m 376 -22 q 233 8 288 -22 q 146 83 177 38 q 102 179 115 129 q 86 269 89 228 q 83 329 83 310 l 83 750 l 275 750 l 275 396 q 278 330 275 370 q 295 250 281 290 q 343 183 310 210 q 436 156 376 156 q 488 163 460 156 q 540 193 516 171 q 580 257 565 215 q 596 369 596 300 l 704 318 q 668 151 704 229 q 559 26 632 74 q 376 -22 487 -22 m 619 0 l 619 249 l 596 249 l 596 750 l 786 750 l 786 0 l 619 0 z "},"ů":{"ha":883,"x_min":83,"x_max":786,"o":"m 435 826 q 341 852 383 826 q 273 920 298 877 q 247 1014 247 963 q 273 1108 247 1066 q 341 1176 298 1151 q 435 1201 383 1201 q 529 1176 487 1201 q 597 1108 572 1151 q 622 1014 622 1066 q 597 920 622 963 q 529 852 572 877 q 435 826 487 826 m 435 938 q 489 960 467 938 q 511 1014 511 983 q 489 1068 511 1046 q 435 1090 467 1090 q 381 1068 403 1090 q 358 1014 358 1046 q 381 960 358 983 q 435 938 403 938 m 376 -22 q 233 8 288 -22 q 146 83 177 38 q 102 179 115 129 q 86 269 89 228 q 83 329 83 310 l 83 750 l 275 750 l 275 396 q 278 330 275 370 q 295 250 281 290 q 343 183 310 210 q 436 156 376 156 q 488 163 460 156 q 540 193 516 171 q 580 257 565 215 q 596 369 596 300 l 704 318 q 668 151 704 229 q 559 26 632 74 q 376 -22 487 -22 m 619 0 l 619 249 l 596 249 l 596 750 l 786 750 l 786 0 l 619 0 z "},"ũ":{"ha":883,"x_min":83,"x_max":786,"o":"m 376 -22 q 233 8 288 -22 q 146 83 177 38 q 102 179 115 129 q 86 269 89 228 q 83 329 83 310 l 83 750 l 275 750 l 275 396 q 278 330 275 370 q 295 250 281 290 q 343 183 310 210 q 436 156 376 156 q 488 163 460 156 q 540 193 516 171 q 580 257 565 215 q 596 369 596 300 l 704 318 q 668 151 704 229 q 559 26 632 74 q 376 -22 487 -22 m 619 0 l 619 249 l 596 249 l 596 750 l 786 750 l 786 0 l 619 0 m 568 858 q 503 874 534 858 q 444 910 472 890 q 392 945 416 930 q 347 961 367 961 q 318 938 326 961 q 319 879 310 915 l 203 879 q 211 1033 181 970 q 329 1096 242 1096 q 394 1080 363 1096 q 453 1044 425 1065 q 506 1009 481 1024 q 550 993 530 993 q 579 1016 571 993 q 578 1075 588 1040 l 694 1075 q 686 922 717 985 q 568 858 656 858 z "},"v":{"ha":789,"x_min":28,"x_max":761,"o":"m 300 0 l 28 750 l 217 750 l 394 231 l 572 750 l 761 750 l 489 0 l 300 0 z "},"w":{"ha":1131,"x_min":28,"x_max":1103,"o":"m 257 0 l 28 751 l 213 750 l 349 303 l 487 750 l 644 750 l 782 303 l 918 750 l 1103 750 l 874 0 l 729 0 l 565 489 l 401 0 l 257 0 z "},"ẃ":{"ha":1131,"x_min":28,"x_max":1103,"o":"m 644 854 l 504 854 l 619 1125 l 760 1125 l 644 854 m 257 0 l 28 751 l 213 750 l 349 303 l 487 750 l 644 750 l 782 303 l 918 750 l 1103 750 l 874 0 l 729 0 l 565 489 l 401 0 l 257 0 z "},"ŵ":{"ha":1131,"x_min":28,"x_max":1103,"o":"m 285 854 l 485 1083 l 640 1083 l 840 854 l 667 854 l 563 979 l 458 854 l 285 854 m 257 0 l 28 751 l 213 750 l 349 303 l 487 750 l 644 750 l 782 303 l 918 750 l 1103 750 l 874 0 l 729 0 l 565 489 l 401 0 l 257 0 z "},"ẅ":{"ha":1131,"x_min":28,"x_max":1103,"o":"m 629 856 l 629 1022 l 796 1022 l 796 856 l 629 856 m 335 856 l 335 1022 l 501 1022 l 501 856 l 335 856 m 257 0 l 28 751 l 213 750 l 349 303 l 487 750 l 644 750 l 782 303 l 918 750 l 1103 750 l 874 0 l 729 0 l 565 489 l 401 0 l 257 0 z "},"ẁ":{"ha":1131,"x_min":28,"x_max":1103,"o":"m 486 854 l 371 1125 l 511 1125 l 626 854 l 486 854 m 257 0 l 28 751 l 213 750 l 349 303 l 487 750 l 644 750 l 782 303 l 918 750 l 1103 750 l 874 0 l 729 0 l 565 489 l 401 0 l 257 0 z "},"x":{"ha":782,"x_min":14,"x_max":768,"o":"m 14 0 l 282 379 l 19 750 l 242 750 l 392 528 l 539 750 l 761 750 l 499 379 l 768 0 l 546 0 l 392 231 l 236 0 l 14 0 z "},"y":{"ha":792,"x_min":14,"x_max":792,"o":"m 193 -333 l 338 64 l 340 -53 l 14 750 l 210 750 l 429 182 l 385 182 l 603 750 l 792 750 l 368 -333 l 193 -333 z "},"ý":{"ha":792,"x_min":14,"x_max":792,"o":"m 478 854 l 338 854 l 453 1125 l 593 1125 l 478 854 m 193 -333 l 338 64 l 340 -53 l 14 750 l 210 750 l 429 182 l 385 182 l 603 750 l 792 750 l 368 -333 l 193 -333 z "},"ŷ":{"ha":792,"x_min":14,"x_max":792,"o":"m 126 854 l 326 1083 l 482 1083 l 682 854 l 508 854 l 404 979 l 300 854 l 126 854 m 193 -333 l 338 64 l 340 -53 l 14 750 l 210 750 l 429 182 l 385 182 l 603 750 l 792 750 l 368 -333 l 193 -333 z "},"ÿ":{"ha":792,"x_min":14,"x_max":792,"o":"m 469 856 l 469 1022 l 636 1022 l 636 856 l 469 856 m 175 856 l 175 1022 l 342 1022 l 342 856 l 175 856 m 193 -333 l 338 64 l 340 -53 l 14 750 l 210 750 l 429 182 l 385 182 l 603 750 l 792 750 l 368 -333 l 193 -333 z "},"ỵ":{"ha":792,"x_min":14,"x_max":792,"o":"m 556 -271 l 556 -104 l 744 -104 l 744 -271 l 556 -271 m 193 -333 l 338 64 l 340 -53 l 14 750 l 210 750 l 429 182 l 385 182 l 603 750 l 792 750 l 368 -333 l 193 -333 z "},"ỳ":{"ha":792,"x_min":14,"x_max":792,"o":"m 338 854 l 222 1125 l 363 1125 l 478 854 l 338 854 m 193 -333 l 338 64 l 340 -53 l 14 750 l 210 750 l 429 182 l 385 182 l 603 750 l 792 750 l 368 -333 l 193 -333 z "},"ỷ":{"ha":792,"x_min":14,"x_max":792,"o":"m 304 1065 l 258 1158 q 357 1204 301 1194 q 464 1190 414 1213 q 537 1105 514 1167 q 548 1013 556 1054 q 514 942 540 972 q 452 895 488 912 q 381 875 417 878 l 352 951 q 416 987 390 960 q 424 1055 443 1014 q 391 1086 413 1081 q 347 1085 370 1092 q 304 1065 323 1078 m 193 -333 l 338 64 l 340 -53 l 14 750 l 210 750 l 429 182 l 385 182 l 603 750 l 792 750 l 368 -333 l 193 -333 z "},"ỹ":{"ha":792,"x_min":14,"x_max":792,"o":"m 193 -333 l 338 64 l 340 -53 l 14 750 l 210 750 l 429 182 l 385 182 l 603 750 l 792 750 l 368 -333 l 193 -333 m 522 858 q 457 874 488 858 q 398 910 426 890 q 346 945 370 930 q 301 961 322 961 q 273 938 281 961 q 274 879 265 915 l 157 879 q 166 1033 135 970 q 283 1096 196 1096 q 348 1080 317 1096 q 407 1044 379 1065 q 460 1009 435 1024 q 504 993 484 993 q 533 1016 525 993 q 532 1075 542 1040 l 649 1075 q 640 922 671 985 q 522 858 610 858 z "},"z":{"ha":743,"x_min":28,"x_max":688,"o":"m 28 0 l 28 24 l 396 586 l 69 586 l 69 750 l 688 750 l 688 726 l 321 164 l 674 164 l 674 0 l 28 0 z "},"ź":{"ha":743,"x_min":28,"x_max":688,"o":"m 449 854 l 308 854 l 424 1125 l 564 1125 l 449 854 m 28 0 l 28 24 l 396 586 l 69 586 l 69 750 l 688 750 l 688 726 l 321 164 l 674 164 l 674 0 l 28 0 z "},"ž":{"ha":743,"x_min":28,"x_max":688,"o":"m 104 1083 l 278 1083 l 382 958 l 486 1083 l 660 1083 l 460 854 l 304 854 l 104 1083 m 28 0 l 28 24 l 396 586 l 69 586 l 69 750 l 688 750 l 688 726 l 321 164 l 674 164 l 674 0 l 28 0 z "},"ż":{"ha":743,"x_min":28,"x_max":688,"o":"m 294 894 l 294 1083 l 483 1083 l 483 894 l 294 894 m 28 0 l 28 24 l 396 586 l 69 586 l 69 750 l 688 750 l 688 726 l 321 164 l 674 164 l 674 0 l 28 0 z "},"":{"ha":1017,"x_min":42,"x_max":1003,"o":"m 160 0 l 160 747 q 161 812 160 776 q 173 885 163 848 q 210 951 183 922 q 285 1005 244 990 q 364 1020 326 1019 q 429 1021 402 1021 l 522 1021 l 522 868 l 436 868 q 370 845 392 868 q 349 792 349 823 l 349 0 l 160 0 m 42 604 l 42 750 l 522 750 l 522 604 l 42 604 m 640 0 l 640 747 q 642 812 640 776 q 653 885 643 848 q 690 951 663 922 q 766 1005 725 990 q 844 1020 806 1019 q 910 1021 883 1021 l 1003 1021 l 1003 868 l 917 868 q 851 845 872 868 q 829 792 829 823 l 829 0 l 640 0 m 522 604 l 522 750 l 1003 750 l 1003 604 l 522 604 z "},"":{"ha":1468,"x_min":42,"x_max":1357,"o":"m 994 604 l 994 750 l 1175 750 l 1175 604 l 994 604 m 640 0 l 640 747 q 642 812 640 776 q 653 885 643 848 q 690 951 663 922 q 766 1005 725 990 q 844 1020 806 1019 q 910 1021 883 1021 l 1003 1021 l 1003 868 l 917 868 q 851 845 872 868 q 829 792 829 823 l 829 0 l 640 0 m 522 604 l 522 750 l 1003 750 l 1003 604 l 522 604 m 1168 0 l 1168 1021 l 1357 1021 l 1357 0 l 1168 0 m 160 0 l 160 747 q 161 812 160 776 q 173 885 163 848 q 210 951 183 922 q 285 1005 244 990 q 364 1020 326 1019 q 429 1021 402 1021 l 522 1021 l 522 868 l 436 868 q 370 845 392 868 q 349 792 349 823 l 349 0 l 160 0 m 42 604 l 42 750 l 522 750 l 522 604 l 42 604 z "},"ﬁ":{"ha":968,"x_min":42,"x_max":857,"o":"m 160 0 l 160 747 q 161 812 160 776 q 173 885 163 848 q 210 951 183 922 q 285 1005 244 990 q 364 1020 326 1019 q 429 1021 402 1021 l 522 1021 l 522 868 l 436 868 q 370 845 392 868 q 349 792 349 823 l 349 0 l 160 0 m 42 604 l 42 750 l 522 750 l 522 604 l 42 604 m 668 854 l 668 1021 l 857 1021 l 857 854 l 668 854 m 668 0 l 668 750 l 857 750 l 857 0 l 668 0 z "},"ﬂ":{"ha":988,"x_min":42,"x_max":876,"o":"m 514 604 l 514 750 l 694 750 l 694 604 l 514 604 m 160 0 l 160 747 q 161 812 160 776 q 173 885 163 848 q 210 951 183 922 q 285 1005 244 990 q 364 1020 326 1019 q 429 1021 402 1021 l 522 1021 l 522 868 l 436 868 q 370 845 392 868 q 349 792 349 823 l 349 0 l 160 0 m 42 604 l 42 750 l 522 750 l 522 604 l 42 604 m 688 0 l 688 1021 l 876 1021 l 876 0 l 688 0 z "},"":{"ha":1150,"x_min":14,"x_max":1081,"o":"m 547 0 q 395 -13 469 -15 q 261 14 320 -11 q 172 93 203 38 q 143 198 144 144 q 142 318 142 251 l 142 958 l 331 958 l 331 329 q 332 250 331 285 q 346 194 333 215 q 426 151 371 155 q 547 157 481 148 l 547 0 m 14 604 l 14 750 l 547 750 l 547 604 l 14 604 m 1081 0 q 928 -13 1003 -15 q 795 14 853 -11 q 706 93 736 38 q 676 198 678 144 q 675 318 675 251 l 675 958 l 864 958 l 864 329 q 865 250 864 285 q 879 194 866 215 q 959 151 904 155 q 1081 157 1014 148 l 1081 0 m 547 604 l 547 750 l 1081 750 l 1081 604 l 547 604 z "},"ª":{"ha":447,"x_min":56,"x_max":391,"o":"m 181 375 q 88 409 120 375 q 56 489 56 442 q 74 557 56 528 q 138 602 92 585 q 218 622 169 614 q 333 639 267 629 l 299 620 q 283 669 299 653 q 229 685 267 685 q 186 675 208 685 q 154 639 163 665 l 69 666 q 122 742 83 713 q 229 771 162 771 q 317 756 278 771 q 376 703 356 740 q 389 661 387 682 q 391 615 391 640 l 391 385 l 308 385 l 308 463 l 320 447 q 261 392 292 408 q 181 375 229 375 m 201 449 q 261 468 240 449 q 288 499 282 488 q 296 535 295 515 q 297 569 297 556 l 325 562 q 233 546 262 551 q 187 533 205 540 q 157 515 166 525 q 148 490 148 504 q 162 460 148 471 q 201 449 176 449 z "},"º":{"ha":491,"x_min":56,"x_max":435,"o":"m 245 375 q 108 431 160 375 q 56 573 56 486 q 109 716 56 661 q 245 771 162 771 q 383 715 330 771 q 435 573 435 660 q 383 430 435 485 q 245 375 330 375 m 245 463 q 313 494 290 463 q 335 573 335 524 q 313 653 335 623 q 245 683 290 683 q 177 652 199 683 q 156 573 156 622 q 178 493 156 522 q 245 463 201 463 z "},"А":{"ha":949,"x_min":28,"x_max":921,"o":"m 28 0 l 333 1000 l 615 1000 l 921 0 l 726 0 l 454 882 l 490 882 l 222 0 l 28 0 m 211 208 l 211 385 l 739 385 l 739 208 l 211 208 z "},"Б":{"ha":903,"x_min":97,"x_max":861,"o":"m 97 0 l 97 1000 l 783 1000 l 783 824 l 286 824 l 286 633 l 519 633 q 558 632 533 633 q 603 629 583 631 q 746 576 689 620 q 832 464 803 532 q 861 317 861 397 q 833 169 861 237 q 747 57 804 101 q 603 4 690 13 q 559 1 583 2 q 519 0 534 0 l 97 0 m 286 176 l 511 176 q 543 178 526 176 q 575 182 560 179 q 652 235 633 194 q 671 317 671 276 q 652 398 671 358 q 575 451 633 439 q 543 456 560 455 q 511 457 526 457 l 286 457 l 286 176 z "},"В":{"ha":885,"x_min":97,"x_max":843,"o":"m 97 0 l 97 1000 l 497 1000 q 670 957 604 1000 q 767 850 736 915 q 797 719 797 785 q 759 580 797 635 q 656 506 722 524 l 656 540 q 796 453 749 521 q 843 303 843 386 q 810 145 843 213 q 710 39 777 77 q 540 0 642 0 l 97 0 m 289 178 l 521 178 q 589 194 559 178 q 636 240 619 210 q 653 310 653 269 q 638 373 653 345 q 594 417 624 401 q 521 433 565 433 l 289 433 l 289 178 m 289 610 l 494 610 q 551 621 526 610 q 591 655 576 632 q 606 715 606 678 q 577 792 606 761 q 494 824 549 824 l 289 824 l 289 610 z "},"Г":{"ha":764,"x_min":97,"x_max":750,"o":"m 97 0 l 97 1000 l 750 1000 l 750 824 l 286 824 l 286 0 l 97 0 z "},"Ѓ":{"ha":764,"x_min":97,"x_max":750,"o":"m 433 1104 l 293 1104 l 408 1375 l 549 1375 l 433 1104 m 97 0 l 97 1000 l 750 1000 l 750 824 l 286 824 l 286 0 l 97 0 z "},"Ґ":{"ha":778,"x_min":97,"x_max":764,"o":"m 97 0 l 97 1000 l 575 1000 l 575 1167 l 764 1167 l 764 824 l 286 824 l 286 0 l 97 0 z "},"Д":{"ha":1051,"x_min":42,"x_max":996,"o":"m 42 -167 l 42 176 q 118 199 87 176 q 170 263 150 222 q 202 360 190 304 q 219 481 214 415 q 232 645 226 564 q 243 813 238 726 q 256 1001 249 900 l 919 1000 l 919 176 l 996 176 l 996 -167 l 807 -167 l 807 0 l 231 0 l 231 -167 l 42 -167 m 324 176 l 731 176 l 731 824 l 428 825 q 420 699 423 756 q 413 582 417 641 q 401 450 408 523 q 388 330 394 377 q 366 249 381 283 q 324 176 352 214 z "},"Е":{"ha":819,"x_min":97,"x_max":750,"o":"m 97 0 l 97 1000 l 750 1000 l 750 824 l 286 824 l 286 610 l 667 610 l 667 433 l 286 433 l 286 176 l 750 176 l 750 0 l 97 0 z "},"Ѐ":{"ha":819,"x_min":97,"x_max":750,"o":"m 365 1104 l 250 1375 l 390 1375 l 506 1104 l 365 1104 m 97 0 l 97 1000 l 750 1000 l 750 824 l 286 824 l 286 610 l 667 610 l 667 433 l 286 433 l 286 176 l 750 176 l 750 0 l 97 0 z "},"Ё":{"ha":819,"x_min":97,"x_max":750,"o":"m 486 1106 l 486 1272 l 653 1272 l 653 1106 l 486 1106 m 192 1106 l 192 1272 l 358 1272 l 358 1106 l 192 1106 m 97 0 l 97 1000 l 750 1000 l 750 824 l 286 824 l 286 610 l 667 610 l 667 433 l 286 433 l 286 176 l 750 176 l 750 0 l 97 0 z "},"Ж":{"ha":1283,"x_min":14,"x_max":1269,"o":"m 14 0 l 368 507 l 40 1000 l 264 1000 l 547 553 l 547 1000 l 736 1000 l 736 553 l 1019 1000 l 1243 1000 l 915 507 l 1269 0 l 1038 0 l 736 442 l 736 0 l 547 0 l 547 442 l 246 0 l 14 0 z "},"З":{"ha":926,"x_min":56,"x_max":871,"o":"m 463 -21 q 276 10 356 -21 q 141 91 196 42 q 56 193 86 140 l 215 304 q 263 235 232 269 q 344 179 293 201 q 471 157 394 157 q 587 178 543 157 q 651 231 631 199 q 671 300 671 264 q 643 374 671 348 q 570 409 615 399 q 476 421 526 419 q 407 423 428 422 q 379 424 386 424 q 365 424 372 424 l 365 601 q 392 601 374 601 q 428 602 410 601 q 458 603 447 602 q 580 635 531 606 q 629 724 629 663 q 586 812 629 779 q 469 844 542 844 q 347 815 401 844 q 268 750 293 785 l 139 889 q 278 982 191 943 q 475 1021 366 1021 q 604 1004 541 1021 q 718 952 667 987 q 799 862 769 917 q 829 731 829 807 q 806 609 829 666 q 740 513 783 551 q 837 432 803 485 q 871 300 871 379 q 816 129 871 201 q 668 18 760 57 q 463 -21 575 -21 z "},"И":{"ha":1013,"x_min":97,"x_max":915,"o":"m 915 0 l 724 0 l 724 667 l 289 0 l 97 0 l 97 1000 l 289 1000 l 289 333 l 724 1000 l 915 1000 l 915 0 z "},"Й":{"ha":1013,"x_min":97,"x_max":915,"o":"m 97 0 l 97 1000 l 289 1000 l 289 333 l 724 1000 l 915 1000 l 915 0 l 724 0 l 724 667 l 289 0 l 97 0 m 503 1083 q 392 1113 442 1083 q 312 1193 342 1143 q 282 1304 282 1243 l 428 1304 q 450 1251 428 1273 q 503 1229 472 1229 q 556 1251 534 1229 q 578 1304 578 1273 l 724 1304 q 694 1193 724 1243 q 614 1113 664 1143 q 503 1083 564 1083 z "},"Ѝ":{"ha":1013,"x_min":97,"x_max":915,"o":"m 97 0 l 97 1000 l 289 1000 l 289 333 l 724 1000 l 915 1000 l 915 0 l 724 0 l 724 667 l 289 0 l 97 0 m 451 1104 l 336 1375 l 476 1375 l 592 1104 l 451 1104 z "},"К":{"ha":924,"x_min":97,"x_max":924,"o":"m 97 0 l 97 1000 l 286 1000 l 286 539 l 667 1000 l 897 1000 l 479 507 l 924 0 l 685 0 l 286 456 l 286 0 l 97 0 z "},"Ќ":{"ha":924,"x_min":97,"x_max":924,"o":"m 97 0 l 97 1000 l 286 1000 l 286 539 l 667 1000 l 897 1000 l 479 507 l 924 0 l 685 0 l 286 456 l 286 0 l 97 0 m 536 1104 l 396 1104 l 511 1375 l 651 1375 l 536 1104 z "},"Л":{"ha":1014,"x_min":28,"x_max":917,"o":"m 28 0 l 28 157 q 82 163 60 155 q 120 191 104 170 q 147 248 135 211 q 169 339 159 284 q 198 522 186 426 q 217 710 209 618 q 228 879 224 803 q 235 1000 233 955 l 917 1000 l 917 0 l 728 0 l 728 824 l 408 824 q 401 722 406 785 q 389 584 397 660 q 370 427 381 508 q 343 269 359 346 q 308 138 328 195 q 252 44 287 81 q 164 -4 218 8 q 28 0 110 -16 z "},"М":{"ha":1194,"x_min":97,"x_max":1097,"o":"m 97 0 l 97 1000 l 267 1000 l 597 336 l 928 1000 l 1097 1000 l 1097 0 l 921 0 l 921 597 l 631 0 l 564 0 l 274 597 l 274 0 l 97 0 z "},"Н":{"ha":1019,"x_min":97,"x_max":922,"o":"m 97 0 l 97 1000 l 286 1000 l 286 589 l 733 589 l 733 1000 l 922 1000 l 922 0 l 733 0 l 733 413 l 286 413 l 286 0 l 97 0 z "},"О":{"ha":1053,"x_min":42,"x_max":1011,"o":"m 526 -21 q 268 44 376 -21 q 100 227 159 110 q 42 500 42 344 q 100 773 42 656 q 268 956 159 890 q 526 1021 376 1021 q 785 956 676 1021 q 952 773 894 890 q 1011 500 1011 656 q 952 227 1011 344 q 785 44 894 110 q 526 -21 676 -21 m 526 157 q 685 198 622 156 q 780 318 748 240 q 811 500 811 396 q 780 681 811 604 q 685 799 748 757 q 526 843 622 842 q 368 802 431 844 q 273 682 305 760 q 242 500 242 604 q 273 319 242 396 q 368 201 305 243 q 526 157 431 158 z "},"П":{"ha":1019,"x_min":97,"x_max":922,"o":"m 97 0 l 97 1000 l 922 1000 l 922 0 l 733 0 l 733 824 l 286 824 l 286 0 l 97 0 z "},"Р":{"ha":903,"x_min":97,"x_max":861,"o":"m 97 0 l 97 1000 l 519 1000 q 559 999 534 1000 q 603 994 583 998 q 750 935 692 981 q 834 822 807 890 q 861 669 861 753 q 834 517 861 585 q 749 403 806 449 q 603 344 692 358 q 558 340 583 342 q 519 339 533 339 l 286 339 l 286 0 l 97 0 m 286 515 l 511 515 q 543 517 526 515 q 575 522 560 518 q 634 557 613 533 q 663 612 655 582 q 671 669 671 642 q 663 727 671 697 q 634 782 655 757 q 575 817 613 806 q 543 822 560 821 q 511 824 526 824 l 286 824 l 286 515 z "},"С":{"ha":1036,"x_min":42,"x_max":981,"o":"m 526 -21 q 268 44 376 -21 q 100 227 159 110 q 42 500 42 344 q 100 773 42 656 q 268 956 159 890 q 526 1021 376 1021 q 816 935 699 1021 q 981 704 933 850 l 790 651 q 697 793 763 742 q 526 843 631 843 q 368 801 431 843 q 272 681 304 758 q 240 500 240 604 q 272 319 240 396 q 368 199 304 242 q 526 157 431 157 q 697 208 631 157 q 790 349 763 258 l 981 296 q 816 65 933 150 q 526 -21 699 -21 z "},"Т":{"ha":847,"x_min":14,"x_max":833,"o":"m 329 0 l 329 824 l 14 824 l 14 1000 l 833 1000 l 833 824 l 518 824 l 518 0 l 329 0 z "},"У":{"ha":890,"x_min":14,"x_max":890,"o":"m 217 0 l 356 281 l 14 1000 l 228 1000 l 454 479 l 689 1000 l 890 1000 l 418 0 l 217 0 z "},"Ў":{"ha":890,"x_min":14,"x_max":890,"o":"m 467 1083 q 356 1113 406 1083 q 276 1193 306 1143 q 246 1304 246 1243 l 392 1304 q 414 1251 392 1273 q 467 1229 435 1229 q 520 1251 498 1229 q 542 1304 542 1273 l 688 1304 q 658 1193 688 1243 q 578 1113 628 1143 q 467 1083 528 1083 m 217 0 l 356 281 l 14 1000 l 228 1000 l 454 479 l 689 1000 l 890 1000 l 418 0 l 217 0 z "},"Ф":{"ha":1039,"x_min":42,"x_max":997,"o":"m 425 0 l 425 146 q 279 152 348 133 q 156 220 210 171 q 72 346 103 269 q 42 528 42 424 q 72 710 42 632 q 156 839 103 789 q 279 910 210 890 q 425 917 348 930 l 425 1000 l 613 1000 l 613 917 q 759 910 690 930 q 882 839 828 890 q 966 710 935 789 q 997 528 997 632 q 966 346 997 424 q 882 220 935 269 q 759 152 828 171 q 613 146 690 133 l 613 0 l 425 0 m 425 318 l 425 747 q 328 740 366 757 q 270 689 290 722 q 241 612 249 655 q 233 528 233 569 q 241 445 233 486 q 270 372 249 404 q 328 324 290 340 q 425 318 366 309 m 613 318 q 709 325 672 309 q 768 372 747 340 q 797 443 789 403 q 806 522 806 483 q 797 604 806 561 q 768 683 789 647 q 709 738 747 719 q 613 747 672 757 l 613 318 z "},"Х":{"ha":933,"x_min":14,"x_max":919,"o":"m 14 0 l 350 506 l 24 1000 l 256 1000 l 468 667 l 678 1000 l 911 1000 l 585 506 l 919 0 l 688 0 l 468 344 l 247 0 l 14 0 z "},"Ч":{"ha":953,"x_min":97,"x_max":856,"o":"m 665 0 l 665 436 l 692 393 q 583 341 653 359 q 436 322 513 322 q 237 372 311 322 q 130 509 163 422 q 97 713 97 597 l 97 1000 l 289 1000 l 289 769 q 292 677 289 724 q 313 590 296 630 q 369 525 330 549 q 481 500 409 500 q 611 527 558 500 q 686 583 665 553 l 665 499 l 665 1000 l 856 1000 l 856 0 l 665 0 z "},"Ц":{"ha":1057,"x_min":97,"x_max":1043,"o":"m 854 -167 l 854 0 l 97 0 l 97 1000 l 286 1000 l 286 167 l 742 167 l 742 972 l 931 972 l 931 167 l 1043 167 l 1043 -167 l 854 -167 z "},"Ш":{"ha":1333,"x_min":97,"x_max":1236,"o":"m 97 0 l 97 1000 l 286 1000 l 286 176 l 572 176 l 572 1000 l 761 1000 l 761 176 l 1047 176 l 1047 1000 l 1236 1000 l 1236 0 l 97 0 z "},"Щ":{"ha":1363,"x_min":97,"x_max":1349,"o":"m 1160 -167 l 1160 0 l 1063 0 l 1063 167 l 1349 167 l 1349 -167 l 1160 -167 m 97 0 l 97 1000 l 286 1000 l 286 176 l 572 176 l 572 1000 l 761 1000 l 761 176 l 1047 176 l 1047 1000 l 1236 1000 l 1236 0 l 97 0 z "},"Џ":{"ha":1083,"x_min":97,"x_max":986,"o":"m 447 -167 l 447 0 l 97 0 l 97 1000 l 286 1000 l 286 176 l 797 176 l 797 1000 l 986 1000 l 986 0 l 636 0 l 636 -167 l 447 -167 z "},"Ь":{"ha":915,"x_min":96,"x_max":860,"o":"m 96 0 l 96 1000 l 285 1000 l 285 661 l 518 661 q 557 660 532 661 q 601 656 582 659 q 748 597 690 642 q 832 483 805 551 q 860 331 860 415 q 833 178 860 247 q 748 65 806 110 q 601 6 691 19 q 557 1 582 3 q 518 0 533 0 l 96 0 m 285 176 l 510 176 q 542 178 524 176 q 574 183 559 179 q 633 218 612 194 q 661 273 653 243 q 669 331 669 303 q 661 388 669 358 q 633 443 653 418 q 574 478 612 467 q 542 483 559 482 q 510 485 524 485 l 285 485 l 285 176 z "},"Ъ":{"ha":933,"x_min":0,"x_max":903,"o":"m 139 0 l 139 854 l 0 854 l 0 1000 l 328 1000 l 328 661 l 561 661 q 600 660 575 661 q 644 656 625 659 q 791 597 733 642 q 875 483 848 551 q 903 331 903 415 q 876 178 903 247 q 791 65 849 110 q 644 6 734 19 q 600 1 625 3 q 561 0 576 0 l 139 0 m 328 176 l 553 176 q 585 178 567 176 q 617 183 602 179 q 676 218 655 194 q 705 273 697 243 q 713 331 713 303 q 705 388 713 358 q 676 443 697 418 q 617 478 655 467 q 585 483 602 482 q 553 485 567 485 l 328 485 l 328 176 z "},"Ы":{"ha":1246,"x_min":96,"x_max":1149,"o":"m 96 0 l 96 1000 l 285 1000 l 285 661 l 518 661 q 557 660 532 661 q 601 656 582 659 q 748 597 690 642 q 832 483 805 551 q 860 331 860 415 q 833 178 860 247 q 748 65 806 110 q 601 6 691 19 q 557 1 582 3 q 518 0 533 0 l 96 0 m 285 176 l 510 176 q 542 178 524 176 q 574 183 559 179 q 633 218 612 194 q 661 273 653 243 q 669 331 669 303 q 661 388 669 358 q 633 443 653 418 q 574 478 612 467 q 542 483 559 482 q 510 485 524 485 l 285 485 l 285 176 m 960 0 l 960 1000 l 1149 1000 l 1149 0 l 960 0 z "},"Љ":{"ha":1532,"x_min":14,"x_max":1476,"o":"m 713 0 l 713 1000 l 901 1000 l 901 661 l 1135 661 q 1174 660 1149 661 q 1218 656 1199 659 q 1364 597 1307 642 q 1449 483 1422 551 q 1476 331 1476 415 q 1449 178 1476 247 q 1365 65 1422 110 q 1218 6 1308 19 q 1174 1 1199 3 q 1135 0 1149 0 l 713 0 m 901 176 l 1126 176 q 1158 178 1141 176 q 1190 183 1176 179 q 1249 218 1228 194 q 1278 273 1270 243 q 1286 331 1286 303 q 1278 388 1286 358 q 1249 443 1270 418 q 1190 478 1228 467 q 1158 483 1176 482 q 1126 485 1141 485 l 901 485 l 901 176 m 14 0 l 14 157 q 68 163 46 155 q 106 191 90 170 q 133 248 122 211 q 156 339 145 284 q 184 522 172 426 q 203 710 195 618 q 215 879 210 803 q 221 1000 219 955 l 903 1000 l 903 0 l 714 0 l 714 824 l 394 824 q 387 722 392 785 q 375 584 383 660 q 356 427 367 508 q 329 269 345 346 q 294 138 315 195 q 239 44 273 81 q 150 -4 204 8 q 14 0 96 -16 z "},"Њ":{"ha":1551,"x_min":97,"x_max":1496,"o":"m 97 0 l 97 1000 l 286 1000 l 286 660 l 819 660 l 819 483 l 286 483 l 286 0 l 97 0 m 732 0 l 732 1000 l 921 1000 l 921 661 l 1154 661 q 1193 660 1168 661 q 1238 656 1218 659 q 1384 597 1326 642 q 1468 483 1441 551 q 1496 331 1496 415 q 1469 178 1496 247 q 1384 65 1442 110 q 1238 6 1327 19 q 1193 1 1218 3 q 1154 0 1169 0 l 732 0 m 921 176 l 1146 176 q 1178 178 1160 176 q 1210 183 1195 179 q 1269 218 1248 194 q 1298 273 1290 243 q 1306 331 1306 303 q 1298 388 1306 358 q 1269 443 1290 418 q 1210 478 1248 467 q 1178 483 1195 482 q 1146 485 1160 485 l 921 485 l 921 176 z "},"Ѕ":{"ha":932,"x_min":56,"x_max":876,"o":"m 475 -21 q 275 18 364 -21 q 128 131 185 58 q 56 306 71 204 l 253 335 q 339 202 274 249 q 488 156 404 156 q 578 170 534 156 q 650 213 622 185 q 678 283 678 242 q 673 313 678 299 q 658 340 669 327 q 629 363 648 352 q 581 383 610 374 l 321 460 q 253 483 292 468 q 178 527 215 499 q 118 602 142 556 q 94 721 94 649 q 145 888 94 822 q 281 988 196 955 q 468 1019 365 1020 q 653 984 572 1018 q 789 885 734 950 q 868 726 844 820 l 664 692 q 623 774 653 740 q 552 824 593 807 q 465 843 510 842 q 382 831 421 844 q 318 792 342 817 q 293 731 293 766 q 313 677 293 698 q 364 644 333 657 q 426 624 394 632 l 600 576 q 686 549 639 566 q 777 502 733 532 q 848 422 820 472 q 876 297 876 373 q 843 157 876 217 q 752 57 809 97 q 623 -1 695 18 q 475 -21 551 -21 z "},"Є":{"ha":1007,"x_min":42,"x_max":965,"o":"m 514 -21 q 261 49 367 -21 q 98 236 155 118 q 42 500 42 354 q 99 772 42 655 q 263 955 157 890 q 514 1021 369 1021 q 810 931 693 1021 q 965 678 928 842 l 776 651 q 686 790 751 738 q 526 843 620 842 q 389 813 447 844 q 294 723 331 781 q 246 589 258 665 l 597 589 l 597 413 l 247 413 q 268 330 253 370 q 308 257 283 290 q 403 183 345 207 q 526 157 462 158 q 683 208 618 156 q 774 340 748 260 l 958 294 q 865 118 926 188 q 715 14 803 48 q 514 -21 626 -21 z "},"Э":{"ha":1007,"x_min":42,"x_max":965,"o":"m 493 -21 q 292 14 381 -21 q 142 118 203 48 q 49 294 81 188 l 233 340 q 324 208 260 260 q 481 157 389 156 q 604 183 545 158 q 699 257 663 207 q 739 330 725 290 q 760 413 753 370 l 410 413 l 410 589 l 761 589 q 713 723 749 665 q 618 813 676 781 q 481 843 560 844 q 321 790 387 842 q 231 651 256 738 l 42 678 q 197 931 79 842 q 493 1021 314 1021 q 744 955 638 1021 q 908 772 850 890 q 965 500 965 655 q 909 236 965 354 q 746 49 852 118 q 493 -21 640 -21 z "},"І":{"ha":411,"x_min":111,"x_max":300,"o":"m 111 0 l 111 1000 l 300 1000 l 300 0 l 111 0 z "},"Ї":{"ha":411,"x_min":-25,"x_max":436,"o":"m 269 1106 l 269 1272 l 436 1272 l 436 1106 l 269 1106 m -25 1106 l -25 1272 l 142 1272 l 142 1106 l -25 1106 m 111 0 l 111 1000 l 300 1000 l 300 0 l 111 0 z "},"Ј":{"ha":713,"x_min":0,"x_max":601,"o":"m 307 -21 q 110 40 188 -21 q 0 206 33 101 l 186 250 q 226 184 192 212 q 299 156 260 156 q 355 170 325 156 q 399 217 385 185 q 408 266 407 237 q 410 333 410 295 l 410 1000 l 601 1000 l 601 333 q 601 250 601 285 q 594 184 601 215 q 568 119 588 153 q 458 13 526 46 q 307 -21 390 -21 z "},"Ћ":{"ha":953,"x_min":0,"x_max":856,"o":"m 0 833 l 0 1000 l 500 1000 l 500 833 l 0 833 m 288 1000 l 288 564 l 261 607 q 370 660 300 642 q 517 678 441 678 q 716 628 642 678 q 823 491 790 578 q 856 288 856 403 l 856 0 l 664 0 l 664 231 q 660 323 664 276 q 640 410 657 370 q 584 475 623 451 q 472 500 544 500 q 342 474 395 500 q 267 417 289 447 l 288 501 l 288 0 l 97 0 l 97 1000 l 288 1000 z "},"Ю":{"ha":1328,"x_min":97,"x_max":1286,"o":"m 97 0 l 97 1000 l 286 1000 l 286 594 l 453 594 l 453 406 l 286 406 l 286 0 l 97 0 m 858 -21 q 680 15 759 -21 q 545 118 601 50 q 460 282 490 185 q 431 500 431 378 q 460 718 431 622 q 545 882 490 815 q 680 985 601 950 q 858 1021 759 1021 q 1037 985 958 1021 q 1172 882 1116 950 q 1257 718 1227 815 q 1286 500 1286 622 q 1257 282 1286 378 q 1172 118 1227 185 q 1037 15 1116 50 q 858 -21 958 -21 m 858 157 q 960 182 917 157 q 1031 252 1003 206 q 1072 360 1058 297 q 1086 500 1086 424 q 1072 640 1086 576 q 1031 748 1058 703 q 960 818 1003 794 q 858 843 917 843 q 757 818 800 843 q 686 748 714 794 q 644 640 658 703 q 631 500 631 576 q 644 360 631 424 q 686 252 658 297 q 757 182 714 206 q 858 157 800 157 z "},"Я":{"ha":931,"x_min":56,"x_max":833,"o":"m 833 0 l 644 0 l 644 339 l 411 339 l 328 344 q 132 455 194 365 q 69 669 69 544 q 97 822 69 753 q 181 935 124 890 q 328 994 238 981 q 372 999 348 998 q 411 1000 397 1000 l 833 1000 l 833 0 m 269 0 l 56 0 l 272 444 l 467 407 l 269 0 m 644 515 l 644 824 l 419 824 q 388 822 405 824 q 356 817 370 821 q 297 782 317 806 q 268 727 276 757 q 260 669 260 697 q 268 612 260 642 q 297 557 276 582 q 356 522 317 533 q 388 517 370 518 q 419 515 405 515 l 644 515 z "},"Ђ":{"ha":953,"x_min":0,"x_max":897,"o":"m 111 0 l 111 833 l 0 833 l 0 1000 l 500 1000 l 500 833 l 278 833 l 278 686 q 391 749 326 728 q 538 771 456 771 q 804 673 710 771 q 897 388 897 575 q 857 182 897 269 q 734 47 817 94 q 518 0 650 0 l 518 192 q 632 219 592 192 q 689 290 673 246 q 706 386 706 334 q 680 506 706 462 q 609 570 653 551 q 510 589 565 589 q 380 556 428 589 q 315 474 331 524 q 305 419 308 451 q 301 360 301 388 l 301 0 l 111 0 z "},"Ү":{"ha":875,"x_min":0,"x_max":875,"o":"m 342 0 l 342 407 l 0 1000 l 221 1000 l 438 624 l 654 1000 l 875 1000 l 533 407 l 533 0 l 342 0 z "},"Һ":{"ha":953,"x_min":97,"x_max":856,"o":"m 288 1000 l 288 564 l 261 607 q 370 660 300 642 q 517 678 441 678 q 716 628 642 678 q 823 491 790 578 q 856 288 856 403 l 856 0 l 664 0 l 664 231 q 660 323 664 276 q 640 410 657 370 q 584 475 623 451 q 472 500 544 500 q 342 474 395 500 q 267 417 289 447 l 288 501 l 288 0 l 97 0 l 97 1000 l 288 1000 z "},"Ө":{"ha":1081,"x_min":42,"x_max":1011,"o":"m 201 406 l 201 594 l 868 594 l 868 406 l 201 406 m 526 -21 q 268 44 376 -21 q 100 227 159 110 q 42 500 42 344 q 100 773 42 656 q 268 956 159 890 q 526 1021 376 1021 q 785 956 676 1021 q 952 773 894 890 q 1011 500 1011 656 q 952 227 1011 344 q 785 44 894 110 q 526 -21 676 -21 m 526 157 q 685 198 622 156 q 780 318 748 240 q 811 500 811 396 q 780 681 811 604 q 685 799 748 757 q 526 843 622 842 q 368 802 431 844 q 273 682 305 760 q 242 500 242 604 q 273 319 242 396 q 368 201 305 243 q 526 157 431 158 z "},"а":{"ha":810,"x_min":56,"x_max":726,"o":"m 306 -21 q 169 10 225 -21 q 84 93 113 41 q 56 207 56 144 q 72 302 56 259 q 123 378 88 345 q 219 433 159 411 q 319 460 261 449 q 449 483 376 472 q 610 507 522 494 l 542 469 q 510 567 542 536 q 403 599 478 599 q 316 578 361 599 q 253 507 271 558 l 82 561 q 189 713 110 654 q 403 771 267 771 q 579 740 502 771 q 696 635 656 710 q 722 551 718 593 q 726 458 726 510 l 726 0 l 561 0 l 561 154 l 585 122 q 466 13 530 47 q 306 -21 403 -21 m 346 128 q 434 146 398 128 q 491 188 469 165 q 519 228 512 212 q 536 299 534 258 q 539 367 539 340 l 594 353 q 458 330 510 339 q 374 313 406 320 q 318 296 342 305 q 273 272 290 285 q 248 244 256 259 q 240 210 240 228 q 253 166 240 184 q 290 138 266 147 q 346 128 313 128 z "},"б":{"ha":838,"x_min":53,"x_max":783,"o":"m 413 -22 q 230 26 305 -21 q 112 156 155 73 q 59 349 69 239 q 57 482 53 408 q 72 627 60 556 q 108 750 85 699 q 165 838 130 798 q 240 906 200 878 q 340 956 286 938 q 452 983 393 974 q 575 1001 511 993 q 703 1021 638 1008 l 720 854 q 630 839 681 844 q 526 829 579 834 q 424 813 472 824 q 340 779 375 801 q 266 696 292 749 q 237 589 241 643 q 342 675 280 651 q 465 699 404 699 q 635 651 564 699 q 744 523 706 603 q 783 346 783 443 q 735 152 783 235 q 604 23 688 69 q 413 -22 521 -24 m 422 154 q 543 204 502 154 q 584 338 584 254 q 542 472 584 423 q 422 521 500 521 q 300 472 342 521 q 259 338 259 423 q 301 202 259 249 q 422 154 344 154 z "},"в":{"ha":788,"x_min":96,"x_max":746,"o":"m 96 0 l 96 750 l 447 750 q 520 745 489 750 q 572 735 551 741 q 666 675 624 719 q 708 546 708 631 q 692 465 708 496 q 650 414 676 434 q 625 399 638 405 q 600 389 613 392 q 653 374 629 385 q 718 321 690 357 q 746 215 746 285 q 709 88 746 140 q 600 14 673 35 q 541 3 575 7 q 471 0 508 0 l 96 0 m 288 143 l 457 143 q 487 146 472 143 q 515 154 503 149 q 544 183 535 163 q 553 224 553 203 q 540 269 553 253 q 511 293 527 286 q 482 300 498 299 q 457 301 467 301 l 288 301 l 288 143 m 288 447 l 403 447 q 445 450 425 447 q 478 458 465 452 q 505 485 496 467 q 514 526 514 503 q 504 570 514 551 q 471 597 494 590 q 432 603 456 603 q 403 604 409 604 l 288 604 l 288 447 z "},"г":{"ha":674,"x_min":97,"x_max":639,"o":"m 97 0 l 97 750 l 639 750 l 639 574 l 286 574 l 286 0 l 97 0 z "},"ѓ":{"ha":674,"x_min":97,"x_max":639,"o":"m 406 854 l 265 854 l 381 1125 l 521 1125 l 406 854 m 97 0 l 97 750 l 639 750 l 639 574 l 286 574 l 286 0 l 97 0 z "},"ґ":{"ha":674,"x_min":97,"x_max":639,"o":"m 97 0 l 97 750 l 450 750 l 450 917 l 639 917 l 639 574 l 286 574 l 286 0 l 97 0 z "}}}
